<?xml version="1.0" standalone="no"?>
<!DOCTYPE svg PUBLIC "-//W3C//DTD SVG 1.1//EN" "http://www.w3.org/Graphics/SVG/1.1/DTD/svg11.dtd" >
<svg xmlns="http://www.w3.org/2000/svg" xmlns:xlink="http://www.w3.org/1999/xlink" version="1.1">
<metadata></metadata>
<defs>
<font id="thongtermlight_oblique" horiz-adv-x="1138" >
<font-face units-per-em="2048" ascent="1638" descent="-410" />
<missing-glyph horiz-adv-x="569" />
<glyph unicode="&#xe2f;&#xe2f;" horiz-adv-x="1441" d="M1169 0h-110l258 1198h110zM827 0h-108l174 811q7 36 29 95t40 100l19 41l-10 4q-71 -142 -198 -234t-286 -92q-122 0 -198 76.5t-76 177.5q0 104 65.5 169.5t167.5 65.5q69 0 117.5 -44t48.5 -113q0 -93 -64 -147t-145 -54q-26 0 -47 6l-4 -4q41 -41 142 -41 q143 0 272 110t209 271h110zM512 1042q0 32 -18 54t-54 22q-54 0 -85 -32t-31 -72q0 -34 16.5 -57t52.5 -23q51 0 85 33.5t34 74.5z" />
<glyph unicode="&#xe4f;&#x22;" horiz-adv-x="980" d="M688 573q0 -76 -60.5 -132t-138.5 -56q-56 0 -92.5 37.5t-36.5 93.5q0 76 60.5 133.5t136.5 57.5q58 0 94.5 -38t36.5 -96zM858 600q0 117 -73.5 194.5t-190.5 77.5q-102 0 -195 -53.5t-149.5 -143t-56.5 -188.5q0 -114 73 -190t189 -76q102 0 195 52t150.5 140t57.5 187 zM909 610q0 -117 -67 -218.5t-174.5 -159.5t-225.5 -58q-132 0 -215.5 86.5t-83.5 218.5q0 116 65.5 218.5t172.5 162.5t223 60q135 0 220 -89t85 -221zM580 1063h-82l82 371h82zM762 1063h-82l82 371h82z" />
<glyph unicode="&#xe24;&#xe32;" horiz-adv-x="1941" d="M1548 -575h-110l291 1372q12 56 12 104q0 213 -268 213q-202 0 -343 -127q9 -37 9 -78q0 -49 -13 -112l-290 -1372h-111l291 1372q10 55 10 92q0 108 -71 166.5t-216 58.5q-115 0 -212 -37.5t-167 -95.5v-6q68 -6 143.5 -34.5t121.5 -63.5l-13 -46q-100 -11 -170.5 -75.5 t-93.5 -169.5l-33 -150q-17 -70 -45 -123l9 -2q14 21 46.5 36t71.5 15q65 0 110.5 -43t45.5 -116q0 -92 -66.5 -151.5t-162.5 -59.5q-78 0 -128.5 41.5t-50.5 107.5q0 7 5 37l88 408q21 96 81.5 167.5t137.5 100.5l2 8q-79 43 -246 43l14 66q81 108 220.5 175.5t312.5 67.5 q240 0 330 -133q171 133 403 133q182 0 271 -76t89 -218q0 -48 -14 -123zM451 193q0 37 -22 60t-60 23q-50 0 -84.5 -30.5t-34.5 -79.5q0 -36 24 -60t60 -24q50 0 83.5 32t33.5 79z" />
<glyph unicode="&#xe26;&#xe32;" horiz-adv-x="2043" d="M1653 -575h-111l291 1372q12 56 12 104q0 213 -268 213q-197 0 -338 -123q10 -48 10 -88q0 -51 -12 -106l-293 -1372h-110l292 1372q11 60 11 92q0 108 -71 166.5t-216 58.5q-115 0 -212 -37.5t-167 -95.5v-6q69 -6 149 -35t125 -63l-12 -46q-192 -20 -241 -245l-89 -408 q-20 -88 -82 -137t-147 -49q-75 0 -123.5 45t-48.5 117q0 94 64 152.5t155 58.5q74 0 113 -54l8 2q-2 14 -2 43q0 39 8 80l33 150q22 100 72.5 170.5t124.5 97.5l2 8q-39 21 -112.5 32t-143.5 11l14 66q81 109 216.5 176t307.5 67q242 0 334 -131q169 131 401 131 q182 0 271.5 -76.5t89.5 -217.5q0 -48 -14 -123zM303 193q0 36 -22.5 59.5t-59.5 23.5q-50 0 -84.5 -31.5t-34.5 -78.5q0 -35 24.5 -59.5t61.5 -24.5q50 0 82.5 31t32.5 80z" />
<glyph unicode="fi" horiz-adv-x="1024" d="M238 0h-123l215 967h-176l20 98h176l35 152q32 141 107.5 211.5t209.5 70.5q60 0 132 -16l-25 -103q-61 21 -115 21q-74 0 -118.5 -40t-65.5 -130l-37 -166h217l-20 -98h-217zM776 0h-123l236 1065h123zM1065 1298h-123l39 181h123z" />
<glyph unicode="fl" horiz-adv-x="1024" d="M238 0h-123l215 967h-176l20 98h176l35 152q32 141 107.5 211.5t209.5 70.5q60 0 132 -16l-25 -103q-61 21 -115 21q-74 0 -118.5 -40t-65.5 -130l-37 -166h217l-20 -98h-217zM776 0h-123l328 1479h123z" />
<glyph unicode="&#xd;" horiz-adv-x="569" />
<glyph unicode=" "  horiz-adv-x="569" />
<glyph unicode="&#x09;" horiz-adv-x="569" />
<glyph unicode="&#xa0;" horiz-adv-x="569" />
<glyph unicode="!" horiz-adv-x="454" d="M297 455h-102l190 1024h176zM233 0h-176l41 184h176z" />
<glyph unicode="&#x22;" horiz-adv-x="681" d="M422 1016h-103l103 463h102zM649 1016h-102l102 463h103z" />
<glyph unicode="#" d="M647 0h-100l174 481h-303l-174 -481h-101l174 481h-241l22 99h254l119 321h-242l21 98h254l174 480h102l-174 -480h301l174 480h103l-174 -480h217l-21 -98h-231l-117 -321h217l-22 -99h-232zM756 580l118 321h-303l-116 -321h301z" />
<glyph unicode="$" d="M485 -244h-98l53 244q-150 6 -257 84.5t-140 214.5l113 68q26 -117 106.5 -193t200.5 -76l133 609q-54 16 -98 34t-89 46t-75.5 60t-50 78t-19.5 99q0 108 45 196t118.5 143t161 84.5t179.5 31.5l33 143h98l-33 -143q130 -6 222 -79t112 -163q-1 0 -49 -33t-55 -37 q-59 187 -252 211l-127 -577q58 -18 103 -36t95.5 -47t83.5 -62.5t54.5 -82.5t21.5 -106q0 -88 -32.5 -164.5t-86.5 -130.5t-123.5 -93.5t-144.5 -58.5t-149 -20zM625 829l120 551q-65 0 -129.5 -23.5t-117 -64.5t-85 -103.5t-32.5 -135.5q0 -48 19.5 -86t56.5 -64t76 -42.5 t92 -31.5zM690 680l-129 -582q91 1 183 45.5t155.5 125.5t63.5 173q0 25 -6 48t-20.5 42t-27 34t-38 30.5t-41 24.5t-47.5 22.5t-45.5 18.5t-47.5 18z" />
<glyph unicode="%" horiz-adv-x="1820" d="M1020 1214q0 -104 -61.5 -199.5t-159 -151.5t-199.5 -56q-119 0 -193.5 74t-74.5 188q0 105 61 201t158 152.5t199 56.5q119 0 194.5 -75.5t75.5 -189.5zM920 1194q0 80 -54.5 133t-138.5 53q-114 0 -204.5 -88t-90.5 -202q0 -80 53.5 -132.5t137.5 -52.5 q114 0 205.5 87.5t91.5 201.5zM1653 408q0 -104 -61 -199.5t-158 -152t-199 -56.5q-119 0 -194.5 74.5t-75.5 189.5q0 104 61.5 199.5t158.5 152t199 56.5q119 0 194 -74.5t75 -189.5zM1552 391q0 79 -53 130.5t-137 51.5q-112 0 -204.5 -88t-92.5 -202q0 -79 54 -132 t138 -53q114 0 204.5 88.5t90.5 204.5zM444 -20h-106l1204 1519h109z" />
<glyph unicode="&#x26;" horiz-adv-x="1366" d="M838 233q-55 64 -138 226.5t-127 277.5q-360 -178 -360 -442q0 -96 77 -150.5t187 -54.5q196 0 361 143zM655 905q132 64 223 166t91 199q0 55 -33.5 87t-101.5 32q-72 0 -123.5 -49t-74 -116.5t-22.5 -140.5q0 -98 41 -178zM1239 102l-27 -122q-186 9 -309 161 q-101 -77 -220.5 -119t-236.5 -42q-161 0 -265.5 75t-104.5 215q0 79 26.5 151.5t67 128t104.5 112t122.5 96.5t138.5 88q-54 115 -54 235q0 191 109 304.5t274 113.5q109 0 175.5 -56.5t66.5 -154.5q0 -68 -24 -130t-60 -109t-91.5 -93.5t-104.5 -80t-111 -73.5 q-3 -1 -4 -2t-3.5 -2.5t-4 -2.5t-3.5 -2q19 -39 69 -151.5t88.5 -185.5t82.5 -134q155 179 236 374l122 -24q-106 -240 -284 -436q96 -126 225 -134z" />
<glyph unicode="'" horiz-adv-x="454" d="M422 1016h-103l103 463h102z" />
<glyph unicode="(" horiz-adv-x="681" d="M451 -168h-148q-129 243 -129 551q0 271 126.5 566.5t371.5 549.5h147q-134 -126 -236.5 -270.5t-163.5 -288t-91.5 -280.5t-30.5 -265q0 -316 154 -563z" />
<glyph unicode=")" horiz-adv-x="681" d="M141 -168h-147q133 125 235 269.5t163 287.5t91.5 280.5t30.5 266.5q0 319 -152 563h148q129 -246 129 -551q0 -271 -126.5 -567.5t-371.5 -548.5z" />
<glyph unicode="*" horiz-adv-x="1024" d="M866 915l-106 -71l-82 254l-201 -254l-78 61l240 221l-279 62l60 106l248 -104l37 289h110l-86 -289l291 108l8 -102l-301 -70z" />
<glyph unicode="+" horiz-adv-x="1228" d="M1171 477h-477l-106 -477h-111l107 477h-478l25 111h477l105 477h110l-104 -477h477z" />
<glyph unicode="," horiz-adv-x="569" d="M94 -307h-80l187 307h-86l41 184h176l-41 -184z" />
<glyph unicode="-" horiz-adv-x="681" d="M621 477h-510l24 111h510z" />
<glyph unicode="." horiz-adv-x="569" d="M291 0h-176l41 184h176z" />
<glyph unicode="/" horiz-adv-x="569" d="M10 -20h-121l842 1519h113z" />
<glyph unicode="0" d="M483 -20q-194 0 -287.5 123.5t-93.5 338.5q0 99 18.5 211.5t54.5 232.5t96 228.5t136.5 195t183 138t228.5 51.5q193 0 286 -124t93 -339q0 -159 -33 -314t-97 -288t-149.5 -235t-198.5 -160.5t-237 -58.5zM500 90q95 0 179 47.5t144 126.5t108 178t76.5 206.5t43 206.5 t14.5 183q0 167 -66 259t-204 92q-111 0 -206 -67.5t-158.5 -172t-108.5 -234t-65.5 -251t-20.5 -224.5q0 -350 264 -350z" />
<glyph unicode="1" d="M827 0h-634l24 111h254l274 1241l-290 -41l18 80l354 108h86l-307 -1388h246z" />
<glyph unicode="2" d="M942 0h-934l19 86q10 42 41.5 90.5t99 117t192.5 163t302 207.5q5 3 16 10q162 104 231 168q158 146 158 325q0 104 -66.5 163t-201.5 59q-133 0 -241 -84.5t-181 -249.5l-113 22q79 199 231.5 310.5t342.5 111.5q169 0 261.5 -80.5t92.5 -222.5q0 -126 -43 -221 t-147.5 -190.5t-296.5 -211.5q-506 -309 -549 -462h811z" />
<glyph unicode="3" d="M551 729h-135l24 111h111q222 0 349.5 89.5t127.5 268.5q0 191 -272 191q-100 0 -191 -47t-192 -146l-80 70q233 233 498 233q54 0 104.5 -8.5t101 -29t87.5 -51t60 -79t23 -108.5q0 -300 -323 -432q209 -87 209 -277q0 -161 -78.5 -283.5t-212.5 -186.5t-301 -64 q-186 0 -305.5 73.5t-147.5 220.5l121 62q36 -138 114.5 -192t227.5 -54q201 0 324 107.5t123 298.5q0 233 -367 233z" />
<glyph unicode="4" d="M748 483l192 869h-14l-738 -869h560zM776 0h-135l82 373h-694l24 104l871 1002h180l-221 -998h223l-25 -108h-223z" />
<glyph unicode="5" d="M70 256l125 72q33 -124 107 -181t194 -57q92 0 171.5 31t134.5 82t94.5 117.5t58 137t18.5 140.5q0 128 -71 202t-204 74q-100 0 -208.5 -55.5t-170.5 -148.5l-102 18l242 791h735l-25 -111h-634l-156 -514q169 131 362 131q171 0 264 -101t93 -263q0 -179 -82 -325.5 t-230 -231t-331 -84.5q-143 0 -247.5 71.5t-137.5 204.5z" />
<glyph unicode="6" d="M1237 1376l-84 -100q-71 113 -266 113q-97 0 -185.5 -42t-154 -109t-119 -155.5t-87 -176.5t-52.5 -177q98 88 214 142.5t226 54.5q184 0 282.5 -98.5t98.5 -260.5q0 -129 -52.5 -241t-138.5 -186.5t-196.5 -117t-226.5 -42.5q-387 0 -387 421q0 85 15.5 183t49 204 t80.5 207.5t115 193t147 160.5t182 109.5t215 40.5q188 0 324 -123zM524 90q186 0 319.5 138t133.5 325q0 121 -75.5 191.5t-219.5 70.5q-76 0 -157 -37.5t-138 -87.5t-95.5 -96t-43.5 -68q-17 -83 -17 -135q0 -140 78 -220.5t215 -80.5z" />
<glyph unicode="7" d="M315 0h-145l934 1368h-770l24 111h914l-19 -80z" />
<glyph unicode="8" d="M840 778q260 -131 260 -323q0 -95 -34.5 -174.5t-93.5 -134t-138.5 -93t-168 -56t-182.5 -17.5q-444 0 -444 292q0 75 20.5 139.5t69 129.5t136.5 125t214 112q-215 81 -215 266q0 109 45.5 197t122.5 143.5t176.5 85t210.5 29.5q185 0 288 -71.5t103 -208.5 q0 -155 -97.5 -269t-272.5 -172zM647 721q-98 -37 -163.5 -66t-128 -66t-98.5 -75.5t-57.5 -88.5t-21.5 -110q0 -113 86.5 -169t237.5 -56q86 0 166 21t147 61t107.5 107.5t40.5 152.5q0 89 -76 152t-240 137zM672 831q86 22 155 52.5t126 74t88.5 104t31.5 132.5 q0 96 -74 145.5t-204 49.5q-103 0 -190 -33.5t-144.5 -106t-57.5 -172.5q0 -171 269 -246z" />
<glyph unicode="9" d="M45 102l84 105q50 -59 109 -88t151 -29q100 0 187.5 37t152.5 99t118 147t87 174.5t57 189.5q-98 -90 -214.5 -145t-227.5 -55q-184 0 -283.5 103t-99.5 259q0 169 77 305.5t219 215.5t324 79q106 0 183 -33t120.5 -92.5t64 -133t20.5 -163.5q0 -84 -14.5 -181.5 t-45.5 -203.5t-75 -207.5t-108.5 -193.5t-141 -161t-177 -109.5t-211.5 -40.5q-221 0 -356 122zM1032 940q17 87 17 141q0 146 -76.5 227t-214.5 81q-125 0 -229.5 -63t-165 -171.5t-60.5 -236.5q0 -124 75.5 -197.5t217.5 -73.5q76 0 157 38t139 89t96.5 97.5t43.5 68.5z " />
<glyph unicode=":" horiz-adv-x="569" d="M291 0h-176l41 184h176zM428 623h-176l41 184h176z" />
<glyph unicode=";" horiz-adv-x="569" d="M94 -307h-80l187 307h-86l41 184h176l-41 -184zM428 623h-176l41 184h176z" />
<glyph unicode="&#x3c;" horiz-adv-x="1228" d="M1063 -12l-959 487l27 115l1174 487l-27 -119l-1020 -426l832 -426z" />
<glyph unicode="=" horiz-adv-x="1228" d="M1217 682h-1065l24 111h1065zM1124 272h-1065l25 111h1065z" />
<glyph unicode="&#x3e;" horiz-adv-x="1228" d="M1169 475l-1171 -487l27 118l1019 426l-831 426l27 119l956 -487z" />
<glyph unicode="?" horiz-adv-x="796" d="M406 451h-111l33 147q11 51 51 104.5t90.5 97.5t107 96.5t103 102t77.5 114t31 130.5q0 69 -46 107.5t-121 38.5q-155 0 -277 -193l-90 51q146 252 393 252q119 0 197 -65.5t78 -182.5q0 -70 -24 -132t-64 -109.5t-88.5 -90.5t-99.5 -84.5t-95.5 -82.5t-78.5 -93.5 t-46 -109.5zM332 0h-176l41 184h176z" />
<glyph unicode="@" horiz-adv-x="1638" d="M696 387q72 0 156.5 59.5t151 144t111 178t44.5 159.5q0 62 -37.5 109.5t-89.5 47.5q-66 0 -137.5 -38t-130.5 -99.5t-107 -134t-75 -146t-27 -130.5q0 -69 39 -109.5t102 -40.5zM1397 352h106q-132 -171 -332 -271.5t-399 -100.5q-182 0 -321.5 77.5t-214 211.5 t-74.5 304q0 143 51.5 283.5t143 254.5t208.5 202.5t256.5 137t278.5 48.5q252 0 408.5 -138.5t156.5 -359.5q0 -107 -39.5 -216.5t-105 -198t-144.5 -158.5t-163.5 -108.5t-157.5 -38.5q-50 0 -80.5 27.5t-30.5 80.5q0 11 4 35q-171 -143 -305 -143q-104 0 -162.5 62.5 t-58.5 162.5q0 113 58 237t148 222.5t207.5 162.5t229.5 64q75 0 124 -42t60 -132l84 135h111l-336 -604q-53 -91 -53 -135q0 -39 43 -39q75 0 159 61t149.5 151.5t109 200.5t43.5 203q0 125 -63.5 221t-171 146.5t-239.5 50.5q-152 0 -302 -69.5t-262.5 -182t-182.5 -264 t-70 -305.5q0 -223 147 -370.5t378 -147.5q156 0 319.5 76t284.5 206z" />
<glyph unicode="A" horiz-adv-x="1251" d="M924 594l-74 774h-4l-416 -774h494zM1116 0h-143l-43 483h-559l-258 -483h-144l801 1479h207z" />
<glyph unicode="B" horiz-adv-x="1366" d="M283 111h350q89 0 167 21t143.5 63.5t103.5 115.5t38 168q0 108 -89 171t-273 63h-307zM440 823h322q59 0 114 9.5t111.5 34.5t98 64t68 103t26.5 146q0 107 -85 147.5t-268 40.5h-266zM621 0h-498l328 1479h413q233 0 344 -65t111 -202q0 -312 -293 -432 q195 -95 195 -280q0 -127 -46 -224.5t-128.5 -156.5t-189.5 -89t-236 -30z" />
<glyph unicode="C" horiz-adv-x="1251" d="M1061 451l121 -23q-91 -213 -235.5 -330.5t-364.5 -117.5q-210 0 -321 131t-111 364q0 105 22 219t63 229t107.5 218.5t148.5 183.5t192.5 127t234.5 47q96 0 168.5 -32.5t116.5 -91.5t66.5 -134.5t26.5 -169.5l-131 -27q-11 166 -82 255.5t-202 89.5q-117 0 -218 -61 t-168.5 -158t-116.5 -218.5t-71 -241.5t-22 -229q0 -182 79 -286.5t244 -104.5q86 0 157 28t125.5 81.5t93.5 112.5t77 139z" />
<glyph unicode="D" horiz-adv-x="1366" d="M283 111h286q128 0 238.5 50t188 134.5t133.5 194.5t83 231t27 244q0 196 -98.5 299.5t-292.5 103.5h-287zM541 0h-418l328 1479h417q132 0 231.5 -38t159 -107t88.5 -159t29 -200q0 -145 -35 -285.5t-105.5 -265t-168.5 -219t-234 -150t-292 -55.5z" />
<glyph unicode="E" d="M1006 0h-883l328 1479h843l-24 -111h-709l-121 -545h510l-24 -110h-510l-133 -602h747z" />
<glyph unicode="F" d="M258 0h-135l328 1479h868l-25 -111h-733l-121 -545h535l-25 -110h-534z" />
<glyph unicode="G" horiz-adv-x="1366" d="M1106 0h-117l33 145h-4q-88 -88 -187.5 -126.5t-250.5 -38.5q-201 0 -317 128.5t-116 364.5q0 104 22.5 218t64.5 229t108.5 219t148.5 184.5t191.5 128t230.5 47.5q201 0 307.5 -116.5t106.5 -311.5l-131 -22q-2 73 -19 132.5t-51.5 107.5t-93.5 74t-139 26 q-98 0 -186 -43t-153 -115.5t-118 -165.5t-85.5 -195.5t-50 -202t-17.5 -188.5q0 -85 18.5 -152.5t58.5 -122t112.5 -84.5t172.5 -30q153 0 271 102.5t153 253.5l31 136h-373l25 110h508z" />
<glyph unicode="H" horiz-adv-x="1478" d="M1192 0h-135l157 713h-798l-158 -713h-135l328 1479h135l-146 -656h799l145 656h136z" />
<glyph unicode="I" horiz-adv-x="569" d="M270 0h-135l328 1479h135z" />
<glyph unicode="J" horiz-adv-x="909" d="M537 352l249 1127h136l-258 -1168q-36 -162 -146.5 -246.5t-269.5 -84.5q-128 0 -191 45.5t-100 150.5l123 64q30 -83 70 -116.5t131 -33.5q99 0 162.5 63.5t93.5 198.5z" />
<glyph unicode="K" horiz-adv-x="1251" d="M1157 0h-151l-289 815l-350 -321l-109 -494h-135l328 1479h135l-178 -803l854 803h165l-602 -566z" />
<glyph unicode="L" horiz-adv-x="1024" d="M918 0h-795l328 1479h135l-303 -1368h659z" />
<glyph unicode="M" horiz-adv-x="1705" d="M1419 0h-135l303 1368h-4l-747 -1368h-129l-142 1368h-4l-303 -1368h-135l328 1479h237l129 -1254h4l688 1254h238z" />
<glyph unicode="N" horiz-adv-x="1478" d="M1192 0h-139l-488 1368h-4l-303 -1368h-135l328 1479h227l430 -1233h4l272 1233h136z" />
<glyph unicode="O" horiz-adv-x="1366" d="M596 -20q-216 0 -330 137t-114 372q0 203 62.5 390t168 323t249.5 216.5t300 80.5q216 0 330 -137.5t114 -372.5q0 -203 -63 -390t-168.5 -322.5t-249.5 -216t-299 -80.5zM621 90q120 0 224 58.5t175.5 152.5t123 212.5t75.5 240t24 233.5q0 193 -88 297.5t-248 104.5 q-120 0 -224 -58.5t-175.5 -152.5t-123 -212.5t-75.5 -240t-24 -233.5q0 -194 87.5 -298t248.5 -104z" />
<glyph unicode="P" horiz-adv-x="1251" d="M258 0h-135l328 1479h446q216 0 319 -79t103 -222q0 -236 -159 -379.5t-445 -143.5h-312zM428 766h311q209 0 326 101.5t117 287.5q0 213 -310 213h-311z" />
<glyph unicode="Q" horiz-adv-x="1366" d="M1237 0l-27 -123q-107 0 -189.5 44.5t-115.5 141.5q-142 -83 -309 -83q-216 0 -330 137t-114 372q0 203 62.5 390t168 323t249.5 216.5t300 80.5q216 0 330 -137.5t114 -372.5q0 -247 -101.5 -481.5t-260.5 -366.5q29 -82 77 -111.5t146 -29.5zM711 322l28 133 q170 -30 244 -197q106 113 183 318.5t77 410.5q0 193 -88 297.5t-248 104.5q-120 0 -224 -58.5t-175.5 -152.5t-123 -212.5t-75.5 -240t-24 -233.5q0 -194 87.5 -298t248.5 -104q131 0 249 74q-31 82 -65 115.5t-94 42.5z" />
<glyph unicode="R" horiz-adv-x="1366" d="M432 786h365q168 0 280.5 102t112.5 271q0 100 -66.5 154.5t-197.5 54.5h-365zM1133 0h-148l-194 676h-383l-150 -676h-135l328 1479h499q183 0 281 -80.5t98 -220.5q0 -183 -107 -308t-296 -170z" />
<glyph unicode="S" d="M1178 1145l-125 -35q-13 129 -86 204t-209 75q-91 0 -172 -38t-134 -115.5t-53 -178.5q0 -58 53 -107.5t195 -107.5q231 -94 320.5 -174.5t89.5 -190.5q0 -155 -72.5 -268.5t-196 -171t-282.5 -57.5q-212 0 -317.5 96t-120.5 299l133 39q4 -168 89 -246t261 -78 q95 0 178.5 43t136 124.5t52.5 182.5q0 30 -10.5 57t-24 47t-40.5 41.5t-46 34t-55.5 30t-53.5 24.5t-55 22q-164 68 -229 110q-142 93 -142 226q0 198 145 332.5t375 134.5q176 0 280 -92.5t116 -261.5z" />
<glyph unicode="T" d="M555 0h-135l303 1368h-438l24 111h1012l-25 -111h-438z" />
<glyph unicode="U" horiz-adv-x="1478" d="M1161 471l223 1008h136l-222 -996q-57 -253 -217 -378t-428 -125q-442 0 -442 344q0 74 18 159l222 996h135l-224 -1008q-16 -68 -16 -135q0 -131 82.5 -188.5t249.5 -57.5q203 0 320 87.5t163 293.5z" />
<glyph unicode="V" d="M549 0h-135l-152 1479h144l116 -1286h4l699 1286h143z" />
<glyph unicode="W" horiz-adv-x="1705" d="M1194 0h-135l-19 1217h-4l-559 -1217h-135l-63 1479h137l43 -1233h4l567 1233h135l17 -1233h4l594 1233h137z" />
<glyph unicode="X" d="M1032 0h-160l-245 647l-525 -647h-159l632 774l-278 705h160l223 -590l477 590h160l-582 -705z" />
<glyph unicode="Y" d="M547 0h-135l139 627l-264 852h151l203 -731l551 731h151l-657 -852z" />
<glyph unicode="Z" d="M963 0h-951l25 111l1050 1257h-708l24 111h877l-25 -115l-1050 -1253h782z" />
<glyph unicode="[" horiz-adv-x="681" d="M446 -147h-380l360 1626h381l-16 -74h-259l-327 -1479h258z" />
<glyph unicode="\" horiz-adv-x="569" d="M508 -20h-121l-162 1519h113z" />
<glyph unicode="]" horiz-adv-x="681" d="M387 -147h-381l17 73h258l327 1479h-258l17 74h381z" />
<glyph unicode="^" horiz-adv-x="1228" d="M1167 606h-135l-209 725l-520 -725h-135l637 873h108z" />
<glyph unicode="_" horiz-adv-x="1024" d="M885 -256h-1024l22 102h1024z" />
<glyph unicode="`" horiz-adv-x="454" d="M537 1184h-105l-217 282h158z" />
<glyph unicode="a" horiz-adv-x="1024" d="M786 0h-118l12 129q-120 -80 -211.5 -114.5t-208.5 -34.5q-109 0 -174.5 55t-65.5 153q0 73 24 135t62.5 106.5t99.5 82.5t122 63t145 48.5t152 38.5t158 33q17 3 26 5l16 74q9 40 9 72q0 72 -48.5 106.5t-156.5 34.5q-191 0 -353 -192l-71 49q96 126 206 183.5t242 57.5 q151 0 224 -52.5t73 -166.5q0 -39 -14 -114l-123 -557q-21 -95 -27 -195zM702 254l78 348q-163 -34 -279 -70.5t-184.5 -71.5t-107.5 -77t-51.5 -80.5t-12.5 -89.5q0 -65 42 -100t114 -35q87 0 196 47.5t205 128.5z" />
<glyph unicode="b" d="M193 0h-87l328 1479h123l-123 -553q100 86 182.5 122.5t186.5 36.5q149 0 233 -103.5t84 -274.5q0 -96 -22 -196t-69 -195.5t-112.5 -170t-160.5 -120t-205 -45.5q-231 0 -307 159zM406 797l-117 -525q49 -96 110 -145t166 -49q92 0 174.5 57t137.5 146.5t87.5 199 t32.5 215.5q0 136 -62 213.5t-185 77.5q-83 0 -189 -63.5t-155 -126.5z" />
<glyph unicode="c" horiz-adv-x="1024" d="M836 299l88 -47q-220 -272 -478 -272q-175 0 -266.5 100t-91.5 272q0 101 23.5 203t73 197.5t119 169.5t169.5 118.5t217 44.5q146 0 226.5 -75.5t99.5 -212.5l-119 -31q-24 104 -76.5 162.5t-150.5 58.5q-89 0 -165.5 -38t-129 -100t-90 -143t-55 -166.5t-17.5 -170.5 q0 -137 65 -214t189 -77q107 0 190.5 54t178.5 167z" />
<glyph unicode="d" d="M868 0h-86l11 139q-146 -159 -377 -159q-163 0 -247.5 89t-84.5 259q0 202 75 376.5t206 277.5t286 103q105 0 171 -36.5t128 -122.5l123 553h123zM805 272l117 525q-22 63 -98.5 126.5t-159.5 63.5q-91 0 -174.5 -49.5t-145.5 -134t-98.5 -202.5t-36.5 -249 q0 -127 58 -200.5t175 -73.5q106 0 191.5 50t171.5 144z" />
<glyph unicode="e" horiz-adv-x="1024" d="M834 293l88 -53q-119 -143 -224.5 -201.5t-255.5 -58.5q-171 0 -263.5 88.5t-92.5 265.5q0 158 45.5 298.5t123 239t182.5 156t220 57.5q166 0 253 -94t87 -260q0 -92 -24 -203h-742q-18 -83 -18 -159q0 -134 63.5 -212.5t196.5 -78.5q103 0 178.5 45t182.5 170zM254 627 h618q5 73 5 84q0 131 -57 203.5t-175 72.5q-77 0 -147 -35.5t-118 -91.5t-80.5 -116t-45.5 -117z" />
<glyph unicode="f" horiz-adv-x="569" d="M238 0h-123l215 967h-176l20 98h176l35 152q32 141 107.5 211.5t209.5 70.5q60 0 132 -16l-25 -103q-61 21 -115 21q-74 0 -118.5 -40t-65.5 -130l-37 -166h217l-20 -98h-217z" />
<glyph unicode="g" horiz-adv-x="1024" d="M168 100v4q-115 26 -115 107q0 74 65 136t140 77q-100 77 -100 209t73.5 237t190 160t250.5 55q137 0 233 -73q114 94 244 94l-25 -111q-122 0 -182 -49q37 -63 37 -133q0 -94 -30.5 -173t-80.5 -131.5t-116 -89t-136 -53t-141 -16.5q-76 0 -166 33q-61 -21 -92 -53.5 t-31 -67.5q0 -26 23.5 -41.5t93 -24t195.5 -8.5q399 0 399 -213q0 -71 -30 -131.5t-93 -111.5t-174 -80t-260 -29q-94 0 -166.5 11t-119 29.5t-76.5 45.5t-42 56t-12 63q0 188 244 272zM768 -68q0 146 -354 146q-184 0 -271.5 -62t-87.5 -149q0 -68 72 -107t217 -39 q208 0 316 56.5t108 154.5zM510 449q148 0 246 89.5t98 262.5q0 93 -58.5 139.5t-166.5 46.5q-142 0 -244 -99.5t-102 -246.5q0 -96 62.5 -144t164.5 -48z" />
<glyph unicode="h" d="M889 0h-123l158 715q14 60 14 116q0 79 -40 117.5t-130 38.5q-48 0 -89.5 -11.5t-94 -44t-88 -59t-113.5 -88.5l-174 -784h-123l328 1479h123l-129 -582q117 98 206 143t199 45q254 0 254 -227q0 -53 -16 -131z" />
<glyph unicode="i" horiz-adv-x="454" d="M207 0h-123l235 1065h123zM496 1298h-123l39 181h123z" />
<glyph unicode="j" horiz-adv-x="454" d="M47 -168l272 1233h123l-272 -1235q-25 -111 -91 -159t-175 -48q-66 0 -107 12l21 101q54 -15 84 -15q62 0 97 26.5t48 84.5zM496 1298h-123l39 181h123z" />
<glyph unicode="k" horiz-adv-x="1024" d="M897 0h-137l-211 582l-264 -238l-76 -344h-123l328 1479h123l-218 -979l619 565h141l-434 -397z" />
<glyph unicode="l" horiz-adv-x="454" d="M207 0h-123l328 1479h123z" />
<glyph unicode="m" horiz-adv-x="1705" d="M1454 0h-123l180 809q7 32 7 53q0 125 -152 125q-70 0 -182 -63t-178 -140l-175 -784h-122l180 809q6 27 6 53q0 125 -152 125q-70 0 -182 -63t-178 -140l-174 -784h-123l236 1065h122l-34 -162q113 98 195.5 140t197.5 42q91 0 151.5 -53t63.5 -141q104 95 196 144.5 t199 49.5q227 0 227 -196q0 -51 -10 -92z" />
<glyph unicode="n" d="M889 0h-123l158 715q14 60 14 116q0 79 -40 117.5t-130 38.5q-38 0 -77 -10.5t-67.5 -23t-76.5 -45.5t-74 -53t-90 -71l-174 -784h-123l236 1065h122l-36 -168q107 97 200 142.5t205 45.5q254 0 254 -227q0 -53 -16 -131z" />
<glyph unicode="o" horiz-adv-x="1024" d="M446 78q90 0 165.5 41.5t125.5 108.5t85 153t51 173t16 171q0 262 -240 262q-90 0 -165.5 -41.5t-125 -109t-84 -154t-50 -173.5t-15.5 -171q0 -260 237 -260zM426 -20q-92 0 -159 26t-106 74.5t-57 110.5t-18 139q0 107 21.5 212.5t68 203.5t112.5 173.5t163 120.5 t211 45q180 0 265 -96.5t85 -257.5q0 -106 -22.5 -211.5t-71 -203t-116 -172.5t-165 -119.5t-211.5 -44.5z" />
<glyph unicode="p" d="M145 -377h-122l319 1442h123l-35 -164h4q166 184 361 184q159 0 242 -108t83 -279q0 -94 -22 -192.5t-68.5 -193t-111.5 -168.5t-158 -119t-201 -45q-105 0 -171 36.5t-128 122.5zM406 793l-117 -525q22 -63 98.5 -126.5t159.5 -63.5q87 0 162 39t127 102.5t89 144.5 t54.5 166.5t17.5 167.5q0 129 -56 209t-173 80q-49 0 -93 -13t-92.5 -44.5t-82 -57.5t-94.5 -79z" />
<glyph unicode="q" d="M784 -377h-122l114 514q-100 -85 -182 -121t-186 -36q-149 0 -234.5 102.5t-85.5 271.5q0 96 22 196t68.5 196.5t111.5 171.5t159.5 121t203.5 46q197 0 314 -165l49 137h86zM805 266l115 520q-48 97 -110 149t-167 52q-124 0 -224 -89t-153 -230.5t-53 -300.5 q0 -136 62 -212.5t186 -76.5q84 0 189.5 63t154.5 125z" />
<glyph unicode="r" horiz-adv-x="681" d="M201 0h-123l235 1065h123l-45 -203h4q68 101 163 162t194 61h55l-25 -118h-55q-68 0 -150.5 -47.5t-152 -133.5t-90.5 -184z" />
<glyph unicode="s" horiz-adv-x="909" d="M903 893l-108 -66q-42 80 -97 120t-145 40q-61 0 -117.5 -22t-97.5 -73t-41 -122q0 -27 13.5 -49t31.5 -36.5t53.5 -30t60 -23t70.5 -21.5q37 -11 61 -18.5t58 -21t56 -26.5t46.5 -32.5t38.5 -41.5t23.5 -51.5t9.5 -64.5q0 -86 -36.5 -157.5t-97 -118.5t-137.5 -72.5 t-159 -25.5q-129 0 -228.5 53.5t-148.5 161.5l105 63q49 -103 114.5 -141.5t174.5 -38.5q115 0 200.5 72.5t85.5 173.5q0 65 -48.5 103t-137.5 67q-19 6 -57.5 17.5t-60 18.5t-55.5 20t-53.5 24t-43.5 29t-37 37t-22 45.5t-9 57.5q0 71 23 129t61.5 97t89.5 65.5t105.5 38.5 t111.5 12q132 0 219.5 -49.5t124.5 -142.5z" />
<glyph unicode="t" horiz-adv-x="569" d="M477 100l-22 -102q-14 -2 -41 -7t-48.5 -8t-39.5 -3q-106 0 -152.5 29t-46.5 93q0 31 8 64l178 801h-159l20 98h160l78 348h123l-78 -348h233l-20 -98h-234l-174 -781q-4 -14 -4 -39q0 -69 88 -69q56 0 131 22z" />
<glyph unicode="u" d="M889 0h-123l37 168q-116 -98 -206 -143t-200 -45q-252 0 -252 225q0 50 17 133l160 727h122l-157 -715q-17 -76 -17 -117q0 -78 41 -116.5t131 -38.5q48 0 89.5 11.5t94 44t88 59t113.5 88.5l174 784h123z" />
<glyph unicode="v" horiz-adv-x="909" d="M432 0h-121l-129 1065h131l97 -877h4l489 877h131z" />
<glyph unicode="w" horiz-adv-x="1366" d="M958 0h-120l-50 856h-4l-428 -856h-127l-61 1065h125l45 -856h4l432 856h121l49 -856h4l428 856h127z" />
<glyph unicode="x" horiz-adv-x="909" d="M807 0h-148l-186 449l-387 -449h-147l485 565l-209 500h147l162 -385l330 385h147l-430 -500z" />
<glyph unicode="y" horiz-adv-x="909" d="M317 16l-139 1049h135l103 -866h4l487 866h131l-649 -1141q-94 -165 -181 -233t-226 -68q-70 0 -111 12l20 101q6 -1 49.5 -8t71.5 -7q71 0 149.5 70.5t155.5 224.5z" />
<glyph unicode="z" horiz-adv-x="909" d="M764 0h-795l17 78l813 889h-566l21 98h729l-16 -78l-811 -889h630z" />
<glyph unicode="{" horiz-adv-x="681" d="M401 -168h-127q-68 0 -103.5 38t-35.5 110q0 31 10 83l88 400q11 53 11 76q0 90 -97 90l17 73q66 0 103 41t57 125l88 400q25 110 85 170.5t146 60.5h127l-16 -74h-103q-44 0 -68 -26.5t-42 -108.5l-90 -403q-23 -98 -71 -149.5t-126 -69.5v-4q108 -29 108 -140 q0 -28 -10 -80l-90 -403q-10 -52 -10 -74q0 -36 15.5 -48.5t47.5 -12.5h103z" />
<glyph unicode="|" horiz-adv-x="851" d="M563 -575h-106v2306h106v-2306z" />
<glyph unicode="}" horiz-adv-x="681" d="M170 -168h-127l16 74h103q43 0 67 26.5t43 108.5l90 403q23 98 71 150t126 70v4q-108 25 -108 139q0 28 10 80l90 403q10 52 10 72q0 37 -15.5 50t-47.5 13h-103l17 74h127q67 0 103 -38t36 -109q0 -32 -10 -84l-88 -400q-11 -53 -11 -75q0 -46 23 -68.5t74 -22.5 l-17 -73q-68 0 -105 -41.5t-55 -124.5l-88 -400q-25 -110 -85 -170.5t-146 -60.5z" />
<glyph unicode="~" horiz-adv-x="1228" d="M1112 666l59 -86q-136 -172 -315 -172q-50 0 -114 21t-115 46.5t-110.5 46.5t-100.5 21q-31 0 -61.5 -11.5t-61 -35t-52 -43.5t-53.5 -54l-57 86q132 172 313 172q50 0 115 -21t117 -46.5t111 -46.5t100 -21q31 0 61 11t60.5 35.5t50.5 43.5t53 54z" />
<glyph horiz-adv-x="1024" />
<glyph unicode="&#xa1;" horiz-adv-x="454" d="M141 -414h-176l264 1024h103zM428 881h-176l41 184h176z" />
<glyph unicode="&#xa2;" d="M356 137l457 834q-40 16 -76 16q-110 0 -201.5 -57t-148 -148t-87 -198t-30.5 -213q0 -160 86 -234zM893 299l88 -47q-220 -272 -477 -272q-68 0 -117 14l-131 -240h-111l152 277q-74 45 -112 128t-38 193q0 101 23 203t72 197.5t117 169.5t166 118.5t212 44.5 q73 0 129 -16l119 219h111l-144 -262q102 -75 121 -229l-119 -31q-20 90 -63 147l-451 -823q38 -12 84 -12q107 0 190.5 54t178.5 167z" />
<glyph unicode="&#xa3;" d="M981 367l109 -25q-73 -175 -195.5 -268.5t-288.5 -93.5q-71 0 -128 11.5t-107 38t-79.5 47.5t-80.5 62q-128 -134 -264 -159l28 126q71 28 129 77t96 106t65.5 126.5t42 135t20.5 135.5h-228l23 98h215q6 38 15 141.5t22 159.5q41 187 179.5 300.5t326.5 113.5 q166 0 259.5 -98.5t94.5 -276.5l-125 -28q0 144 -57.5 218.5t-198.5 74.5q-77 0 -138 -22.5t-101.5 -65.5t-69 -96t-45 -125.5t-24.5 -141t-11 -154.5h299l-23 -98h-286q-4 -18 -8.5 -54t-8.5 -54q-24 -102 -57.5 -179t-93.5 -166q191 -143 323 -143q127 0 211 60t160 217z " />
<glyph unicode="&#xa4;" d="M1063 309l-94 -78l-90 113q-158 -113 -340 -113q-181 0 -291 113l-139 -113l-62 78l135 111q-53 82 -53 209q0 117 49.5 228.5t147.5 201.5l-86 110l94 78l90 -112q156 112 340 112q182 0 291 -112l139 112l61 -78l-135 -110q54 -83 54 -209q0 -116 -50 -229t-147 -201z M561 330q122 0 237.5 70t188 186t72.5 241q0 137 -89.5 229.5t-228.5 92.5q-122 0 -237.5 -70.5t-187.5 -186.5t-72 -241q0 -138 88.5 -229.5t228.5 -91.5z" />
<glyph unicode="&#xa5;" d="M547 0h-135l112 504h-360l20 98h361l6 25l-51 176h-271l23 98h221l-170 578h135l203 -731l551 731h135l-434 -578h215l-23 -98h-266l-133 -176l-6 -25h360l-20 -98h-361z" />
<glyph unicode="&#xa6;" horiz-adv-x="851" d="M563 752h-106v804h106v-804zM563 -401h-106v804h106v-804z" />
<glyph unicode="&#xa7;" horiz-adv-x="1024" d="M100 27l99 55q11 -68 59.5 -112t120.5 -44q90 0 153.5 46t63.5 130q0 48 -38.5 114t-94 134.5t-110.5 139t-93.5 146t-38.5 136.5q0 74 44 132t109.5 87t135.5 29l6 4q-84 70 -84 176q0 129 87 214t222 85q106 0 182 -54t101 -147l-94 -51q-22 78 -68.5 120t-128.5 42 q-73 0 -134.5 -47.5t-61.5 -136.5q0 -38 28 -87t70.5 -96t92 -104.5t92 -110t70.5 -114t28 -115.5q0 -58 -17.5 -105t-45 -77t-65.5 -50.5t-74.5 -29.5t-76.5 -12q63 -97 63 -195q0 -75 -26.5 -132.5t-71.5 -92t-100 -51.5t-117 -17q-98 0 -184 54t-103 137zM809 547 q0 54 -54.5 151.5t-131 176.5t-129.5 79t-108.5 -41.5t-55.5 -99.5q0 -60 58 -162.5t132 -182t115 -79.5q64 0 119 46.5t55 111.5z" />
<glyph unicode="&#xa8;" horiz-adv-x="454" d="M319 1204h-135l43 193h135zM639 1204h-135l43 193h135z" />
<glyph unicode="&#xa9;" horiz-adv-x="1638" d="M1679 903q0 -178 -82 -349t-214 -296t-304.5 -201.5t-345.5 -76.5q-134 0 -248.5 45.5t-193.5 124.5t-123.5 189t-44.5 236q0 119 37.5 237t103 219t156 188.5t194.5 148.5t221.5 96t233.5 35q178 0 317.5 -78t216 -213.5t76.5 -304.5zM756 82q151 0 297.5 66.5 t256.5 175.5t178 259.5t68 309.5q0 221 -139.5 362.5t-369.5 141.5q-151 0 -297.5 -66.5t-257 -176t-178.5 -260.5t-68 -310q0 -220 140 -361t370 -141zM1161 584h111q-67 -147 -189.5 -236.5t-265.5 -89.5q-175 0 -271.5 99t-96.5 261q0 163 77.5 302t210 220t287.5 81 q143 0 232.5 -75t89.5 -208q0 -5 -1.5 -17t-1.5 -18h-110q0 93 -60.5 154t-168.5 61q-116 0 -215.5 -65.5t-156.5 -174t-57 -231.5q0 -124 69.5 -205.5t195.5 -81.5q107 0 194 64t127 160z" />
<glyph unicode="&#xaa;" horiz-adv-x="614" d="M664 852h-91l9 78q-68 -48 -125.5 -69t-134.5 -21q-72 0 -116 34t-44 93t27.5 106.5t66 75.5t97.5 51.5t104 34t104.5 23t81.5 18.5l12 51q2 8 2 21q0 34 -26 51.5t-88 17.5q-65 0 -114 -24t-97 -76l-58 41q63 75 132.5 108t164.5 33q96 0 142.5 -31.5t46.5 -99.5 q0 -32 -8 -65l-72 -320q-16 -70 -16 -131zM586 1016l39 172q-17 -5 -72.5 -18t-97 -25.5t-89 -33t-74 -52t-26.5 -70.5q0 -30 23 -48.5t63 -18.5q58 0 125 26.5t109 67.5z" />
<glyph unicode="&#xab;" horiz-adv-x="1024" d="M821 217h-135l-178 320l319 311h136l-326 -311zM516 217h-135l-176 320l317 311h135l-323 -311z" />
<glyph unicode="&#xac;" horiz-adv-x="1228" d="M1124 272h-110l92 410h-954l24 111h1065z" />
<glyph unicode="&#xad;" horiz-adv-x="681" d="M621 477h-510l24 111h510z" />
<glyph unicode="&#xae;" horiz-adv-x="1638" d="M1200 287h-139l-158 401h-174l-88 -401h-123l201 903h346q246 0 246 -176q0 -75 -25.5 -135.5t-68 -98t-87.5 -60t-94 -32.5zM754 791h141q41 0 71.5 2t75 13t72.5 30t49 56.5t21 90.5q0 32 -14 54t-40 32t-52.5 14t-61.5 4h-197zM1679 903q0 -178 -82 -349t-214 -296 t-304.5 -201.5t-345.5 -76.5q-134 0 -248.5 45.5t-193.5 124.5t-123.5 189t-44.5 236q0 119 37.5 237t103 219t156 188.5t194.5 148.5t221.5 96t233.5 35q178 0 317.5 -78t216 -213.5t76.5 -304.5zM756 82q151 0 297.5 66.5t256.5 175.5t178 259.5t68 309.5 q0 221 -139.5 362.5t-369.5 141.5q-151 0 -297.5 -66.5t-257 -176t-178.5 -260.5t-68 -310q0 -220 140 -361t370 -141z" />
<glyph unicode="&#xaf;" horiz-adv-x="454" d="M729 1264h-606l20 90h607z" />
<glyph unicode="&#xb0;" horiz-adv-x="819" d="M547 987q102 0 180 79t78 187q0 70 -44.5 115t-119.5 45q-102 0 -180 -79t-78 -187q0 -71 44.5 -115.5t119.5 -44.5zM901 1266q0 -95 -54 -180t-140.5 -135t-178.5 -50q-108 0 -174.5 66t-66.5 168q0 144 114.5 254t257.5 110q108 0 175 -66t67 -167z" />
<glyph unicode="&#xb1;" horiz-adv-x="1228" d="M1192 575h-477l-84 -378h-111l84 378h-477l25 111h477l84 379h110l-84 -379h478zM1065 0h-1065l25 111h1065z" />
<glyph unicode="&#xb2;" horiz-adv-x="681" d="M694 598h-610l14 68q8 41 30 74t91.5 88t196.5 130q139 81 208.5 136.5t91 96t21.5 95.5q0 57 -35.5 90t-99.5 33q-188 0 -270 -178l-90 14q50 120 148.5 187t225.5 67q107 0 167.5 -50.5t60.5 -141.5q0 -46 -10 -86t-32.5 -73.5t-45.5 -59t-61.5 -53.5t-66.5 -45.5 t-76 -46.5t-75 -46q-23 -15 -53.5 -34.5t-48 -30.5t-40.5 -26t-35.5 -24t-28 -20.5t-24.5 -19.5t-17.5 -18t-13 -18.5t-7.5 -17.5h504z" />
<glyph unicode="&#xb3;" horiz-adv-x="681" d="M438 1024h-88l21 90h71q125 0 203 45t78 141q0 51 -40 80t-105 29q-83 0 -133.5 -20t-112.5 -82l-62 47q73 79 148.5 112t169.5 33q103 0 174.5 -45t71.5 -129q0 -183 -187 -252q125 -48 125 -162q0 -83 -33.5 -147.5t-91 -102t-126.5 -56.5t-146 -19q-239 0 -285 176 l96 49q24 -77 71 -106t142 -29q118 0 190.5 58.5t72.5 154.5q0 135 -224 135z" />
<glyph unicode="&#xb4;" horiz-adv-x="454" d="M727 1466l-344 -282h-104l290 282h158z" />
<glyph unicode="&#xb5;" d="M889 0h-123l37 168q-116 -98 -206 -143t-200 -45q-121 0 -182 49l-90 -406h-123l320 1442h122l-157 -715q-17 -76 -17 -117q0 -78 41 -116.5t131 -38.5q48 0 89.5 11.5t94 44t88 59t113.5 88.5l174 784h123z" />
<glyph unicode="&#xb6;" horiz-adv-x="1024" d="M758 -164h-103l344 1553h-215l-344 -1553h-102l188 852q-154 0 -249 88t-95 221q0 139 77.5 251t203 171.5t272.5 59.5h539l-21 -90h-151z" />
<glyph unicode="&#xb7;" horiz-adv-x="569" d="M426 553q0 -49 -41 -86t-86 -37q-36 0 -60 22.5t-24 57.5q0 49 41.5 87t87.5 38q35 0 58.5 -23.5t23.5 -58.5z" />
<glyph unicode="&#xb8;" horiz-adv-x="454" d="M-168 -385l45 74q64 -33 115 -33q155 0 155 102q0 32 -21.5 49t-53.5 17q-48 0 -95 -19l-24 27l160 168h77l-110 -102l2 -4q28 12 68 12q60 0 93 -32t33 -89q0 -51 -24 -93t-62.5 -66.5t-82.5 -38t-87 -13.5q-118 0 -188 41z" />
<glyph unicode="&#xb9;" horiz-adv-x="681" d="M614 598h-413l18 90h150l157 709l-176 -41l17 76l204 67h84l-180 -811h158z" />
<glyph unicode="&#xba;" horiz-adv-x="614" d="M432 934q106 0 171 90t65 250q0 67 -28.5 99t-96.5 32q-62 0 -110.5 -32t-76.5 -83.5t-42.5 -111t-14.5 -119.5q0 -63 31.5 -94t101.5 -31zM420 840q-120 0 -178 59.5t-58 157.5q0 81 22 157t65 141t116 104.5t166 39.5q119 0 174 -59.5t55 -159.5q0 -78 -23 -154.5 t-66 -141t-114 -104.5t-159 -40z" />
<glyph unicode="&#xbb;" horiz-adv-x="1024" d="M588 528l-320 -311h-135l326 311l-185 320h136zM891 528l-318 -311h-135l324 311l-182 320h135z" />
<glyph unicode="&#xbc;" horiz-adv-x="1708" d="M1364 303l102 463h-8l-411 -463h317zM1403 0h-107l47 213h-432l23 98l528 578h137l-129 -586h146l-21 -90h-145zM664 598h-414l18 90h150l157 709l-176 -41l17 76l205 67h84l-181 -811h158zM406 -20h-121l1245 1519h117z" />
<glyph unicode="&#xbd;" horiz-adv-x="1708" d="M664 598h-414l18 90h150l157 709l-176 -41l17 76l205 67h84l-181 -811h158zM1536 0h-610l14 68q8 41 29.5 74t91.5 88t196 130q105 62 168 105.5t97.5 81.5t45.5 68t11 71q0 58 -35.5 91.5t-99.5 33.5q-188 0 -268 -178l-93 14q49 120 149 187t228 67q106 0 167 -51 t61 -143q0 -46 -10 -85.5t-33 -73t-45.5 -59t-62 -53.5t-67 -45.5t-76.5 -46.5t-75 -45q-148 -94 -202 -134.5t-64 -74.5h503zM381 -20h-121l1245 1519h117z" />
<glyph unicode="&#xbe;" horiz-adv-x="1708" d="M1364 303l102 463h-8l-411 -463h317zM1403 0h-107l47 213h-432l23 98l528 578h137l-129 -586h146l-21 -90h-145zM496 1024h-88l20 90h72q125 0 202.5 45t77.5 141q0 51 -40 80t-105 29q-83 0 -133.5 -20t-112.5 -82l-61 47q73 79 148 112t169 33q103 0 174.5 -45 t71.5 -129q0 -183 -186 -252q124 -48 124 -162q0 -83 -33.5 -147.5t-91 -102t-126.5 -56.5t-146 -19q-239 0 -285 176l97 49q24 -77 71 -106t142 -29q117 0 189.5 58.5t72.5 154.5q0 135 -223 135zM438 -20h-121l1246 1519h116z" />
<glyph unicode="&#xbf;" horiz-adv-x="796" d="M524 -131l90 -51q-146 -252 -393 -252q-119 0 -196.5 65t-77.5 183q0 70 24 131.5t63.5 108.5t87.5 90.5t99 85.5t95 83.5t78.5 94t47.5 108.5l23 98h110l-32 -147q-11 -52 -43 -102t-73.5 -90t-89.5 -81t-93 -81.5t-82 -83.5t-59.5 -95.5t-22.5 -109.5q0 -70 46 -109 t122 -39q159 0 276 193zM645 881h-176l41 184h176z" />
<glyph unicode="&#xc0;" horiz-adv-x="1251" d="M924 594l-74 774h-4l-416 -774h494zM1116 0h-143l-43 483h-559l-258 -483h-144l801 1479h207zM1010 1563h-105l-217 282h158z" />
<glyph unicode="&#xc1;" horiz-adv-x="1251" d="M924 594l-74 774h-4l-416 -774h494zM1116 0h-143l-43 483h-559l-258 -483h-144l801 1479h207zM1200 1845l-344 -282h-104l290 282h158z" />
<glyph unicode="&#xc2;" horiz-adv-x="1251" d="M924 594l-74 774h-4l-416 -774h494zM1116 0h-143l-43 483h-559l-258 -483h-144l801 1479h207zM1184 1563h-135l-123 206l-213 -206h-135l296 282h140z" />
<glyph unicode="&#xc3;" horiz-adv-x="1251" d="M924 594l-74 774h-4l-416 -774h494zM1116 0h-143l-43 483h-559l-258 -483h-144l801 1479h207zM1176 1774h77q-36 -91 -89 -145t-138 -54q-44 0 -136 46t-130 46q-41 0 -71.5 -29.5t-47.5 -72.5h-78q25 77 88.5 137.5t136.5 60.5q52 0 142.5 -45t130.5 -45q38 0 69 30 t46 71z" />
<glyph unicode="&#xc4;" horiz-adv-x="1251" d="M924 594l-74 774h-4l-416 -774h494zM1116 0h-143l-43 483h-559l-258 -483h-144l801 1479h207zM793 1563h-136l43 192h136zM1112 1563h-135l43 192h135z" />
<glyph unicode="&#xc5;" horiz-adv-x="1251" d="M924 594l-74 774h-4l-416 -774h494zM1116 0h-143l-43 483h-559l-258 -483h-144l801 1479h207zM1133 1784q0 -99 -79 -174.5t-175 -75.5q-72 0 -118 45.5t-46 116.5q0 98 79.5 173t174.5 75q72 0 118 -45.5t46 -114.5zM1061 1767q0 46 -30 76.5t-77 30.5 q-63 0 -116.5 -49.5t-53.5 -114.5q0 -46 32 -76t79 -30q63 0 114.5 49t51.5 114z" />
<glyph unicode="&#xc6;" horiz-adv-x="1933" d="M1030 594l172 770h-35l-606 -770h469zM1769 0h-870l107 483h-535l-365 -483h-151l1151 1479h952l-24 -111h-697l-120 -545h497l-24 -110h-498l-133 -602h735z" />
<glyph unicode="&#xc7;" horiz-adv-x="1251" d="M246 -385l45 74q64 -33 115 -33q155 0 155 102q0 32 -22 49t-54 17q-47 0 -94 -19l-24 27l143 152q-175 23 -269 158.5t-94 349.5q0 89 14.5 185t45.5 194t75 189.5t107.5 171.5t138 139t171 93.5t202.5 34.5q96 0 171 -32.5t122 -91t72.5 -135t29.5 -169.5l-131 -27 q-11 166 -82 255.5t-202 89.5q-117 0 -218 -61t-168.5 -158t-116.5 -218.5t-71 -241.5t-22 -229q0 -182 79 -286.5t244 -104.5q86 0 157 28t125.5 81.5t93.5 112.5t77 139l121 -23q-91 -213 -235.5 -330.5t-364.5 -117.5l-88 -82l2 -4q28 12 67 12q60 0 93.5 -32t33.5 -89 q0 -51 -24 -93t-62.5 -66.5t-82.5 -38t-87 -13.5q-118 0 -188 41z" />
<glyph unicode="&#xc8;" d="M1006 0h-883l328 1479h843l-24 -111h-709l-121 -545h510l-24 -110h-510l-133 -602h747zM1020 1563h-105l-217 282h158z" />
<glyph unicode="&#xc9;" d="M1006 0h-883l328 1479h843l-24 -111h-709l-121 -545h510l-24 -110h-510l-133 -602h747zM1210 1845l-344 -282h-104l291 282h157z" />
<glyph unicode="&#xca;" d="M1006 0h-883l328 1479h843l-24 -111h-709l-121 -545h510l-24 -110h-510l-133 -602h747zM1194 1563h-135l-123 206l-213 -206h-135l297 282h139z" />
<glyph unicode="&#xcb;" d="M1006 0h-883l328 1479h843l-24 -111h-709l-121 -545h510l-24 -110h-510l-133 -602h747zM803 1563h-135l43 192h135zM1122 1563h-135l43 192h135z" />
<glyph unicode="&#xcc;" horiz-adv-x="569" d="M270 0h-135l328 1479h135zM659 1563h-104l-217 282h158z" />
<glyph unicode="&#xcd;" horiz-adv-x="569" d="M270 0h-135l328 1479h135zM850 1845l-344 -282h-105l291 282h158z" />
<glyph unicode="&#xce;" horiz-adv-x="569" d="M270 0h-135l328 1479h135zM834 1563h-136l-123 206l-213 -206h-135l297 282h140z" />
<glyph unicode="&#xcf;" horiz-adv-x="569" d="M270 0h-135l328 1479h135zM442 1563h-135l43 192h135zM762 1563h-135l43 192h135z" />
<glyph unicode="&#xd0;" horiz-adv-x="1366" d="M283 111h276q128 0 239.5 50t190.5 134.5t136.5 194.5t85.5 231.5t28 243.5q0 196 -98.5 299.5t-292.5 103.5h-287l-121 -545h402l-25 -110h-401zM537 0h-414l158 713h-185l25 110h184l146 656h417q132 0 231.5 -38t159 -107t88.5 -159t29 -200q0 -145 -35.5 -285.5 t-106.5 -265t-170 -219t-235 -150t-292 -55.5z" />
<glyph unicode="&#xd1;" horiz-adv-x="1478" d="M1192 0h-139l-488 1368h-4l-303 -1368h-135l328 1479h227l430 -1233h4l272 1233h136zM1294 1774h78q-36 -91 -89 -145t-138 -54q-44 0 -136 46t-130 46q-41 0 -71.5 -29.5t-47.5 -72.5h-78q25 77 88.5 137.5t136.5 60.5q52 0 142.5 -45t130.5 -45q38 0 68.5 30t45.5 71z " />
<glyph unicode="&#xd2;" horiz-adv-x="1366" d="M1073 1563h-104l-217 282h157zM596 -20q-216 0 -330 137t-114 372q0 203 62.5 390t168 323t249.5 216.5t300 80.5q216 0 330 -137.5t114 -372.5q0 -203 -63 -390t-168.5 -322.5t-249.5 -216t-299 -80.5zM621 90q120 0 224 58.5t175.5 152.5t123 212.5t75.5 240t24 233.5 q0 193 -88 297.5t-248 104.5q-120 0 -224 -58.5t-175.5 -152.5t-123 -212.5t-75.5 -240t-24 -233.5q0 -194 87.5 -298t248.5 -104z" />
<glyph unicode="&#xd3;" horiz-adv-x="1366" d="M1264 1845l-344 -282h-105l291 282h158zM596 -20q-216 0 -330 137t-114 372q0 203 62.5 390t168 323t249.5 216.5t300 80.5q216 0 330 -137.5t114 -372.5q0 -203 -63 -390t-168.5 -322.5t-249.5 -216t-299 -80.5zM621 90q120 0 224 58.5t175.5 152.5t123 212.5t75.5 240 t24 233.5q0 193 -88 297.5t-248 104.5q-120 0 -224 -58.5t-175.5 -152.5t-123 -212.5t-75.5 -240t-24 -233.5q0 -194 87.5 -298t248.5 -104z" />
<glyph unicode="&#xd4;" horiz-adv-x="1366" d="M1247 1563h-135l-123 206l-213 -206h-135l297 282h139zM596 -20q-216 0 -330 137t-114 372q0 203 62.5 390t168 323t249.5 216.5t300 80.5q216 0 330 -137.5t114 -372.5q0 -203 -63 -390t-168.5 -322.5t-249.5 -216t-299 -80.5zM621 90q120 0 224 58.5t175.5 152.5 t123 212.5t75.5 240t24 233.5q0 193 -88 297.5t-248 104.5q-120 0 -224 -58.5t-175.5 -152.5t-123 -212.5t-75.5 -240t-24 -233.5q0 -194 87.5 -298t248.5 -104z" />
<glyph unicode="&#xd5;" horiz-adv-x="1366" d="M1239 1774h78q-36 -91 -89 -145t-138 -54q-44 0 -136.5 46t-130.5 46q-41 0 -71 -29t-47 -73h-78q25 77 88.5 137.5t136.5 60.5q52 0 142 -45t130 -45q38 0 69 30t46 71zM596 -20q-216 0 -330 137t-114 372q0 203 62.5 390t168 323t249.5 216.5t300 80.5 q216 0 330 -137.5t114 -372.5q0 -203 -63 -390t-168.5 -322.5t-249.5 -216t-299 -80.5zM621 90q120 0 224 58.5t175.5 152.5t123 212.5t75.5 240t24 233.5q0 193 -88 297.5t-248 104.5q-120 0 -224 -58.5t-175.5 -152.5t-123 -212.5t-75.5 -240t-24 -233.5q0 -194 87.5 -298 t248.5 -104z" />
<glyph unicode="&#xd6;" horiz-adv-x="1366" d="M856 1563h-135l43 192h135zM1176 1563h-136l43 192h136zM596 -20q-216 0 -330 137t-114 372q0 203 62.5 390t168 323t249.5 216.5t300 80.5q216 0 330 -137.5t114 -372.5q0 -203 -63 -390t-168.5 -322.5t-249.5 -216t-299 -80.5zM621 90q120 0 224 58.5t175.5 152.5 t123 212.5t75.5 240t24 233.5q0 193 -88 297.5t-248 104.5q-120 0 -224 -58.5t-175.5 -152.5t-123 -212.5t-75.5 -240t-24 -233.5q0 -194 87.5 -298t248.5 -104z" />
<glyph unicode="&#xd7;" horiz-adv-x="1228" d="M1081 78l-94 -78l-354 455l-555 -455l-62 78l557 454l-354 455l94 78l355 -455l555 455l61 -78l-555 -455z" />
<glyph unicode="&#xd8;" horiz-adv-x="1366" d="M1210 1182l-841 -979q82 -113 252 -113q120 0 224.5 58.5t175.5 153t122.5 213.5t75.5 240t24 234q0 117 -33 193zM317 295l844 979q-84 115 -254 115q-100 0 -190 -41t-156.5 -111t-120 -160t-87 -190.5t-51 -200.5t-17.5 -192q0 -111 32 -199zM109 -98h-129l241 280 q-69 120 -69 307q0 203 63 390.5t168.5 323t249.5 216t299 80.5q200 0 317 -123l172 201h129l-243 -281q71 -124 71 -305q0 -203 -63.5 -390.5t-169 -323t-250 -216.5t-299.5 -81q-198 0 -315 120z" />
<glyph unicode="&#xd9;" horiz-adv-x="1478" d="M1161 471l223 1008h136l-222 -996q-57 -253 -217 -378t-428 -125q-442 0 -442 344q0 74 18 159l222 996h135l-224 -1008q-16 -68 -16 -135q0 -131 82.5 -188.5t249.5 -57.5q203 0 320 87.5t163 293.5zM1118 1563h-104l-217 282h157z" />
<glyph unicode="&#xda;" horiz-adv-x="1478" d="M1161 471l223 1008h136l-222 -996q-57 -253 -217 -378t-428 -125q-442 0 -442 344q0 74 18 159l222 996h135l-224 -1008q-16 -68 -16 -135q0 -131 82.5 -188.5t249.5 -57.5q203 0 320 87.5t163 293.5zM1309 1845l-344 -282h-105l291 282h158z" />
<glyph unicode="&#xdb;" horiz-adv-x="1478" d="M1292 1563h-135l-123 206l-213 -206h-135l297 282h139zM1161 471l223 1008h136l-222 -996q-57 -253 -217 -378t-428 -125q-442 0 -442 344q0 74 18 159l222 996h135l-224 -1008q-16 -68 -16 -135q0 -131 82.5 -188.5t249.5 -57.5q203 0 320 87.5t163 293.5z" />
<glyph unicode="&#xdc;" horiz-adv-x="1478" d="M1161 471l223 1008h136l-222 -996q-57 -253 -217 -378t-428 -125q-442 0 -442 344q0 74 18 159l222 996h135l-224 -1008q-16 -68 -16 -135q0 -131 82.5 -188.5t249.5 -57.5q203 0 320 87.5t163 293.5zM901 1563h-135l43 192h135zM1221 1563h-136l43 192h136z" />
<glyph unicode="&#xdd;" d="M547 0h-135l139 627l-264 852h151l203 -731l551 731h151l-657 -852zM1149 1845l-344 -282h-105l291 282h158z" />
<glyph unicode="&#xde;" horiz-adv-x="1251" d="M647 348h-311l-78 -348h-135l328 1479h135l-68 -308h311q215 0 317.5 -78t102.5 -221q0 -237 -158 -380.5t-444 -143.5zM360 459h312q210 0 325 101.5t115 287.5q0 213 -307 213h-311z" />
<glyph unicode="&#xdf;" horiz-adv-x="1024" d="M346 27l64 92q66 -41 141 -41q121 0 214 123t93 311q0 118 -78 171.5t-233 53.5l20 99q72 2 133.5 23t112.5 63t80 113.5t29 166.5q0 86 -50.5 132t-150.5 46q-62 0 -111.5 -24t-82.5 -66t-53.5 -89t-33.5 -103l-243 -1098h-123l241 1092q39 179 154.5 283t292.5 104 q131 0 206.5 -76.5t75.5 -198.5q0 -129 -72.5 -236t-195.5 -161q102 -35 154.5 -109.5t52.5 -179.5q0 -75 -16.5 -150t-51.5 -145t-84.5 -124t-120.5 -86.5t-153 -32.5q-48 0 -114.5 13.5t-96.5 33.5z" />
<glyph unicode="&#xe0;" horiz-adv-x="1024" d="M786 0h-118l12 129q-120 -80 -211.5 -114.5t-208.5 -34.5q-109 0 -174.5 55t-65.5 153q0 73 24 135t62.5 106.5t99.5 82.5t122 63t145 48.5t152 38.5t158 33q17 3 26 5l16 74q9 40 9 72q0 72 -48.5 106.5t-156.5 34.5q-191 0 -353 -192l-71 49q96 126 206 183.5t242 57.5 q151 0 224 -52.5t73 -166.5q0 -39 -14 -114l-123 -557q-21 -95 -27 -195zM702 254l78 348q-163 -34 -279 -70.5t-184.5 -71.5t-107.5 -77t-51.5 -80.5t-12.5 -89.5q0 -65 42 -100t114 -35q87 0 196 47.5t205 128.5zM821 1184h-104l-217 282h157z" />
<glyph unicode="&#xe1;" horiz-adv-x="1024" d="M786 0h-118l12 129q-120 -80 -211.5 -114.5t-208.5 -34.5q-109 0 -174.5 55t-65.5 153q0 73 24 135t62.5 106.5t99.5 82.5t122 63t145 48.5t152 38.5t158 33q17 3 26 5l16 74q9 40 9 72q0 72 -48.5 106.5t-156.5 34.5q-191 0 -353 -192l-71 49q96 126 206 183.5t242 57.5 q151 0 224 -52.5t73 -166.5q0 -39 -14 -114l-123 -557q-21 -95 -27 -195zM702 254l78 348q-163 -34 -279 -70.5t-184.5 -71.5t-107.5 -77t-51.5 -80.5t-12.5 -89.5q0 -65 42 -100t114 -35q87 0 196 47.5t205 128.5zM1012 1466l-344 -282h-105l291 282h158z" />
<glyph unicode="&#xe2;" horiz-adv-x="1024" d="M995 1184h-135l-121 207l-215 -207h-135l297 282h139zM786 0h-118l12 129q-120 -80 -211.5 -114.5t-208.5 -34.5q-109 0 -174.5 55t-65.5 153q0 73 24 135t62.5 106.5t99.5 82.5t122 63t145 48.5t152 38.5t158 33q17 3 26 5l16 74q9 40 9 72q0 72 -48.5 106.5 t-156.5 34.5q-191 0 -353 -192l-71 49q96 126 206 183.5t242 57.5q151 0 224 -52.5t73 -166.5q0 -39 -14 -114l-123 -557q-21 -95 -27 -195zM702 254l78 348q-163 -34 -279 -70.5t-184.5 -71.5t-107.5 -77t-51.5 -80.5t-12.5 -89.5q0 -65 42 -100t114 -35q87 0 196 47.5 t205 128.5z" />
<glyph unicode="&#xe3;" horiz-adv-x="1024" d="M987 1415h78q-36 -91 -88.5 -144.5t-136.5 -53.5q-44 0 -136.5 46t-130.5 46q-41 0 -72 -30t-46 -73h-78q24 77 87 138t136 61q53 0 142.5 -45t129.5 -45q38 0 69 29.5t46 70.5zM786 0h-118l12 129q-120 -80 -211.5 -114.5t-208.5 -34.5q-109 0 -174.5 55t-65.5 153 q0 73 24 135t62.5 106.5t99.5 82.5t122 63t145 48.5t152 38.5t158 33q17 3 26 5l16 74q9 40 9 72q0 72 -48.5 106.5t-156.5 34.5q-191 0 -353 -192l-71 49q96 126 206 183.5t242 57.5q151 0 224 -52.5t73 -166.5q0 -39 -14 -114l-123 -557q-21 -95 -27 -195zM702 254l78 348 q-163 -34 -279 -70.5t-184.5 -71.5t-107.5 -77t-51.5 -80.5t-12.5 -89.5q0 -65 42 -100t114 -35q87 0 196 47.5t205 128.5z" />
<glyph unicode="&#xe4;" horiz-adv-x="1024" d="M604 1204h-135l43 193h135zM924 1204h-136l43 193h136zM786 0h-118l12 129q-120 -80 -211.5 -114.5t-208.5 -34.5q-109 0 -174.5 55t-65.5 153q0 73 24 135t62.5 106.5t99.5 82.5t122 63t145 48.5t152 38.5t158 33q17 3 26 5l16 74q9 40 9 72q0 72 -48.5 106.5 t-156.5 34.5q-191 0 -353 -192l-71 49q96 126 206 183.5t242 57.5q151 0 224 -52.5t73 -166.5q0 -39 -14 -114l-123 -557q-21 -95 -27 -195zM702 254l78 348q-163 -34 -279 -70.5t-184.5 -71.5t-107.5 -77t-51.5 -80.5t-12.5 -89.5q0 -65 42 -100t114 -35q87 0 196 47.5 t205 128.5z" />
<glyph unicode="&#xe5;" horiz-adv-x="1024" d="M946 1425q0 -99 -80 -174t-176 -75q-72 0 -118 45t-46 116q0 97 80.5 172.5t175.5 75.5q71 0 117.5 -45.5t46.5 -114.5zM874 1411q0 46 -30.5 75.5t-77.5 29.5q-62 0 -116 -50t-54 -114q0 -46 32 -76.5t79 -30.5q63 0 115 50t52 116zM786 0h-118l12 129 q-120 -80 -211.5 -114.5t-208.5 -34.5q-109 0 -174.5 55t-65.5 153q0 73 24 135t62.5 106.5t99.5 82.5t122 63t145 48.5t152 38.5t158 33q17 3 26 5l16 74q9 40 9 72q0 72 -48.5 106.5t-156.5 34.5q-191 0 -353 -192l-71 49q96 126 206 183.5t242 57.5q151 0 224 -52.5 t73 -166.5q0 -39 -14 -114l-123 -557q-21 -95 -27 -195zM702 254l78 348q-163 -34 -279 -70.5t-184.5 -71.5t-107.5 -77t-51.5 -80.5t-12.5 -89.5q0 -65 42 -100t114 -35q87 0 196 47.5t205 128.5z" />
<glyph unicode="&#xe6;" horiz-adv-x="1593" d="M666 254l77 348q-151 -34 -259 -70.5t-173.5 -71.5t-103 -77t-50 -80.5t-12.5 -89.5q0 -65 42 -100t114 -35q90 0 194 48.5t171 127.5zM1403 293l88 -53q-119 -144 -224 -202t-255 -58q-105 0 -181 47t-120 133q-102 -99 -212.5 -139.5t-238.5 -40.5q-109 0 -174.5 55 t-65.5 153q0 222 221 345q128 72 403 138l90 21l1 1h1h1h1l1 1h1h1h1l1 1h1h1h1l1 1h1h1h1h1l1 1h1h1h1l1 1h1h1h1l1 1h1h1h1l1 1h1h1l16 74q6 27 6 57q0 69 -44.5 112.5t-139.5 43.5q-109 0 -186.5 -49t-136.5 -147l-80 53q82 127 182.5 184t232.5 57q242 0 287 -174 q157 174 361 174q157 0 232 -87t75 -246q0 -92 -29 -224h-692q-23 -112 -23 -188q0 -262 215 -262q103 0 178.5 45t182.5 170zM872 627h570q6 52 6 98q0 262 -209 262q-132 0 -227.5 -100.5t-139.5 -259.5z" />
<glyph unicode="&#xe7;" horiz-adv-x="1024" d="M836 299l88 -47q-217 -269 -471 -272l-88 -82l2 -4q28 12 67 12q60 0 93.5 -32t33.5 -89q0 -51 -24 -93t-62.5 -66.5t-82.5 -38t-87 -13.5q-118 0 -188 41l45 74q73 -33 114 -33q156 0 156 102q0 32 -22 49t-54 17q-46 0 -94 -19l-24 27l143 152q-144 18 -218.5 115.5 t-74.5 252.5q0 101 23.5 203t73.5 197.5t118.5 169.5t167 118.5t211.5 44.5q147 0 231 -76t103 -212l-119 -31q-25 105 -75 163t-148 58q-89 0 -166 -38t-130 -100t-91 -143t-56 -166.5t-18 -170.5q0 -137 65 -214t189 -77q107 0 190.5 54t178.5 167z" />
<glyph unicode="&#xe8;" horiz-adv-x="1024" d="M834 293l88 -53q-119 -143 -224.5 -201.5t-255.5 -58.5q-170 0 -263 92t-93 270q0 158 46.5 297t124.5 236.5t184 153.5t221 56q165 0 250 -93.5t85 -260.5q0 -92 -24 -203h-742q-18 -83 -18 -159q0 -134 63.5 -212.5t196.5 -78.5q103 0 178.5 45t182.5 170zM254 627h618 q5 73 5 84q0 131 -57 203.5t-175 72.5q-77 0 -147 -35.5t-118 -91.5t-80.5 -116t-45.5 -117zM821 1184h-104l-217 282h157z" />
<glyph unicode="&#xe9;" horiz-adv-x="1024" d="M1012 1466l-344 -282h-105l291 282h158zM834 293l88 -53q-119 -143 -224.5 -201.5t-255.5 -58.5q-170 0 -263 92t-93 270q0 158 46.5 297t124.5 236.5t184 153.5t221 56q165 0 250 -93.5t85 -260.5q0 -92 -24 -203h-742q-18 -83 -18 -159q0 -134 63.5 -212.5t196.5 -78.5 q103 0 178.5 45t182.5 170zM254 627h618q5 73 5 84q0 131 -57 203.5t-175 72.5q-77 0 -147 -35.5t-118 -91.5t-80.5 -116t-45.5 -117z" />
<glyph unicode="&#xea;" horiz-adv-x="1024" d="M995 1184h-135l-121 207l-215 -207h-135l297 282h139zM834 293l88 -53q-119 -143 -224.5 -201.5t-255.5 -58.5q-170 0 -263 92t-93 270q0 158 46.5 297t124.5 236.5t184 153.5t221 56q165 0 250 -93.5t85 -260.5q0 -92 -24 -203h-742q-18 -83 -18 -159 q0 -134 63.5 -212.5t196.5 -78.5q103 0 178.5 45t182.5 170zM254 627h618q5 73 5 84q0 131 -57 203.5t-175 72.5q-77 0 -147 -35.5t-118 -91.5t-80.5 -116t-45.5 -117z" />
<glyph unicode="&#xeb;" horiz-adv-x="1024" d="M604 1204h-135l43 193h135zM924 1204h-136l43 193h136zM834 293l88 -53q-119 -143 -224.5 -201.5t-255.5 -58.5q-170 0 -263 92t-93 270q0 158 46.5 297t124.5 236.5t184 153.5t221 56q165 0 250 -93.5t85 -260.5q0 -92 -24 -203h-742q-18 -83 -18 -159 q0 -134 63.5 -212.5t196.5 -78.5q103 0 178.5 45t182.5 170zM254 627h618q5 73 5 84q0 131 -57 203.5t-175 72.5q-77 0 -147 -35.5t-118 -91.5t-80.5 -116t-45.5 -117z" />
<glyph unicode="&#xec;" horiz-adv-x="454" d="M207 0h-123l235 1065h123zM537 1184h-105l-217 282h158z" />
<glyph unicode="&#xed;" horiz-adv-x="454" d="M207 0h-123l235 1065h123zM727 1466l-344 -282h-104l290 282h158z" />
<glyph unicode="&#xee;" horiz-adv-x="454" d="M207 0h-123l235 1065h123zM711 1184h-136l-120 207l-215 -207h-136l297 282h140z" />
<glyph unicode="&#xef;" horiz-adv-x="454" d="M207 0h-123l235 1065h123zM319 1204h-135l43 193h135zM639 1204h-135l43 193h135z" />
<glyph unicode="&#xf0;" horiz-adv-x="1024" d="M446 78q314 0 418 454q25 112 25 193q0 262 -240 262q-90 0 -165.5 -41.5t-125 -109t-84 -154t-50 -173.5t-15.5 -171q0 -260 237 -260zM864 1040l4 4q-29 103 -94 199l-233 -108l-39 82l213 100q-54 60 -125 108l121 54q75 -59 118 -109l234 109l39 -82l-213 -101 q135 -191 135 -456q0 -97 -14 -193.5t-42 -194.5t-76.5 -182t-112.5 -149.5t-155 -103t-198 -37.5q-92 0 -159 26t-106 74.5t-57 110.5t-18 139q0 107 22.5 212.5t70 203.5t115 173.5t165 120.5t211.5 45q121 0 194 -45z" />
<glyph unicode="&#xf1;" d="M889 0h-123l158 715q14 60 14 116q0 79 -40 117.5t-130 38.5q-38 0 -77 -10.5t-67.5 -23t-76.5 -45.5t-74 -53t-90 -71l-174 -784h-123l236 1065h122l-36 -168q107 97 200 142.5t205 45.5q254 0 254 -227q0 -53 -16 -131zM1030 1415h78q-36 -91 -88.5 -144.5 t-136.5 -53.5q-44 0 -136.5 46t-130.5 46q-41 0 -72 -30t-46 -73h-78q24 77 87 138t136 61q53 0 142.5 -45t129.5 -45q38 0 69 29.5t46 70.5z" />
<glyph unicode="&#xf2;" horiz-adv-x="1024" d="M811 1184h-104l-218 282h158zM446 78q90 0 165.5 41.5t125.5 108.5t85 153t51 173t16 171q0 262 -240 262q-90 0 -165.5 -41.5t-125 -109t-84 -154t-50 -173.5t-15.5 -171q0 -260 237 -260zM426 -20q-92 0 -159 26t-106 74.5t-57 110.5t-18 139q0 107 21.5 212.5 t68 203.5t112.5 173.5t163 120.5t211 45q180 0 265 -96.5t85 -257.5q0 -106 -22.5 -211.5t-71 -203t-116 -172.5t-165 -119.5t-211.5 -44.5z" />
<glyph unicode="&#xf3;" horiz-adv-x="1024" d="M1001 1466l-344 -282h-104l291 282h157zM446 78q90 0 165.5 41.5t125.5 108.5t85 153t51 173t16 171q0 262 -240 262q-90 0 -165.5 -41.5t-125 -109t-84 -154t-50 -173.5t-15.5 -171q0 -260 237 -260zM426 -20q-92 0 -159 26t-106 74.5t-57 110.5t-18 139 q0 107 21.5 212.5t68 203.5t112.5 173.5t163 120.5t211 45q180 0 265 -96.5t85 -257.5q0 -106 -22.5 -211.5t-71 -203t-116 -172.5t-165 -119.5t-211.5 -44.5z" />
<glyph unicode="&#xf4;" horiz-adv-x="1024" d="M985 1184h-135l-121 207l-215 -207h-135l297 282h139zM446 78q90 0 165.5 41.5t125.5 108.5t85 153t51 173t16 171q0 262 -240 262q-90 0 -165.5 -41.5t-125 -109t-84 -154t-50 -173.5t-15.5 -171q0 -260 237 -260zM426 -20q-92 0 -159 26t-106 74.5t-57 110.5t-18 139 q0 107 21.5 212.5t68 203.5t112.5 173.5t163 120.5t211 45q180 0 265 -96.5t85 -257.5q0 -106 -22.5 -211.5t-71 -203t-116 -172.5t-165 -119.5t-211.5 -44.5z" />
<glyph unicode="&#xf5;" horiz-adv-x="1024" d="M977 1415h78q-36 -91 -88.5 -144.5t-137.5 -53.5q-44 0 -136 46t-130 46q-41 0 -72.5 -30t-46.5 -73h-77q24 77 87 138t136 61q53 0 142.5 -45t129.5 -45q38 0 69 29.5t46 70.5zM446 78q90 0 165.5 41.5t125.5 108.5t85 153t51 173t16 171q0 262 -240 262 q-90 0 -165.5 -41.5t-125 -109t-84 -154t-50 -173.5t-15.5 -171q0 -260 237 -260zM426 -20q-92 0 -159 26t-106 74.5t-57 110.5t-18 139q0 107 21.5 212.5t68 203.5t112.5 173.5t163 120.5t211 45q180 0 265 -96.5t85 -257.5q0 -106 -22.5 -211.5t-71 -203t-116 -172.5 t-165 -119.5t-211.5 -44.5z" />
<glyph unicode="&#xf6;" horiz-adv-x="1024" d="M594 1204h-135l43 193h135zM913 1204h-135l43 193h135zM446 78q90 0 165.5 41.5t125.5 108.5t85 153t51 173t16 171q0 262 -240 262q-90 0 -165.5 -41.5t-125 -109t-84 -154t-50 -173.5t-15.5 -171q0 -260 237 -260zM426 -20q-92 0 -159 26t-106 74.5t-57 110.5t-18 139 q0 107 21.5 212.5t68 203.5t112.5 173.5t163 120.5t211 45q180 0 265 -96.5t85 -257.5q0 -106 -22.5 -211.5t-71 -203t-116 -172.5t-165 -119.5t-211.5 -44.5z" />
<glyph unicode="&#xf7;" horiz-adv-x="1228" d="M1171 477h-1065l25 111h1065zM866 977q-10 -47 -53 -82t-90 -35t-74 35t-16 82t52.5 82t88.5 35t74.5 -35t17.5 -82zM670 88q-10 -47 -53.5 -82t-90.5 -35t-74 35t-16 82q9 47 51.5 82t90.5 35q47 0 74 -34.5t18 -82.5z" />
<glyph unicode="&#xf8;" horiz-adv-x="1024" d="M227 217l594 709q-58 61 -172 61q-317 0 -416 -455q-24 -108 -24 -190q0 -72 18 -125zM870 846l-594 -709q59 -59 170 -59q314 0 418 454q25 116 25 195q0 67 -19 119zM25 -164h-115l229 275q-55 83 -55 217q0 107 22.5 213t70.5 204.5t115.5 174t165.5 120.5t212 45 q148 0 227 -67l176 211h117l-232 -277q54 -86 54 -217q0 -107 -22.5 -213t-70.5 -204t-115.5 -173t-165.5 -120t-212 -45q-149 0 -225 67z" />
<glyph unicode="&#xf9;" d="M889 0h-123l37 168q-116 -98 -206 -143t-200 -45q-252 0 -252 225q0 50 17 133l160 727h122l-157 -715q-17 -76 -17 -117q0 -78 41 -116.5t131 -38.5q48 0 89.5 11.5t94 44t88 59t113.5 88.5l174 784h123zM879 1184h-105l-217 282h158z" />
<glyph unicode="&#xfa;" d="M1069 1466l-344 -282h-104l290 282h158zM889 0h-123l37 168q-116 -98 -206 -143t-200 -45q-252 0 -252 225q0 50 17 133l160 727h122l-157 -715q-17 -76 -17 -117q0 -78 41 -116.5t131 -38.5q48 0 89.5 11.5t94 44t88 59t113.5 88.5l174 784h123z" />
<glyph unicode="&#xfb;" d="M1053 1184h-135l-121 207l-215 -207h-136l297 282h140zM889 0h-123l37 168q-116 -98 -206 -143t-200 -45q-252 0 -252 225q0 50 17 133l160 727h122l-157 -715q-17 -76 -17 -117q0 -78 41 -116.5t131 -38.5q48 0 89.5 11.5t94 44t88 59t113.5 88.5l174 784h123z" />
<glyph unicode="&#xfc;" d="M662 1204h-136l43 193h136zM981 1204h-135l43 193h135zM889 0h-123l37 168q-116 -98 -206 -143t-200 -45q-252 0 -252 225q0 50 17 133l160 727h122l-157 -715q-17 -76 -17 -117q0 -78 41 -116.5t131 -38.5q48 0 89.5 11.5t94 44t88 59t113.5 88.5l174 784h123z" />
<glyph unicode="&#xfd;" horiz-adv-x="909" d="M317 16l-139 1049h135l103 -866h4l487 866h131l-649 -1141q-94 -165 -181 -233t-226 -68q-70 0 -111 12l20 101q6 -1 49.5 -8t71.5 -7q71 0 149.5 70.5t155.5 224.5zM954 1466l-344 -282h-104l291 282h157z" />
<glyph unicode="&#xfe;" d="M145 -377h-122l411 1856h123l-127 -578h4q166 184 361 184q159 0 242 -108t83 -279q0 -94 -22 -192.5t-68.5 -193t-111.5 -168.5t-158 -119t-201 -45q-105 0 -171 36.5t-128 122.5zM406 793l-117 -525q22 -63 98.5 -126.5t159.5 -63.5q87 0 162 39t127 102.5t89 144.5 t54.5 166.5t17.5 167.5q0 129 -56 209t-173 80q-49 0 -93 -13t-92.5 -44.5t-82 -57.5t-94.5 -79z" />
<glyph unicode="&#xff;" horiz-adv-x="909" d="M317 16l-139 1049h135l103 -866h4l487 866h131l-649 -1141q-94 -165 -181 -233t-226 -68q-70 0 -111 12l20 101q6 -1 49.5 -8t71.5 -7q71 0 149.5 70.5t155.5 224.5zM547 1204h-135l43 193h135zM866 1204h-135l43 193h135z" />
<glyph unicode="&#x131;" horiz-adv-x="454" d="M207 0h-123l235 1065h123z" />
<glyph unicode="&#x141;" horiz-adv-x="1024" d="M918 0h-795l147 664l-188 -70l29 127l188 70l152 688h135l-140 -633l379 139l-28 -127l-379 -139l-135 -608h659z" />
<glyph unicode="&#x142;" horiz-adv-x="454" d="M207 0h-123l152 684l-183 -86l29 131l182 86l148 664h123l-134 -600l183 84l-29 -132l-182 -83z" />
<glyph unicode="&#x152;" horiz-adv-x="2048" d="M1884 0h-827q-70 0 -204 -10t-181 -10q-270 0 -397.5 128.5t-127.5 362.5q0 156 38.5 306.5t114 280.5t178.5 229t240 155.5t290 56.5q62 0 195 -10t173 -10h797l-25 -111h-698l-121 -545h500l-25 -110h-499l-134 -602h738zM1077 295l197 889q6 24 6 49q0 156 -252 156 q-138 0 -258.5 -49.5t-208 -135t-150.5 -198.5t-94.5 -242.5t-31.5 -263.5q0 -410 456 -410q291 0 336 205z" />
<glyph unicode="&#x153;" horiz-adv-x="1705" d="M438 78q85 0 156.5 43t119 111t81 154.5t48.5 172t15 164.5q0 264 -213 264q-88 0 -162.5 -42.5t-124 -111t-84 -155.5t-50 -173.5t-15.5 -168.5q0 -258 229 -258zM1516 293l88 -53q-119 -143 -224.5 -201.5t-255.5 -58.5q-127 0 -202 58t-105 175q-153 -233 -399 -233 q-174 0 -253 94t-79 254q0 107 21.5 213t67.5 204.5t111 174t160 120.5t207 45q132 0 211 -63.5t99 -167.5q61 97 163 164t240 67q158 0 236.5 -91.5t78.5 -254.5q0 -88 -26 -211h-699q-24 -117 -24 -190q0 -260 223 -260q103 0 178.5 45t182.5 170zM979 627h575q7 58 7 92 q0 268 -218 268q-139 0 -229 -98.5t-135 -261.5z" />
<glyph unicode="&#x160;" d="M1196 1845l-297 -282h-139l-170 282h135l121 -207l215 207h135zM1178 1145l-125 -35q-13 129 -86 204t-209 75q-91 0 -172 -38t-134 -115.5t-53 -178.5q0 -58 53 -107.5t195 -107.5q231 -94 320.5 -174.5t89.5 -190.5q0 -155 -72.5 -268.5t-196 -171t-282.5 -57.5 q-212 0 -317.5 96t-120.5 299l133 39q4 -168 89 -246t261 -78q95 0 178.5 43t136 124.5t52.5 182.5q0 30 -10.5 57t-24 47t-40.5 41.5t-46 34t-55.5 30t-53.5 24.5t-55 22q-164 68 -229 110q-142 93 -142 226q0 198 145 332.5t375 134.5q176 0 280 -92.5t116 -261.5z" />
<glyph unicode="&#x161;" horiz-adv-x="909" d="M1001 1466l-296 -282h-140l-170 282h135l121 -206l215 206h135zM903 893l-108 -66q-42 80 -97 120t-145 40q-61 0 -117.5 -22t-97.5 -73t-41 -122q0 -27 13.5 -49t31.5 -36.5t53.5 -30t60 -23t70.5 -21.5q37 -11 61 -18.5t58 -21t56 -26.5t46.5 -32.5t38.5 -41.5 t23.5 -51.5t9.5 -64.5q0 -86 -36.5 -157.5t-97 -118.5t-137.5 -72.5t-159 -25.5q-129 0 -228.5 53.5t-148.5 161.5l105 63q49 -103 114.5 -141.5t174.5 -38.5q115 0 200.5 72.5t85.5 173.5q0 65 -48.5 103t-137.5 67q-19 6 -57.5 17.5t-60 18.5t-55.5 20t-53.5 24t-43.5 29 t-37 37t-22 45.5t-9 57.5q0 71 23 129t61.5 97t89.5 65.5t105.5 38.5t111.5 12q132 0 219.5 -49.5t124.5 -142.5z" />
<glyph unicode="&#x178;" d="M547 0h-135l139 627l-264 852h151l203 -731l551 731h151l-657 -852zM741 1563h-135l43 192h135zM1061 1563h-135l43 192h135z" />
<glyph unicode="&#x17d;" d="M963 0h-951l25 111l1050 1257h-708l24 111h877l-25 -115l-1050 -1253h782zM1196 1845l-297 -282h-139l-170 282h135l121 -207l215 207h135z" />
<glyph unicode="&#x17e;" horiz-adv-x="909" d="M764 0h-795l17 78l813 889h-566l21 98h729l-16 -78l-811 -889h630zM1001 1466l-296 -282h-140l-170 282h135l121 -206l215 206h135z" />
<glyph unicode="&#x192;" d="M-63 -371l38 111q47 -19 68 -19q58 0 104 24t83.5 75t66.5 110.5t63 149.5l263 713h-275l21 98h284q76 225 137 337q150 270 361 271q75 0 119 -12l-39 -92q-35 6 -64 6q-52 0 -95.5 -16t-77.5 -49t-59.5 -68t-49.5 -88.5t-39.5 -94t-37 -101t-34.5 -93.5h260l-20 -98 h-271l-301 -816q-59 -157 -168 -255.5t-260 -98.5q-40 0 -77 6z" />
<glyph unicode="&#x2c6;" horiz-adv-x="454" d="M711 1184h-136l-120 207l-215 -207h-136l297 282h140z" />
<glyph unicode="&#x2c7;" horiz-adv-x="454" d="M774 1466l-297 -282h-139l-170 282h135l121 -206l215 206h135z" />
<glyph unicode="&#x2d8;" horiz-adv-x="454" d="M684 1452h78q-34 -120 -128.5 -190t-223.5 -70t-193 70t-45 190h78q-1 -87 46 -126.5t134 -39.5q184 0 254 166z" />
<glyph unicode="&#x2d9;" horiz-adv-x="454" d="M479 1204h-135l43 193h135z" />
<glyph unicode="&#x2da;" horiz-adv-x="454" d="M655 1380q-19 -86 -92 -145t-157 -59t-131.5 59t-28.5 145q20 86 94 145.5t158 59.5t130.5 -59.5t26.5 -145.5zM586 1380q13 57 -18 96.5t-87 39.5t-104.5 -39.5t-61.5 -96.5q-12 -57 19.5 -96t87.5 -39t104 39t60 96z" />
<glyph unicode="&#x2db;" horiz-adv-x="454" d="M322 -254l14 -61q-192 -107 -316 -107q-73 0 -117 29t-44 90q0 56 23.5 103t71 81.5t90 59t113 45.5t104.5 29.5t97 21.5q6 1 9 2l-5 -19q-36 -12 -57.5 -19.5t-65 -25.5t-71.5 -32.5t-64.5 -38.5t-57.5 -47t-36.5 -53t-15.5 -62q0 -33 28.5 -57.5t67.5 -24.5 q10 0 21.5 1.5t26.5 6t25.5 7.5t29 11t27 11t29 13t25.5 12.5t26 13.5z" />
<glyph unicode="&#x2dc;" horiz-adv-x="454" d="M702 1415h78q-36 -91 -88.5 -144.5t-136.5 -53.5q-44 0 -136 46t-130 46q-41 0 -72.5 -30t-46.5 -73h-78q24 77 87 138t136 61q53 0 143 -45t130 -45q38 0 68.5 29.5t45.5 70.5z" />
<glyph unicode="&#x2dd;" horiz-adv-x="454" d="M575 1466l-311 -282h-100l254 282h157zM860 1466l-344 -282h-104l290 282h158z" />
<glyph unicode="&#x3a9;" horiz-adv-x="1482" d="M1292 0h-477l16 74q83 50 167 131.5t160.5 190.5t124.5 251t48 287q0 90 -21 168.5t-62.5 142.5t-112.5 101.5t-164 37.5q-170 0 -320 -115t-238.5 -304t-88.5 -400q0 -161 55 -292t141 -199l-16 -74h-477l22 100h316l2 6q-75 81 -119.5 200t-44.5 263q0 196 70 370.5 t182.5 292.5t254 186.5t285.5 68.5q145 0 251.5 -66.5t160 -181t53.5 -262.5q0 -141 -44 -281t-115 -251.5t-148.5 -196.5t-155.5 -142l-2 -6h320z" />
<glyph unicode="&#x3bc;" d="M889 0h-123l37 168q-116 -98 -206 -143t-200 -45q-121 0 -182 49l-90 -406h-123l320 1442h122l-157 -715q-31 -138 3 -205t152 -67q22 0 41.5 2t42 10t37.5 12.5t41 20.5t37.5 22t43.5 29.5t42 30.5t49.5 37t50.5 39l174 784h123z" />
<glyph unicode="&#x3c0;" horiz-adv-x="1150" d="M870 0h-116q-21 64 32 293l152 688h-401q-63 -237 -175.5 -540.5t-197.5 -440.5h-119q93 157 201.5 448.5t171.5 532.5q-165 0 -244 -27l-4 80q100 51 293 51h801l-35 -104h-172l-150 -674q-45 -206 -37 -307z" />
<glyph unicode="&#xe00;" horiz-adv-x="399" />
<glyph unicode="&#xe01;" horiz-adv-x="1228" d="M956 0h-110l170 797q10 55 10 92q0 108 -71 166.5t-216 58.5q-115 0 -212 -37.5t-167 -95.5v-6q68 -6 143.5 -34.5t121.5 -63.5l-13 -46q-99 -10 -164 -74t-88 -171l-124 -586h-111l125 586q22 98 77 169t130 99l2 8q-79 43 -246 43l14 66q81 108 220.5 175.5t312.5 67.5 q186 0 282.5 -80.5t96.5 -224.5q0 -49 -13 -112z" />
<glyph unicode="&#xe02;" horiz-adv-x="1142" d="M866 0h-614l22 111h129l107 491q8 38 32 78t51.5 73.5t54 67.5t44 74t17.5 80q0 61 -43 101t-115 40q-94 0 -152 -43v-6q87 7 136 -37t49 -112q0 -96 -69 -156t-165 -60q-70 0 -122 46t-52 129q0 141 111 239t266 98q129 0 198.5 -66t69.5 -171q0 -55 -27.5 -110.5 t-62 -94t-68 -87t-42.5 -87.5l-105 -487h262l234 1087h110zM483 905q0 37 -23 61.5t-63 24.5q-47 0 -82.5 -33t-35.5 -79q0 -35 23.5 -60.5t57.5 -25.5q54 0 88.5 32t34.5 80z" />
<glyph unicode="&#xe03;" horiz-adv-x="1208" d="M932 0h-619l23 111h131l123 571q37 166 172 258l72 49l-60 117l-164 -105h-12q-30 121 -131 121q-62 0 -116 -43t-66 -96h4q46 49 129 49q75 0 117.5 -43.5t42.5 -114.5q0 -86 -63.5 -147t-164.5 -61q-79 0 -134.5 54.5t-55.5 143.5q0 80 31.5 148t80 111t104.5 67 t109 24q59 0 97 -27t53 -67l135 84q22 13 35 13q19 0 29 -17l100 -188q6 -12 6 -29q0 -31 -29 -51l-92 -64q-52 -36 -77.5 -73t-41.5 -113l-120 -571h264l233 1087h111zM477 866q0 35 -24.5 58.5t-59.5 23.5q-52 0 -85.5 -29.5t-33.5 -78.5q0 -33 25 -57.5t61 -24.5 q51 0 84 30.5t33 77.5z" />
<glyph unicode="&#xe04;" horiz-adv-x="1331" d="M831 725q0 36 -21.5 58t-57.5 22q-48 0 -83.5 -33.5t-35.5 -83.5q0 -34 21.5 -56t56.5 -22q53 0 86.5 32.5t33.5 82.5zM1059 0h-111l158 743q10 58 10 101q0 126 -75.5 198t-217.5 72q-174 0 -294.5 -111.5t-157.5 -285.5l-66 -305q-32 -152 -84 -271l10 -4 q88 210 138 301l161 289q94 168 242 168q64 0 111 -42.5t47 -113.5q0 -96 -64.5 -157.5t-167.5 -61.5q-60 0 -100.5 32t-42.5 71h-4q-15 -72 -45 -123l-281 -500h-116l153 717q22 102 69 190.5t117 157.5t169 109t214 40q185 0 291.5 -104.5t106.5 -265.5q0 -46 -10 -101z " />
<glyph unicode="&#xe05;" horiz-adv-x="1349" d="M1075 0h-110l188 879q10 44 10 92q0 125 -112 125q-68 0 -150 -58l-90 -63h-25l-63 63q-58 58 -127 58q-140 0 -188 -217l-101 -467q-32 -152 -84 -271l10 -4q75 180 142 301l162 289q94 168 241 168q64 0 111 -42.5t47 -113.5q0 -96 -64 -157.5t-167 -61.5 q-60 0 -101 32t-43 71h-4q-15 -72 -45 -123l-285 -500h-118l190 889q13 59 35 110.5t57.5 98t89 73.5t119.5 27q100 0 168 -68l43 -45l66 45q97 68 194 68q101 0 152 -63.5t51 -163.5q0 -45 -8 -84zM838 725q0 36 -22 58t-58 22q-48 0 -83.5 -33.5t-35.5 -83.5 q0 -34 21.5 -56t56.5 -22q54 0 87.5 32.5t33.5 82.5z" />
<glyph unicode="&#xe06;" horiz-adv-x="1445" d="M487 180l50 228q-98 -19 -164 -79.5t-66 -150.5q0 -48 21.5 -73t58.5 -25q38 0 63.5 26t36.5 74zM1169 0h-135q-24 157 -129 270t-262 133l-49 -225q-23 -102 -77.5 -148t-141.5 -46q-78 0 -128 48t-50 132q0 73 29.5 134t80 102t113 67t131.5 35l39 180q37 166 172 258 l72 49l-60 117l-164 -105h-12q-30 121 -131 121q-62 0 -116 -43t-66 -96h4q46 49 129 49q75 0 117.5 -43.5t42.5 -114.5q0 -86 -63.5 -147t-164.5 -61q-79 0 -134.5 54.5t-55.5 143.5q0 80 31.5 148t80 111t104.5 67t109 24q59 0 97 -27t53 -67l135 84q22 13 35 13 q19 0 29 -17l100 -188q6 -12 6 -29q0 -31 -29 -51l-92 -64q-54 -37 -79.5 -74t-39.5 -112l-38 -180q150 -20 263 -108t160 -222h11l219 1026h110zM477 866q0 35 -24.5 58.5t-59.5 23.5q-52 0 -85.5 -29.5t-33.5 -78.5q0 -33 25 -57.5t61 -24.5q51 0 84 30.5t33 77.5z" />
<glyph unicode="&#xe07;" horiz-adv-x="966" d="M694 0h-114l-498 653l84 72l387 -512q40 -54 59 -111l6 2q0 72 33 230l94 436q8 41 48 123l-9 2q-41 -55 -118 -55q-62 0 -109 45.5t-47 111.5q0 95 65 156t168 61q73 0 122.5 -43t49.5 -112q0 -11 -4 -39zM813 1044q0 36 -22 58t-58 22q-52 0 -86.5 -33t-34.5 -81 q0 -36 22 -58t58 -22q47 0 84 33t37 81z" />
<glyph unicode="&#xe08;" horiz-adv-x="1171" d="M676 700q0 36 -24 60t-60 24q-49 0 -83 -31t-34 -79q0 -35 23.5 -59.5t58.5 -24.5q54 0 86.5 31t32.5 79zM901 0h-125l-65 479q-2 10 -2 35q0 40 10 88h-4q-16 -40 -62 -71t-104 -31q-80 0 -128 47t-48 117q0 92 68 151t157 59q84 0 128 -45t56 -133l39 -262 q13 -80 13 -190q0 -24 -5 -111l13 2q10 137 39 277l73 333q13 60 13 105q0 124 -76.5 194t-222.5 70q-166 0 -278.5 -92.5t-143.5 -233.5l-15 -67h-110l14 67q18 86 61.5 161t109.5 135t162.5 95t209.5 35q190 0 292.5 -99t102.5 -257q0 -54 -12 -113z" />
<glyph unicode="&#xe09;" horiz-adv-x="1220" d="M911 373l80 372q13 60 13 103q0 126 -79 196t-233 70q-173 0 -289 -92.5t-147 -233.5l-14 -67h-113l14 67q18 85 63 160.5t114 135.5t167.5 95t214.5 35q197 0 304.5 -100.5t107.5 -259.5q0 -54 -12 -109l-82 -376q44 -10 75 -53t31 -109q0 -103 -70 -163t-171 -60 q-80 0 -127 45t-47 102q0 49 28 82l-4 4q-50 -54 -127 -102l-182 -115h-111l115 532q-50 11 -82.5 52t-32.5 98q0 92 67.5 152.5t164.5 60.5q74 0 121 -42.5t47 -113.5q0 -75 -45.5 -127.5t-126.5 -74.5l-92 -422l323 202q83 52 137 56zM1022 197q0 39 -24.5 63.5 t-63.5 24.5q-53 0 -88 -34.5t-35 -90.5q0 -37 24.5 -61.5t63.5 -24.5q54 0 88.5 33t34.5 90zM614 729q0 36 -21 58t-56 22q-50 0 -85.5 -34t-35.5 -81q0 -36 22 -58t58 -22q48 0 83 34t35 81z" />
<glyph unicode="&#xe0a;" horiz-adv-x="1155" d="M791 111l143 663q10 48 10 72q0 32 -20 55l-60 62l-108 -89q-31 -25 -46 -50t-24 -68l-139 -645h244zM879 0h-611l23 111h147l137 645q16 72 43.5 114t75.5 80l92 74q-115 92 -258 92q-93 0 -151 -43v-6h22q76 0 119 -43t43 -106q0 -97 -68.5 -156.5t-164.5 -59.5 q-70 0 -122 46t-52 129q0 92 57.5 170.5t149.5 122.5t194 44q167 0 315 -120l246 198l62 -78l-232 -184l64 -61q45 -45 45 -115q0 -23 -11 -80zM461 905q0 37 -23 61.5t-63 24.5q-47 0 -83 -33t-36 -79q0 -35 24 -60.5t58 -25.5q54 0 88.5 32t34.5 80z" />
<glyph unicode="&#xe0b;" horiz-adv-x="1181" d="M905 0h-612l22 111h150l137 645q14 71 41.5 112.5t77.5 81.5l102 80l-78 74l-135 -103h-12q-30 121 -131 121q-62 0 -116 -43t-66 -96h4q46 49 129 49q75 0 117.5 -43.5t42.5 -114.5q0 -86 -63.5 -147t-164.5 -61q-79 0 -134.5 54.5t-55.5 143.5q0 80 31.5 148t80 111 t104.5 67t109 24q59 0 97 -27t53 -67l100 78q22 16 39 16q14 0 31 -14l100 -100l238 192l63 -82l-233 -184l63 -57q42 -39 45 -117q0 -26 -10 -78zM817 111l144 663q10 52 10 76q0 31 -19 53l-59 60l-111 -91q-31 -25 -45.5 -49t-23.5 -67l-140 -645h244zM477 866 q0 35 -24.5 58.5t-59.5 23.5q-52 0 -85.5 -29.5t-33.5 -78.5q0 -33 25 -57.5t61 -24.5q51 0 84 30.5t33 77.5z" />
<glyph unicode="&#xe0c;" horiz-adv-x="1837" d="M451 193q0 37 -22 60t-60 23q-50 0 -84.5 -30.5t-34.5 -79.5q0 -36 24 -60t60 -24q50 0 83.5 32t33.5 79zM1561 0h-136q-28 156 -135.5 251.5t-257.5 96.5l-39 -176q-21 -98 -68.5 -143t-125.5 -45q-71 0 -113.5 44t-42.5 115q0 126 84.5 205.5t212.5 97.5l76 351 q10 55 10 92q0 225 -287 225q-115 0 -212 -37.5t-167 -95.5v-6q68 -6 143.5 -34.5t121.5 -63.5l-13 -46q-100 -11 -170.5 -75.5t-93.5 -169.5l-33 -150q-17 -70 -45 -123l9 -2q14 21 46.5 36t71.5 15q65 0 110.5 -43t45.5 -116q0 -92 -66.5 -151.5t-162.5 -59.5 q-78 0 -128.5 41.5t-50.5 107.5q0 7 5 37l88 408q21 96 81.5 167.5t137.5 100.5l2 8q-79 43 -246 43l14 66q81 108 220.5 175.5t312.5 67.5q186 0 282.5 -80.5t96.5 -224.5q0 -49 -13 -112l-75 -351q145 -8 261 -79t165 -195h10l219 1026h111zM887 174l39 178 q-77 -18 -125.5 -70.5t-48.5 -127.5q0 -74 57 -74q58 0 78 94z" />
<glyph unicode="&#xe0d;" horiz-adv-x="1853" d="M451 193q0 37 -22 60t-60 23q-50 0 -84.5 -30.5t-34.5 -79.5q0 -36 24 -60t60 -24q50 0 83.5 32t33.5 79zM1577 0h-750l170 797q11 60 11 94q0 223 -277 223q-211 0 -371 -133v-6q68 -6 143.5 -34.5t121.5 -63.5l-13 -46q-100 -11 -170.5 -75.5t-93.5 -169.5l-33 -150 q-17 -70 -45 -123l9 -2q14 21 46.5 36t71.5 15q65 0 110.5 -43t45.5 -116q0 -92 -66.5 -151.5t-162.5 -59.5q-78 0 -128.5 41.5t-50.5 107.5q0 7 5 37l88 408q21 96 81.5 167.5t137.5 100.5l2 8q-79 43 -246 43l14 66q81 108 218 175.5t307 67.5q182 0 275 -79.5t93 -223.5 q0 -53 -12 -114l-145 -686h526l233 1087h111zM1552 -111l-10 -47q-37 -173 -163 -263.5t-304 -90.5q-141 0 -228 57.5t-87 159.5q0 81 57.5 139t151.5 58q72 0 118 -43t46 -105q0 -67 -42 -108t-108 -56l-2 -6q31 -10 102 -10q142 0 234.5 69.5t120.5 198.5l10 47h104z M1036 -256q0 31 -21 51.5t-52 20.5q-47 0 -77 -27t-30 -72q0 -31 22 -50t56 -19q44 0 73 26.5t29 69.5z" />
<glyph unicode="&#xe0e;" horiz-adv-x="1337" d="M289 -369q0 40 -26 67.5t-70 27.5q-53 0 -92.5 -34.5t-39.5 -88.5q0 -41 26.5 -70t70.5 -29q53 0 92 36t39 91zM995 -332l-297 -266h-20l-193 139q-36 26 -61 58t-25 59h-6l-10 -51q-18 -86 -82 -139.5t-158 -53.5q-77 0 -132.5 49t-55.5 125q0 98 70.5 163t169.5 65 q42 0 76.5 -13t48.5 -26l14 -13l8 7q-18 18 -18 53q0 18 6 39l4 18h110l-30 -153l270 -205l209 192l233 1082q11 60 11 92q0 108 -71 166.5t-216 58.5q-115 0 -212 -37.5t-167 -95.5v-6q69 -6 149 -35t125 -63l-12 -46q-192 -20 -241 -245l-89 -408q-20 -88 -82 -137 t-147 -49q-75 0 -123.5 45t-48.5 117q0 94 64 152.5t155 58.5q74 0 113 -54l8 2q-2 14 -2 43q0 39 8 80l33 150q22 100 72.5 170.5t124.5 97.5l2 8q-39 21 -112.5 32t-143.5 11l14 66q81 109 216.5 176t307.5 67q188 0 287.5 -81t99.5 -228q0 -49 -12 -108zM303 193 q0 36 -22.5 59.5t-59.5 23.5q-50 0 -84.5 -31.5t-34.5 -78.5q0 -35 24.5 -59.5t61.5 -24.5q50 0 82.5 31t32.5 80z" />
<glyph unicode="&#xe0f;" horiz-adv-x="1337" d="M147 -496q54 0 89.5 36.5t35.5 92.5q0 40 -22.5 66.5t-63.5 26.5q-54 0 -90.5 -37t-36.5 -92q0 -39 24.5 -66t63.5 -27zM981 -395l-227 -203h-25l-98 129l-152 -129h-22l-56 74q-30 39 -30 114v25h-6q-18 -89 -78 -145t-152 -56q-75 0 -126.5 47.5t-51.5 122.5 q0 97 69.5 164.5t161.5 67.5q49 0 83.5 -18.5t47.5 -37.5l9 7q-17 17 -17 59q0 25 4 37l4 18h111l-39 -186l94 -172l150 117h22l97 -117l125 117l247 1157q11 60 11 92q0 108 -71 166.5t-216 58.5q-115 0 -212 -37.5t-167 -95.5v-6q69 -6 149 -35t125 -63l-12 -46 q-192 -20 -241 -245l-89 -408q-20 -88 -82 -137t-147 -49q-75 0 -123.5 45t-48.5 117q0 94 64 152.5t155 58.5q74 0 113 -54l8 2q-2 14 -2 43q0 39 8 80l33 150q22 100 72.5 170.5t124.5 97.5l2 8q-39 21 -112.5 32t-143.5 11l14 66q81 109 216.5 176t307.5 67 q188 0 287.5 -81t99.5 -228q0 -49 -12 -108zM303 193q0 36 -22.5 59.5t-59.5 23.5q-50 0 -84.5 -31.5t-34.5 -78.5q0 -35 24.5 -59.5t61.5 -24.5q50 0 82.5 31t32.5 80z" />
<glyph unicode="&#xe10;" horiz-adv-x="1087" d="M700 0h-108l-37 369q-2 14 -2 47q0 26 4 76q-17 -40 -57 -68.5t-99 -28.5q-77 0 -124.5 46.5t-47.5 113.5q0 97 67 155t157 58q85 0 131.5 -47.5t52.5 -136.5l22 -277q3 -43 3 -76q0 -53 -9 -129h11q14 100 51 205l123 320q20 53 20 94q0 73 -70.5 104t-216.5 31 q-103 0 -202.5 -15t-157.5 -40h-27l25 112q10 45 27.5 85t50 80.5t75.5 69.5t107 47.5t141 18.5q75 0 144.5 -17t121.5 -34.5t85 -17.5q48 0 69.5 29.5t36.5 95.5l111 -39q-17 -82 -75.5 -134.5t-131.5 -52.5q-68 0 -172 35t-201 35q-115 0 -187.5 -51.5t-88.5 -124.5 l-5 -18q104 34 263 34q191 0 289 -48t98 -154q0 -54 -27 -127zM530 596q0 36 -22.5 60t-61.5 24q-48 0 -81 -32t-33 -81q0 -35 22.5 -58.5t57.5 -23.5q53 0 85.5 30t32.5 81zM55 -582q51 0 83 33.5t32 87.5q0 38 -21.5 62t-56.5 24q-51 0 -85 -34.5t-34 -86.5q0 -36 23 -61 t59 -25zM827 -473l-211 -209h-28l-84 127l-139 -127h-19l-47 72q-28 42 -37 127v4q-18 -83 -78 -138t-145 -55q-71 0 -120.5 46t-49.5 118q0 92 66 156.5t161 64.5q39 0 69 -11.5t40 -22.5l10 -11l8 6q-14 18 -14 45q0 19 6 43l4 19h111l-41 -189l82 -155l137 117h22 l82 -117l111 117l4 16q3 12 7 23t7.5 17t12 21t12.5 23l-8 2q-12 -17 -21 -27t-28.5 -19t-46.5 -9q-56 0 -98 41t-42 102q0 79 57 129.5t142 50.5q65 0 111.5 -42t46.5 -103q0 -6 -5 -31zM778 -227q0 29 -18 48t-49 19q-39 0 -66 -25t-27 -63q0 -28 19.5 -47.5t48.5 -19.5 q39 0 65.5 24.5t26.5 63.5z" />
<glyph unicode="&#xe11;" horiz-adv-x="1546" d="M1268 0h-111l195 907q6 34 6 62q0 123 -127 123h-39l-612 -1092h-127l145 682q21 98 54 158.5t93 99.5l76 49l-59 117l-152 -105h-12q-30 121 -131 121q-62 0 -116 -43t-66 -96h4q46 49 129 49q75 0 117.5 -43.5t42.5 -114.5q0 -86 -63.5 -147t-164.5 -61 q-79 0 -134.5 54.5t-55.5 143.5q0 80 31.5 148t80 111t104.5 67t109 24q59 0 97 -27t53 -67l133 90q12 9 25 9q19 0 26 -17l103 -190q4 -12 4 -21q0 -17 -9.5 -34t-21.5 -25l-92 -60q-39 -26 -57 -65.5t-37 -124.5l-54 -248q-26 -127 -73 -272h10q54 149 127 282l420 756h84 q121 0 185.5 -54t64.5 -155q0 -27 -11 -84zM477 866q0 35 -24.5 58.5t-59.5 23.5q-52 0 -85.5 -29.5t-33.5 -78.5q0 -33 25 -57.5t61 -24.5q51 0 84 30.5t33 77.5z" />
<glyph unicode="&#xe12;" horiz-adv-x="1955" d="M836 721q0 39 -22.5 61.5t-61.5 22.5q-48 0 -81.5 -31.5t-33.5 -81.5q0 -35 23.5 -58.5t62.5 -23.5q46 0 79.5 31t33.5 80zM1679 0h-135q-28 156 -135.5 251.5t-257.5 96.5l-39 -176q-21 -98 -68.5 -143t-125.5 -45q-71 0 -113.5 44t-42.5 115q0 126 84.5 205.5 t212.5 97.5l94 433q10 44 10 90q0 127 -112 127q-68 0 -150 -58l-90 -63h-25l-63 63q-58 58 -127 58q-140 0 -188 -217l-127 -588q-19 -87 -54 -178l4 -4q59 85 117 135l236 200q46 38 121 72v4q-68 0 -119 43t-51 117q0 88 66.5 151.5t164.5 63.5q76 0 123 -47.5t47 -118.5 q0 -59 -35 -108t-104 -109l-586 -512h-102l190 889q13 59 35 110.5t57.5 98t89 73.5t119.5 27q104 0 168 -68l43 -45l66 45q97 68 194 68q100 0 152.5 -63.5t52.5 -161.5q0 -38 -10 -86l-97 -441q145 -8 261 -79t165 -195h11l219 1026h110zM1006 174l38 178 q-77 -18 -125.5 -70.5t-48.5 -127.5q0 -36 15.5 -55t42.5 -19q58 0 78 94z" />
<glyph unicode="&#xe13;" horiz-adv-x="1867" d="M451 193q0 37 -22 60t-60 23q-50 0 -84.5 -30.5t-34.5 -79.5q0 -36 24 -60t60 -24q50 0 83.5 32t33.5 79zM1532 453l160 745h110l-168 -778q103 -51 103 -168q0 -124 -79 -196t-188 -72q-90 0 -144 50t-54 140q0 67 37 117.5t94 79.5v6q-106 0 -252.5 -116.5 t-216.5 -260.5h-117l170 797q10 55 10 94q0 107 -67.5 165t-206.5 58q-203 0 -363 -133v-6q68 -6 143.5 -34.5t121.5 -63.5l-13 -46q-100 -11 -170.5 -75.5t-93.5 -169.5l-33 -150q-17 -70 -45 -123l9 -2q14 21 46.5 36t71.5 15q65 0 110.5 -43t45.5 -116 q0 -92 -66.5 -151.5t-162.5 -59.5q-78 0 -128.5 41.5t-50.5 107.5q0 7 5 37l88 408q21 96 81.5 167.5t137.5 100.5l2 8q-79 43 -246 43l14 66q81 109 215.5 176t300.5 67q180 0 273.5 -79.5t93.5 -223.5q0 -52 -12 -114l-129 -602h8q89 126 219 197t252 71q46 0 84 -10z M1479 74q66 0 110.5 44t44.5 113q0 49 -29.5 80t-80.5 31q-62 0 -107 -44.5t-45 -113.5q0 -48 30 -79t77 -31z" />
<glyph unicode="&#xe14;" horiz-adv-x="1331" d="M836 721q0 39 -22.5 61.5t-61.5 22.5q-48 0 -81.5 -31.5t-33.5 -81.5q0 -35 23.5 -58.5t62.5 -23.5q46 0 79.5 31t33.5 80zM1059 0h-111l158 743q10 44 10 101q0 126 -75.5 198t-217.5 72q-174 0 -294.5 -111.5t-157.5 -285.5l-90 -426q-19 -87 -54 -178l4 -4 q59 85 117 135l236 200q46 38 121 72v4q-68 0 -119 43t-51 117q0 88 66.5 151.5t164.5 63.5q76 0 123 -47.5t47 -118.5q0 -59 -35 -108t-104 -109l-586 -512h-102l153 717q22 102 69 190.5t117 157.5t169 109t214 40q185 0 291.5 -104.5t106.5 -265.5q0 -56 -10 -101z" />
<glyph unicode="&#xe15;" horiz-adv-x="1349" d="M836 721q0 39 -22.5 61.5t-61.5 22.5q-48 0 -81.5 -31.5t-33.5 -81.5q0 -35 23.5 -58.5t62.5 -23.5q46 0 79.5 31t33.5 80zM1075 0h-110l188 879q10 44 10 90q0 127 -112 127q-68 0 -150 -58l-90 -63h-25l-63 63q-58 58 -127 58q-140 0 -188 -217l-127 -588 q-19 -87 -54 -178l4 -4q59 85 117 135l236 200q46 38 121 72v4q-68 0 -119 43t-51 117q0 88 66.5 151.5t164.5 63.5q76 0 123 -47.5t47 -118.5q0 -59 -35 -108t-104 -109l-586 -512h-102l190 889q13 59 35 110.5t57.5 98t89 73.5t119.5 27q104 0 168 -68l43 -45l66 45 q97 68 194 68q100 0 151.5 -64t51.5 -163q0 -45 -8 -84z" />
<glyph unicode="&#xe16;" horiz-adv-x="1228" d="M451 193q0 37 -22 60t-60 23q-50 0 -84.5 -30.5t-34.5 -79.5q0 -36 24 -60t60 -24q50 0 83.5 32t33.5 79zM956 0h-110l170 797q10 55 10 92q0 108 -71 166.5t-216 58.5q-115 0 -212 -37.5t-167 -95.5v-6q68 -6 143.5 -34.5t121.5 -63.5l-13 -46q-100 -11 -170.5 -75.5 t-93.5 -169.5l-33 -150q-17 -70 -45 -123l9 -2q14 21 46.5 36t71.5 15q65 0 110.5 -43t45.5 -116q0 -92 -66.5 -151.5t-162.5 -59.5q-78 0 -128.5 41.5t-50.5 107.5q0 7 5 37l88 408q21 96 81.5 167.5t137.5 100.5l2 8q-79 43 -246 43l14 66q81 108 220.5 175.5t312.5 67.5 q186 0 282.5 -80.5t96.5 -224.5q0 -49 -13 -112z" />
<glyph unicode="&#xe17;" horiz-adv-x="1337" d="M1061 0h-111l195 907q6 35 6 60q0 61 -32.5 93t-94.5 32h-39l-608 -1092h-127l166 770q9 44 47 123l-8 2q-41 -55 -119 -55q-62 0 -109 45.5t-47 111.5q0 94 65 155.5t169 61.5q73 0 122.5 -43t49.5 -112q0 -11 -4 -39l-121 -557q-32 -149 -80 -289h10q34 99 59.5 155.5 t71.5 139.5l408 731h86q121 0 185.5 -54t64.5 -155q0 -27 -11 -84zM483 1044q0 36 -22 58t-58 22q-52 0 -86 -33t-34 -81q0 -36 21.5 -58t57.5 -22q47 0 84 33t37 81z" />
<glyph unicode="&#xe18;" horiz-adv-x="1124" d="M760 106l94 447q6 30 6 57q0 65 -41 102.5t-123 37.5h-247l-138 -644h449zM842 0h-789l23 111h129l137 634h-172l25 119q14 68 52.5 128.5t101 111t158.5 80.5t212 30q180 0 291.5 -76t111.5 -184q0 -15 -4 -43l-6 -28h-121l6 24q4 20 4 31q0 71 -75 121.5t-213 50.5 q-177 0 -279 -69t-119 -164l-6 -33h398q123 0 192.5 -61t69.5 -162q0 -39 -8 -72z" />
<glyph unicode="&#xe19;" horiz-adv-x="1312" d="M967 74q63 0 106 45t43 112q0 49 -27.5 80t-76.5 31q-66 0 -112 -44.5t-46 -113.5q0 -48 30.5 -79t82.5 -31zM1016 463l158 735h110l-168 -776q48 -24 75.5 -71t27.5 -109q0 -118 -75.5 -188t-187.5 -70q-91 0 -146.5 51t-55.5 135q0 67 35.5 119t91.5 80v6 q-137 0 -286.5 -113t-221.5 -262h-123l166 770q9 44 47 123l-8 2q-41 -55 -119 -55q-62 0 -109 45.5t-47 111.5q0 94 65 155.5t169 61.5q73 0 121.5 -42.5t48.5 -110.5q0 -13 -4 -41l-177 -825h9q91 128 230.5 202t289.5 74q51 0 84 -8zM483 1044q0 36 -22 58t-58 22 q-52 0 -86 -33t-34 -81q0 -36 21.5 -58t57.5 -22q47 0 84 33t37 81z" />
<glyph unicode="&#xe1a;" horiz-adv-x="1310" d="M1032 0h-921l22 111h139l142 659q3 15 7 28.5t10 27t10 22t11.5 24t10.5 21.5l-8 2q-41 -55 -119 -55q-62 0 -109 45.5t-47 111.5q0 94 65 155.5t169 61.5q73 0 120.5 -42.5t47.5 -110.5q0 -13 -4 -41l-195 -909h561l234 1087h110zM483 1044q0 36 -22 58t-58 22 q-52 0 -86 -33t-34 -81q0 -36 21.5 -58t57.5 -22q47 0 84 33t37 81z" />
<glyph unicode="&#xe1b;" horiz-adv-x="1310" d="M1032 0h-921l22 111h139l142 659q3 15 7 28.5t10 27t10 22t11.5 24t10.5 21.5l-8 2q-41 -55 -119 -55q-62 0 -109 45.5t-47 111.5q0 94 65 155.5t169 61.5q73 0 120.5 -42.5t47.5 -110.5q0 -13 -4 -41l-195 -909h561l371 1728h110zM483 1044q0 36 -22 58t-58 22 q-52 0 -86 -33t-34 -81q0 -36 21.5 -58t57.5 -22q47 0 84 33t37 81z" />
<glyph unicode="&#xe1c;" horiz-adv-x="1327" d="M1049 0h-91l-258 500l-475 -500h-112l217 1016q20 92 83 145t148 53q76 0 125 -43t49 -114q0 -96 -62 -156.5t-153 -60.5q-92 0 -117 55l-8 -2q2 -12 2 -35q0 -30 -10 -88l-127 -594l406 432h96l215 -424l219 1014h111zM633 1040q0 37 -23 60.5t-61 23.5q-49 0 -82 -31.5 t-33 -78.5q0 -36 23 -60t59 -24q53 0 85 31t32 79z" />
<glyph unicode="&#xe1d;" horiz-adv-x="1327" d="M1049 0h-91l-258 500l-475 -500h-112l217 1016q20 92 83 145t148 53q76 0 125 -43t49 -114q0 -96 -62 -156.5t-153 -60.5q-92 0 -117 55l-8 -2q2 -12 2 -35q0 -30 -10 -88l-127 -594l406 432h96l215 -424l356 1655h111zM633 1040q0 37 -23 60.5t-61 23.5q-49 0 -82 -31.5 t-33 -78.5q0 -36 23 -60t59 -24q53 0 85 31t32 79z" />
<glyph unicode="&#xe1e;" horiz-adv-x="1447" d="M1171 0h-100l-149 1012l-549 -1012h-123l166 770q9 44 47 123l-8 2q-41 -55 -119 -55q-62 0 -109 45.5t-47 111.5q0 94 65 155.5t169 61.5q73 0 121.5 -42.5t48.5 -110.5q0 -13 -4 -41l-111 -518q-19 -88 -78 -273l12 -2q16 50 59 144t66 135l365 661h100l109 -661 q18 -129 18 -238q0 -7 -1 -21t-1 -20l12 2q2 12 8.5 74t13.5 112t15 87l150 696h110zM483 1044q0 36 -22 58t-58 22q-52 0 -86 -33t-34 -81q0 -36 21.5 -58t57.5 -22q47 0 84 33t37 81z" />
<glyph unicode="&#xe1f;" horiz-adv-x="1447" d="M1171 0h-100l-149 1012l-549 -1012h-123l166 770q9 44 47 123l-8 2q-41 -55 -119 -55q-62 0 -109 45.5t-47 111.5q0 94 65 155.5t169 61.5q73 0 121.5 -42.5t48.5 -110.5q0 -13 -4 -41l-111 -518q-19 -88 -78 -273l12 -2q16 50 59 144t66 135l365 661h100l109 -661 q18 -129 18 -238q0 -7 -1 -21t-1 -20l12 2q2 12 8.5 74t13.5 112t15 87l287 1337h111zM483 1044q0 36 -22 58t-58 22q-52 0 -86 -33t-34 -81q0 -36 21.5 -58t57.5 -22q47 0 84 33t37 81z" />
<glyph unicode="&#xe20;" horiz-adv-x="1337" d="M1067 0h-111l170 797q11 60 11 92q0 108 -71 166.5t-216 58.5q-115 0 -212 -37.5t-167 -95.5v-6q69 -6 149 -35t125 -63l-12 -46q-192 -20 -241 -245l-89 -408q-20 -88 -82 -137t-147 -49q-75 0 -123.5 45t-48.5 117q0 94 64 152.5t155 58.5q74 0 113 -54l8 2 q-2 14 -2 43q0 39 8 80l33 150q22 100 72.5 170.5t124.5 97.5l2 8q-39 21 -112.5 32t-143.5 11l14 66q81 109 216.5 176t307.5 67q188 0 287.5 -81t99.5 -228q0 -49 -12 -108zM303 193q0 36 -22.5 59.5t-59.5 23.5q-50 0 -84.5 -31.5t-34.5 -78.5q0 -35 24.5 -59.5 t61.5 -24.5q50 0 82.5 31t32.5 80z" />
<glyph unicode="&#xe21;" horiz-adv-x="1318" d="M360 180l50 228q-97 -18 -163.5 -80.5t-66.5 -153.5q0 -47 22 -70.5t58 -23.5q38 0 63.5 26t36.5 74zM1042 0h-135q-23 159 -130.5 276.5t-260.5 126.5l-49 -225q-23 -103 -75.5 -148.5t-141.5 -45.5q-75 0 -127.5 51.5t-52.5 128.5q0 73 29.5 134.5t80 102.5t113 66.5 t131.5 34.5l57 268q9 44 47 123l-8 2q-41 -55 -119 -55q-62 0 -108.5 45.5t-46.5 111.5q0 95 65 156t168 61q73 0 122.5 -43t49.5 -112q0 -11 -4 -39l-110 -518q146 -13 259.5 -103.5t161.5 -226.5h11l219 1026h110zM549 1044q0 36 -22 58t-58 22q-52 0 -86.5 -33t-34.5 -81 q0 -36 22 -58t58 -22q47 0 84 33t37 81z" />
<glyph unicode="&#xe22;" horiz-adv-x="1206" d="M930 0h-821l81 389q15 74 62.5 131t116.5 78v8q-83 28 -128.5 86.5t-45.5 159.5q0 154 103 258t263 104q92 0 142.5 -46.5t50.5 -118.5q0 -95 -65 -154t-165 -59q-78 0 -122 45t-44 106q0 34 15 64l-6 4q-31 -34 -49.5 -91.5t-18.5 -109.5q0 -88 59 -141.5t160 -53.5h131 l-20 -104h-131q-79 0 -130 -46.5t-67 -121.5l-57 -276h598l233 1087h111zM649 1032q0 38 -23 63t-63 25q-52 0 -82 -29.5t-30 -76.5q0 -35 25.5 -60.5t62.5 -25.5q49 0 79.5 29t30.5 75z" />
<glyph unicode="&#xe23;" horiz-adv-x="985" d="M563 311l8 2q-2 14 -2 41q0 30 9 76l49 244q2 8 2 22q0 49 -56 49h-411l24 119q31 150 154 250t319 100q175 0 275 -75.5t100 -182.5q0 -17 -4 -45l-6 -28h-119l6 24q4 24 4 37q0 72 -69.5 119t-192.5 47q-140 0 -233 -67t-113 -166l-6 -33h285q75 0 115 -33.5t40 -93.5 q0 -15 -4 -43l-104 -496q-18 -88 -79 -137t-146 -49q-76 0 -126.5 45.5t-50.5 116.5q0 94 64.5 152.5t155.5 58.5q73 0 112 -54zM532 193q0 36 -22 59.5t-59 23.5q-50 0 -84.5 -31.5t-34.5 -78.5q0 -35 24.5 -59.5t61.5 -24.5q50 0 82 31t32 80z" />
<glyph unicode="&#xe24;" horiz-adv-x="1228" d="M451 193q0 37 -22 60t-60 23q-50 0 -84.5 -30.5t-34.5 -79.5q0 -36 24 -60t60 -24q50 0 83.5 32t33.5 79zM836 -575h-111l291 1372q10 55 10 92q0 108 -71 166.5t-216 58.5q-115 0 -212 -37.5t-167 -95.5v-6q68 -6 143.5 -34.5t121.5 -63.5l-13 -46 q-100 -11 -170.5 -75.5t-93.5 -169.5l-33 -150q-17 -70 -45 -123l9 -2q14 21 46.5 36t71.5 15q65 0 110.5 -43t45.5 -116q0 -92 -66.5 -151.5t-162.5 -59.5q-78 0 -128.5 41.5t-50.5 107.5q0 7 5 37l88 408q21 96 81.5 167.5t137.5 100.5l2 8q-79 43 -246 43l14 66 q81 108 220.5 175.5t312.5 67.5q186 0 282.5 -80.5t96.5 -224.5q0 -49 -13 -112z" />
<glyph unicode="&#xe25;" horiz-adv-x="1243" d="M969 0h-123q2 25 2 76q0 193 -55.5 412.5t-124.5 299.5q-140 -102 -248 -228t-154 -247l2 -4q6 6 17.5 15t45 23.5t66.5 14.5q70 0 109 -42.5t39 -108.5q0 -96 -72.5 -161.5t-169.5 -65.5q-77 0 -122.5 46.5t-45.5 131.5q0 110 52 226.5t173 251.5t306 269h32 q101 -103 159.5 -289.5t70.5 -381.5l8 4q0 104 29 245l63 291q8 39 8 80q0 115 -77.5 182.5t-223.5 67.5q-100 0 -184.5 -31t-152.5 -104t-93 -182l-16 -70h-109l15 70q40 197 184 310t366 113q190 0 297 -91t107 -240q0 -40 -10 -95zM444 188q0 36 -22 58t-60 22 q-47 0 -82.5 -33t-35.5 -81q0 -36 22 -58t58 -22q50 0 85 33.5t35 80.5z" />
<glyph unicode="&#xe26;" horiz-adv-x="1337" d="M944 -575h-110l292 1372q11 60 11 92q0 108 -71 166.5t-216 58.5q-115 0 -212 -37.5t-167 -95.5v-6q69 -6 149 -35t125 -63l-12 -46q-192 -20 -241 -245l-89 -408q-20 -88 -82 -137t-147 -49q-75 0 -123.5 45t-48.5 117q0 94 64 152.5t155 58.5q74 0 113 -54l8 2 q-2 14 -2 43q0 39 8 80l33 150q22 100 72.5 170.5t124.5 97.5l2 8q-39 21 -112.5 32t-143.5 11l14 66q81 109 216.5 176t307.5 67q188 0 287.5 -81t99.5 -228q0 -49 -12 -108zM303 193q0 36 -22.5 59.5t-59.5 23.5q-50 0 -84.5 -31.5t-34.5 -78.5q0 -35 24.5 -59.5 t61.5 -24.5q50 0 82.5 31t32.5 80z" />
<glyph unicode="&#xe27;" horiz-adv-x="1081" d="M778 311l8 2q-2 14 -2 41q0 30 9 76l86 414q6 30 6 61q0 95 -64 150t-178 55q-133 0 -231 -81t-127 -214l-17 -72h-110l18 82q38 170 167 279.5t310 109.5q157 0 250.5 -80.5t93.5 -211.5q0 -43 -8 -82l-141 -662q-18 -88 -79 -137t-146 -49q-76 0 -126.5 45.5 t-50.5 116.5q0 94 64.5 152.5t155.5 58.5q73 0 112 -54zM748 193q0 36 -22.5 59.5t-59.5 23.5q-50 0 -84.5 -31.5t-34.5 -78.5q0 -35 24.5 -59.5t61.5 -24.5q50 0 82.5 31t32.5 80z" />
<glyph unicode="&#xe28;" horiz-adv-x="1339" d="M1067 0h-111l158 743q10 58 10 99q0 127 -75 196q-87 -84 -193 -166q74 -43 74 -133q0 -96 -64.5 -157.5t-167.5 -61.5q-60 0 -100.5 32t-42.5 71h-4q-15 -72 -45 -123l-281 -500h-116l153 717q22 102 69 190.5t117 157.5t169 109t214 40q127 0 220 -49q72 77 149 189 l80 -39q-66 -103 -158 -201q115 -103 115 -272q0 -44 -10 -99zM221 141l10 -4q88 210 138 301l161 289q88 158 224 166q106 83 221 194q-69 27 -152 27q-174 0 -294.5 -111.5t-157.5 -285.5l-66 -305q-32 -152 -84 -271zM831 725q0 36 -21.5 58t-57.5 22q-48 0 -83.5 -33.5 t-35.5 -83.5q0 -34 21.5 -56t56.5 -22q53 0 86.5 32.5t33.5 82.5z" />
<glyph unicode="&#xe29;" horiz-adv-x="1404" d="M934 772q0 32 -22 56t-56 24q-42 0 -75 -30.5t-33 -73.5q0 -32 22.5 -55t54.5 -23q47 0 78 29.5t31 72.5zM1053 0h-942l22 111h139l142 659q3 15 7 28.5t10 27t10 22t11.5 24t10.5 21.5l-8 2q-41 -55 -119 -55q-62 0 -109 45.5t-47 111.5q0 94 65 155.5t169 61.5 q73 0 120.5 -42.5t47.5 -110.5q0 -13 -4 -41l-195 -909h582l86 397q-27 -4 -80 -4q-155 0 -239.5 63.5t-84.5 159.5q0 87 61.5 151t159.5 64q69 0 114.5 -44t45.5 -107q0 -60 -43.5 -109.5t-105.5 -69.5l-2 -6q47 -14 106 -14q43 0 86 6l129 600h111l-121 -563 q147 69 192 258l6 27h105l-8 -46q-23 -124 -109 -212.5t-209 -124.5zM483 1044q0 36 -22 58t-58 22q-52 0 -86 -33t-34 -81q0 -36 21.5 -58t57.5 -22q47 0 84 33t37 81z" />
<glyph unicode="&#xe2a;" horiz-adv-x="1251" d="M975 0h-123q2 23 2 72q0 194 -57.5 415t-128.5 301q-140 -102 -248 -228t-154 -247l2 -4q6 6 17.5 15t45 23.5t66.5 14.5q70 0 109 -42.5t39 -108.5q0 -96 -72.5 -161.5t-169.5 -65.5q-77 0 -122.5 46.5t-45.5 131.5q0 110 52 226.5t173 251.5t306 269q114 84 208 178 q-68 21 -135 21q-74 0 -141 -18t-126.5 -55t-103.5 -99.5t-63 -144.5l-16 -70h-109l15 70q40 197 186.5 310t368.5 113q121 0 211 -38q79 88 137 178l84 -39q-50 -85 -142 -187q115 -92 115 -247q0 -41 -10 -93zM934 238l8 4q0 104 29 245l63 291q8 36 8 78q0 122 -84 188 q-113 -106 -219 -186q83 -111 133.5 -280.5t61.5 -339.5zM444 188q0 36 -22 58t-60 22q-47 0 -82.5 -33t-35.5 -81q0 -36 22 -58t58 -22q50 0 85 33.5t35 80.5z" />
<glyph unicode="&#xe2b;" horiz-adv-x="1327" d="M1051 864q72 58 99.5 91.5t27.5 80.5q0 34 -24 58t-64 24q-60 0 -92.5 -33.5t-32.5 -83.5q0 -66 86 -137zM1049 0h-113l129 602q4 16 4 47q0 56 -33 82l-671 -731h-117l166 770q3 15 7 28.5t10 27t10 22t11.5 24t10.5 21.5l-8 2q-41 -55 -119 -55q-62 0 -109 45.5 t-47 111.5q0 94 65 155.5t169 61.5q73 0 121.5 -42.5t48.5 -110.5q0 -13 -4 -41l-142 -670q-30 -141 -63 -217h8q15 28 56 81.5t77 92.5l453 488q-51 45 -80 90.5t-29 103.5q0 95 67 159t167 64q95 0 140.5 -48.5t45.5 -125.5q0 -56 -41 -110.5t-119 -122.5q68 -68 68 -133 q0 -11 -4 -39zM483 1044q0 36 -22 58t-58 22q-52 0 -86 -33t-34 -81q0 -36 21.5 -58t57.5 -22q47 0 84 33t37 81z" />
<glyph unicode="&#xe2c;" horiz-adv-x="1449" d="M1366 1425q6 24 6 43q0 54 -43 82.5t-112 28.5q-84 0 -139.5 -29.5t-55.5 -64.5q0 -36 54 -59t147 -23q66 0 143 22zM1171 0h-100l-149 1012l-549 -1012h-123l166 770q9 44 47 123l-8 2q-41 -55 -119 -55q-62 0 -109 45.5t-47 111.5q0 94 65 155.5t169 61.5 q73 0 121.5 -42.5t48.5 -110.5q0 -13 -4 -41l-111 -518q-19 -88 -78 -273l12 -2q16 50 59 144t66 135l365 661h100l109 -661q18 -129 18 -238q0 -7 -1 -21t-1 -20l12 2q2 12 8.5 74t13.5 112t15 87l179 823q-81 -20 -160 -20q-117 0 -199 51t-82 119q0 81 84.5 139.5 t231.5 58.5q115 0 190.5 -52.5t75.5 -133.5q64 40 115.5 87.5t71.5 74t20 30.5q0 1 21.5 -13t42.5 -28l22 -14q-149 -183 -318 -258zM483 1044q0 36 -22 58t-58 22q-52 0 -86 -33t-34 -81q0 -36 21.5 -58t57.5 -22q47 0 84 33t37 81z" />
<glyph unicode="&#xe2d;" horiz-adv-x="1228" d="M956 0h-776l142 666q20 92 85 145t150 53q76 0 125 -43t49 -114q0 -96 -62 -157t-153 -61q-45 0 -75.5 15.5t-41.5 40.5l-8 -2q2 -12 2 -35q0 -44 -10 -88l-68 -309h553l144 667q10 48 10 82q0 113 -78.5 180.5t-232.5 67.5q-171 0 -293.5 -84t-151.5 -221l-12 -60h-113 l13 60q37 177 189.5 294t379.5 117q199 0 304.5 -96t105.5 -246q0 -36 -11 -96zM629 690q0 37 -23 60.5t-61 23.5q-49 0 -82 -31.5t-33 -78.5q0 -36 23 -60t59 -24q53 0 85 31t32 79z" />
<glyph unicode="&#xe2e;" horiz-adv-x="1181" d="M903 0h-792l116 541q20 92 83.5 145t148.5 53q76 0 125 -43t49 -114q0 -96 -62 -156.5t-153 -60.5q-92 0 -117 55l-8 -2q2 -12 2 -35q0 -30 -10 -88l-39 -184h571l144 669q8 36 8 76q0 36 -6 66q-154 -101 -336 -101q-166 0 -262.5 49t-96.5 123q0 91 107 156t295 65 q121 0 215 -32t143 -92q92 88 125 145l94 -53q-78 -102 -178 -185q14 -43 14 -104q0 -52 -12 -113zM928 1016q-77 96 -266 96q-95 0 -177 -35t-82 -80q0 -69 232 -69q78 0 157.5 22.5t135.5 65.5zM530 565q0 37 -23 60.5t-61 23.5q-49 0 -81.5 -31.5t-32.5 -78.5 q0 -36 23 -60t59 -24q53 0 84.5 31t31.5 79z" />
<glyph unicode="&#xe2f;" horiz-adv-x="1099" d="M827 0h-108l174 811q7 36 29 95t40 100l19 41l-10 4q-71 -142 -198 -234t-286 -92q-122 0 -198 76.5t-76 177.5q0 104 65.5 169.5t167.5 65.5q69 0 117.5 -44t48.5 -113q0 -93 -64 -147t-145 -54q-26 0 -47 6l-4 -4q41 -41 142 -41q143 0 272 110t209 271h110zM512 1042 q0 32 -18 54t-54 22q-54 0 -85 -32t-31 -72q0 -34 16.5 -57t52.5 -23q51 0 85 33.5t34 74.5z" />
<glyph unicode="&#xe30;" horiz-adv-x="1042" d="M1094 1182l-11 -47q-25 -114 -103.5 -200.5t-181 -128.5t-212.5 -42q-162 0 -248 65t-86 162q0 84 57 143.5t148 59.5q75 0 122.5 -43t47.5 -104t-44.5 -112t-105.5 -63v-4q30 -12 109 -12q157 0 261 74.5t132 204.5l10 47h105zM532 1030q0 32 -22 56t-57 24 q-41 0 -74 -30.5t-33 -73.5q0 -32 23 -55t55 -23q46 0 77 29.5t31 72.5zM938 457l-10 -47q-25 -114 -103.5 -200.5t-181.5 -128.5t-213 -42q-162 0 -248 65t-86 162q0 84 57 143.5t148 59.5q75 0 122.5 -43t47.5 -104t-44 -112t-105 -63v-4q30 -12 108 -12q157 0 261 74.5 t132 204.5l11 47h104zM377 305q0 32 -22.5 56t-57.5 24q-41 0 -74 -30.5t-33 -73.5q0 -32 23 -55t55 -23q46 0 77.5 29.5t31.5 72.5z" />
<glyph unicode="&#xe31;" horiz-adv-x="0" d="M444 1800l-6 -28q-26 -119 -114.5 -206t-204.5 -128t-244 -41q-177 0 -266.5 59.5t-89.5 153.5q0 86 55.5 143t149.5 57q65 0 109 -41t44 -100q0 -58 -38 -99t-101 -61l-2 -6q44 -14 141 -14q177 0 301.5 75t153.5 208l6 28h106zM-215 1655q0 30 -21 52t-51 22 q-42 0 -71 -28.5t-29 -70.5q0 -30 20.5 -49.5t51.5 -19.5q41 0 70.5 27t29.5 67z" />
<glyph unicode="&#xe32;" horiz-adv-x="1071" d="M797 0h-111l180 844q8 46 8 65q0 92 -63.5 144.5t-181.5 52.5q-132 0 -230 -79.5t-127 -211.5l-16 -72h-113l15 70q37 184 164.5 292.5t314.5 108.5q161 0 255.5 -79t94.5 -211q0 -41 -8 -80z" />
<glyph unicode="&#xe33;" horiz-adv-x="1071" d="M229 1722q0 -104 -76 -176.5t-186 -72.5q-89 0 -140.5 58t-51.5 138q0 104 77 177t187 73q85 0 137.5 -58.5t52.5 -138.5zM137 1714q0 50 -29 83.5t-81 33.5q-64 0 -113 -44.5t-49 -111.5q0 -49 34 -81.5t81 -32.5q63 0 110 42.5t47 110.5zM797 0h-111l180 844q8 46 8 65 q0 92 -63.5 144.5t-181.5 52.5q-132 0 -230 -79.5t-127 -211.5l-16 -72h-113l15 70q37 184 164.5 292.5t314.5 108.5q161 0 255.5 -79t94.5 -211q0 -41 -8 -80z" />
<glyph unicode="&#xe34;" horiz-adv-x="0" d="M31 1389h-8q-206 124 -508 124q-214 0 -406 -28h-18q53 158 202 262t334 104q188 0 301 -100t113 -262q0 -56 -10 -100zM-45 1516q-8 41 -30.5 80t-61.5 76.5t-104 60t-146 22.5q-131 0 -222.5 -50.5t-146.5 -119.5q106 27 297 27q265 0 414 -96z" />
<glyph unicode="&#xe35;" horiz-adv-x="0" d="M31 1389h-8q-206 124 -506 124q-216 0 -408 -28h-18q53 158 202 262t334 104q202 0 312 -110q18 -18 34.5 -56t22.5 -71l8 2q-2 12 -2 43q0 63 18 162l31 149h105zM-45 1516q-8 41 -30.5 80t-61.5 76.5t-104 60t-146 22.5q-131 0 -222.5 -50.5t-146.5 -119.5 q106 27 297 27q265 0 414 -96z" />
<glyph unicode="&#xe36;" horiz-adv-x="0" d="M31 1389h-8q-206 124 -506 124q-216 0 -408 -28h-18q53 158 201.5 262t332.5 104q101 0 166 -26q28 66 88.5 109.5t126.5 43.5q69 0 109.5 -41.5t40.5 -105.5q0 -66 -42.5 -121t-107.5 -82q35 -68 35 -151q0 -36 -10 -88zM-45 1516q-8 41 -30.5 80t-61.5 76.5t-104 60 t-146 22.5q-131 0 -222.5 -50.5t-146.5 -119.5q106 27 297 27q265 0 414 -96zM-135 1794q68 -48 104 -100q46 11 75.5 44t29.5 79q0 37 -22.5 59t-63.5 22q-46 0 -80 -30t-43 -74z" />
<glyph unicode="&#xe37;" horiz-adv-x="0" d="M31 1389h-8q-206 124 -504 124q-218 0 -410 -28h-18q53 158 201.5 262t332.5 104q103 0 174 -24l31 143h102l-41 -188q87 -68 105 -168l8 2q-2 12 -2 43q0 63 18 162l31 149h105zM-45 1516q-8 41 -30.5 80t-61.5 76.5t-104 60t-146 22.5q-131 0 -222.5 -50.5 t-146.5 -119.5q106 27 297 27q265 0 414 -96z" />
<glyph unicode="&#xe38;" horiz-adv-x="0" d="M-432 -711h-103l29 133q11 52 43 115l-8 2q-31 -53 -102 -53q-59 0 -100.5 40t-41.5 107q0 83 58 137t149 54q66 0 112 -41t46 -102q0 -11 -4 -31zM-446 -328q0 30 -19 50t-49 20q-44 0 -75.5 -29.5t-31.5 -72.5q0 -30 19 -50t51 -20q42 0 73.5 30t31.5 72z" />
<glyph unicode="&#xe39;" horiz-adv-x="0" d="M-432 -711h-461l23 93h90l8 40q11 52 43 115l-8 2q-31 -53 -103 -53q-59 0 -100 40t-41 107q0 83 58 137t149 54q66 0 112 -41t46 -102q0 -6 -5 -31l-55 -268h162l90 432h105zM-713 -328q0 30 -18.5 50t-48.5 20q-44 0 -75.5 -29.5t-31.5 -72.5q0 -30 19 -50t51 -20 q42 0 73 30t31 72z" />
<glyph unicode="&#xe3a;" horiz-adv-x="0" d="M-254 -299q0 -69 -57 -121.5t-127 -52.5q-53 0 -86 34.5t-33 86.5q0 70 56 123t126 53q53 0 87 -35.5t34 -87.5z" />
<glyph unicode="&#xe3f;" horiz-adv-x="1081" d="M461 -133h-96l28 133h-340l301 1403h340l15 65h96l-14 -65q140 -2 230.5 -79t90.5 -210q0 -143 -90 -244.5t-234 -134.5l-2 -4q105 -20 161.5 -90.5t56.5 -179.5q0 -66 -18.5 -130t-59 -124.5t-99.5 -106t-146 -73t-192 -27.5zM631 659l-115 -538q176 14 263 94t87 238 q0 98 -60.5 146.5t-174.5 59.5zM418 117l119 551q-25 2 -74 2h-137l-121 -553h213zM563 786l107 502h-213l-107 -502h213zM764 1284l-107 -496q139 13 228.5 90t89.5 216q0 172 -211 190z" />
<glyph unicode="&#xe40;" horiz-adv-x="643" d="M158 178l219 1020h110l-163 -762q-12 -62 -45 -123l8 -2q14 21 46.5 36t72.5 15q65 0 110 -43t45 -116q0 -92 -66.5 -151.5t-162.5 -59.5q-78 0 -128 41.5t-50 107.5q0 13 4 37zM459 193q0 37 -22 60t-60 23q-50 0 -84.5 -30.5t-34.5 -79.5q0 -36 24 -60t60 -24 q50 0 83.5 32t33.5 79z" />
<glyph unicode="&#xe41;" horiz-adv-x="1206" d="M158 178l219 1020h110l-163 -762q-12 -62 -45 -123l8 -2q14 21 46.5 36t72.5 15q65 0 110 -43t45 -116q0 -92 -66.5 -151.5t-162.5 -59.5q-78 0 -128 41.5t-50 107.5q0 13 4 37zM459 193q0 37 -22 60t-60 23q-50 0 -84.5 -30.5t-34.5 -79.5q0 -36 24 -60t60 -24 q50 0 83.5 32t33.5 79zM723 178l219 1020h111l-164 -762q-12 -62 -45 -123l8 -2q14 21 46.5 36t72.5 15q65 0 110 -43t45 -116q0 -92 -66.5 -151.5t-162.5 -59.5q-78 0 -128 41.5t-50 107.5q0 13 4 37zM1024 193q0 37 -22 60t-60 23q-50 0 -84.5 -30.5t-34.5 -79.5 q0 -36 24 -60t60 -24q50 0 83.5 32t33.5 79z" />
<glyph unicode="&#xe42;" horiz-adv-x="800" d="M305 178l254 1178q6 27 6 47q0 31 -15.5 47.5t-51.5 32.5l-289 123l8 47q25 143 163 237.5t329 94.5q189 0 300 -80t111 -187q0 -13 -4 -37l-6 -28h-121l6 24q4 16 4 29q0 71 -80.5 123.5t-218.5 52.5q-131 0 -232.5 -61t-129.5 -154l-2 -6l227 -96q59 -25 86 -56t27 -86 q0 -33 -8 -69l-197 -918q-12 -62 -45 -123l8 -2q14 21 46.5 36t72.5 15q65 0 110.5 -43t45.5 -116q0 -92 -67 -151.5t-163 -59.5q-78 0 -128 41.5t-50 107.5q0 13 4 37zM606 193q0 37 -22 60t-60 23q-50 0 -84 -30.5t-34 -79.5q0 -36 23.5 -60t59.5 -24q50 0 83.5 32 t33.5 79z" />
<glyph unicode="&#xe43;" horiz-adv-x="800" d="M324 178l235 1098q11 49 42.5 101.5t68.5 97.5t72.5 89t59 91t23.5 88q0 61 -53 102t-137 41q-54 0 -108.5 -20.5t-84.5 -50.5l-2 -7h19q82 0 125 -49t43 -112q0 -95 -64 -151t-149 -56q-89 0 -141 47.5t-52 134.5q0 143 126 253t294 110q136 0 215.5 -68t79.5 -174 q0 -47 -23.5 -95.5t-58.5 -92.5t-71.5 -87t-68 -95.5t-42.5 -102.5l-180 -834q-14 -61 -48 -123l9 -2q14 21 46.5 36t71.5 15q65 0 110.5 -43t45.5 -116q0 -92 -66.5 -151.5t-162.5 -59.5q-78 0 -128.5 41.5t-50.5 107.5q0 7 5 37zM526 1642q0 36 -24.5 61.5t-63.5 25.5 q-50 0 -83 -33t-33 -82q0 -34 25 -59t61 -25q50 0 84 31.5t34 80.5zM625 193q0 37 -22 60t-60 23q-50 0 -84.5 -30.5t-34.5 -79.5q0 -36 24 -60t60 -24q50 0 83.5 32t33.5 79z" />
<glyph unicode="&#xe44;" horiz-adv-x="821" d="M344 178l303 1417q13 66 41.5 145t50.5 111l-8 4q-38 -58 -48 -73t-46 -66t-58.5 -75.5t-62 -66.5t-82.5 -76t-94 -68h-102l51 239q16 71 16 139q0 118 -72 203l84 45q37 -49 58.5 -102.5t21.5 -134.5q0 -74 -16 -150l-27 -123q188 137 355 432h133l-332 -1542 q-12 -62 -45 -123l8 -2q14 21 46.5 36t72.5 15q65 0 110.5 -43t45.5 -116q0 -92 -67 -151.5t-163 -59.5q-78 0 -128 41.5t-50 107.5q0 13 4 37zM645 193q0 37 -22 60t-60 23q-50 0 -84.5 -30.5t-34.5 -79.5q0 -36 24 -60t60 -24q50 0 83.5 32t33.5 79z" />
<glyph unicode="&#xe45;" horiz-adv-x="1071" d="M674 -575h-111l303 1419q8 46 8 65q0 92 -63.5 144.5t-181.5 52.5q-132 0 -230 -79.5t-127 -211.5l-16 -72h-113l15 70q37 184 164.5 292.5t314.5 108.5q161 0 255.5 -79t94.5 -211q0 -41 -8 -80z" />
<glyph unicode="&#xe46;" horiz-adv-x="1126" d="M731 -575h-110l356 1662h-19q-85 0 -133.5 -40t-62.5 -109l-6 -29h-113l6 23q6 27 6 51q0 61 -39.5 97t-107.5 36q-81 0 -121 -37v-6q83 -1 123.5 -45t40.5 -106q0 -96 -61.5 -151.5t-157.5 -55.5q-73 0 -123.5 45t-50.5 133q0 137 98 229t254 92q184 0 227 -131 q34 57 101 86t147 29h127zM451 911q0 34 -24.5 57t-59.5 23q-49 0 -79 -30t-30 -80q0 -34 24 -56t60 -22q50 0 79.5 29.5t29.5 78.5z" />
<glyph unicode="&#xe47;" horiz-adv-x="0" d="M-256 1473v4q-23 24 -23 67q0 63 42 104.5t110 41.5q58 0 95.5 -34.5t37.5 -84.5q0 -79 -55.5 -126.5t-136.5 -47.5q-90 0 -155 36.5t-89 96.5q-55 -48 -94 -131h-33q-49 32 -84 86.5t-35 122.5q0 52 15.5 100t48.5 90.5t93 68t140 25.5h238q118 0 194 95l60 -72 q-98 -113 -265 -113h-231q-91 0 -140.5 -51.5t-49.5 -128.5q0 -30 8.5 -57.5t16.5 -39.5l9 -12q19 35 57 76.5t70 61.5h17q0 -58 43.5 -112.5t95.5 -65.5zM-74 1561q0 25 -15.5 41t-41.5 16q-30 0 -52 -20.5t-22 -49.5q0 -23 18 -40t44 -17q31 0 50 18.5t19 51.5z" />
<glyph unicode="&#xe48;" horiz-adv-x="0" d="M176 2107h-102l73 342h103z" />
<glyph unicode="&#xe49;" horiz-adv-x="0" d="M459 2503l-6 -25q-23 -90 -81.5 -164t-133.5 -118.5t-155 -68.5t-153 -24q-88 0 -168 15l9 57q126 37 190 109l-4 4q-13 -13 -47 -13q-45 0 -78 34.5t-33 86.5q0 67 45.5 108.5t108.5 41.5q61 0 100 -37t39 -94q0 -82 -57.5 -146t-132.5 -92q148 0 279.5 84.5 t164.5 216.5l6 25h107zM12 2417q0 22 -16 39.5t-43 17.5q-35 0 -54.5 -20.5t-19.5 -49.5q0 -22 15 -39.5t40 -17.5q39 0 58.5 20t19.5 50z" />
<glyph unicode="&#xe4a;" horiz-adv-x="0" d="M-119 2238q0 21 -13.5 36.5t-39.5 15.5q-32 0 -49 -18.5t-17 -45.5q0 -20 14.5 -35.5t39.5 -15.5q32 0 48.5 18t16.5 45zM485 2509l-6 -23q-48 -182 -162 -277t-311 -95l14 59q64 24 107 73.5t43 120.5q0 36 -16.5 57t-44.5 21q-32 0 -61.5 -20t-45.5 -47h-53 q-15 69 -82 69q-34 0 -61 -17.5t-41.5 -43t-21.5 -49t-7 -41.5l4 -2q33 65 108 65q50 0 83.5 -31.5t33.5 -80.5q0 -68 -40 -105t-107 -37t-115.5 51.5t-48.5 124.5q0 97 57.5 170.5t155.5 73.5q47 0 76.5 -24.5t40.5 -55.5q21 31 60.5 55.5t88.5 24.5q45 0 83 -31.5 t38 -95.5q0 -62 -29 -116t-75 -84q45 12 80 34t57 46t40.5 61.5t29 68.5t22.5 78l6 23h100z" />
<glyph unicode="&#xe4b;" horiz-adv-x="0" d="M379 2275h-162l-35 -168h-96l35 168h-162l18 86h162l37 166h96l-36 -166h161z" />
<glyph unicode="&#xe4c;" horiz-adv-x="0" d="M477 2460l29 -80q-104 -49 -233 -82.5t-232 -38.5v-4q43 -5 74.5 -39t31.5 -84q0 -76 -51.5 -121t-126.5 -45q-67 0 -106 39.5t-39 99.5q0 58 37 108.5t98 80.5q67 34 237.5 73t280.5 93zM-23 2036q47 0 68 26.5t21 63.5q0 28 -21 48.5t-57 20.5q-42 0 -63 -26.5 t-21 -65.5q0 -29 20 -48t53 -19z" />
<glyph unicode="&#xe4d;" horiz-adv-x="0" d="M229 1722q0 -104 -76 -176.5t-186 -72.5q-89 0 -140.5 58t-51.5 138q0 104 77 177t187 73q85 0 137.5 -58.5t52.5 -138.5zM137 1714q0 50 -29 83.5t-81 33.5q-64 0 -113 -44.5t-49 -111.5q0 -49 34 -81.5t81 -32.5q63 0 110 42.5t47 110.5z" />
<glyph unicode="&#xe4e;" horiz-adv-x="0" d="M-23 1489l31 -66q-56 -39 -119 -39q-71 0 -109 34.5t-38 80.5q0 66 46 114t130 68q-31 12 -31 60q0 71 64.5 112t177.5 41q91 0 139 -26l-37 -70q-47 21 -100 21q-65 0 -105 -22.5t-40 -65.5q0 -41 63 -41h80l-37 -76h-123q-47 0 -83 -25.5t-36 -64.5q0 -25 16 -40.5 t42 -15.5q42 0 69 21z" />
<glyph unicode="&#xe4f;" horiz-adv-x="980" d="M688 573q0 -76 -60.5 -132t-138.5 -56q-56 0 -92.5 37.5t-36.5 93.5q0 76 60.5 133.5t136.5 57.5q58 0 94.5 -38t36.5 -96zM858 600q0 117 -73.5 194.5t-190.5 77.5q-102 0 -195 -53.5t-149.5 -143t-56.5 -188.5q0 -114 73 -190t189 -76q102 0 195 52t150.5 140t57.5 187 zM909 610q0 -117 -67 -218.5t-174.5 -159.5t-225.5 -58q-132 0 -215.5 86.5t-83.5 218.5q0 116 65.5 218.5t172.5 162.5t223 60q135 0 220 -89t85 -221z" />
<glyph unicode="&#xe50;" horiz-adv-x="1392" d="M1141 575q0 141 -94 227.5t-246 86.5q-132 0 -247 -65t-185 -180.5t-70 -252.5q0 -141 93 -226t245 -85q131 0 246.5 64.5t186.5 179.5t71 251zM1249 586q0 -117 -49.5 -228t-133 -194t-199.5 -133.5t-242 -50.5q-193 0 -315 113t-122 290q0 116 50 227t133 194.5 t199 134t241 50.5q194 0 316 -113.5t122 -289.5z" />
<glyph unicode="&#xe51;" horiz-adv-x="1427" d="M748 -190l-46 84q465 227 465 628q0 165 -97 265t-259 100q-142 0 -262.5 -69.5t-189 -186.5t-68.5 -252q0 -79 23 -139.5t59.5 -94.5t76 -50.5t78.5 -16.5q69 0 99 12l-2 4q-66 2 -115 50t-49 118q0 87 69 152t170 65q90 0 140.5 -50.5t50.5 -129.5 q0 -130 -103.5 -220.5t-250.5 -90.5q-63 0 -125 25t-114 71.5t-84 123.5t-32 171q0 122 47.5 233.5t130 194.5t203 132.5t258.5 49.5q204 0 329.5 -123.5t125.5 -324.5q0 -465 -528 -731zM795 297q0 38 -27 67t-72 29q-61 0 -97 -40t-36 -91q0 -38 27 -67t72 -29 q62 0 97.5 40t35.5 91z" />
<glyph unicode="&#xe52;" horiz-adv-x="1642" d="M1116 0h-979l234 1094q8 33 8 71q0 105 -84 142l80 90q114 -61 114 -213q0 -45 -8 -84l-215 -1000h864q72 0 109.5 31.5t54.5 106.5l99 460q10 48 10 80q0 105 -90 105q-63 0 -117.5 -51t-89.5 -119h-55q-5 69 -48.5 119.5t-128.5 50.5q-60 0 -109.5 -26.5t-79.5 -65 t-50.5 -85.5t-28.5 -86.5t-8 -68.5t4 -45l6 2q15 78 74.5 130t140.5 52q73 0 127 -47t54 -123q0 -109 -74 -169t-178 -60q-107 0 -180.5 70t-73.5 186q0 55 14.5 113.5t46 117t75.5 104.5t110 74.5t143 28.5q82 0 136.5 -39.5t74.5 -91.5q37 53 99.5 92t135.5 39 q79 0 128.5 -45.5t49.5 -140.5q0 -50 -10 -94l-102 -472q-27 -123 -95.5 -178t-187.5 -55zM907 506q0 43 -29 69.5t-69 26.5q-51 0 -95 -38.5t-44 -100.5q0 -43 29 -66.5t69 -23.5q54 0 96.5 35.5t42.5 97.5z" />
<glyph unicode="&#xe53;" horiz-adv-x="1646" d="M1354 0h-107l144 666q10 55 10 88q0 131 -129 131q-99 0 -174.5 -81t-106.5 -222l-125 -582h-108l125 582q12 58 12 106q0 95 -47.5 146t-138.5 51q-92 0 -172 -53.5t-131.5 -138.5t-81 -187.5t-29.5 -202.5q0 -79 6 -106l6 2q18 80 74 129t139 49q78 0 130 -44.5 t52 -123.5q0 -110 -71 -169.5t-166 -59.5q-116 0 -194 88.5t-78 250.5q0 91 22 184t66.5 179.5t106 154t147.5 108t184 40.5q114 0 177 -61t75 -146q45 83 130.5 145t186.5 62t160 -54.5t59 -158.5q0 -52 -10 -96zM604 195q0 44 -27.5 70t-72.5 26q-53 0 -94 -34t-41 -97 q0 -42 29.5 -68t68.5 -26q55 0 96 33.5t41 95.5z" />
<glyph unicode="&#xe54;" horiz-adv-x="1486" d="M1284 0h-639q-127 0 -229 43.5t-166 137.5t-64 225q0 260 172.5 413.5t477.5 153.5h344q135 0 234 49.5t179 163.5l68 -60q-178 -252 -490 -252h-344q-248 0 -389 -120.5t-141 -339.5q0 -84 29.5 -148t80.5 -102t114 -57t134 -19h140l2 4q-75 28 -128 110t-53 191 q0 136 79 214.5t196 78.5q80 0 133 -47t53 -127q0 -109 -69 -165t-168 -56q-39 0 -75.5 16.5t-51.5 36.5l-4 -4q6 -39 29 -79t62.5 -78.5t104.5 -62.5t144 -24h254zM981 508q0 44 -27.5 70t-72.5 26q-56 0 -99 -36.5t-43 -98.5q0 -43 30 -70.5t71 -27.5q59 0 100 36.5 t41 100.5z" />
<glyph unicode="&#xe55;" horiz-adv-x="1505" d="M901 995q71 23 117.5 75.5t46.5 119.5q0 43 -27.5 69.5t-83.5 26.5q-77 0 -118 -41.5t-41 -107.5q0 -48 28 -86.5t78 -55.5zM1284 0h-639q-94 0 -176 25.5t-145.5 75t-100.5 128t-37 177.5q0 87 21.5 161.5t56 128t85 98t101.5 73t112.5 50.5t111.5 34t104 20 q-41 22 -64.5 69t-23.5 97q0 99 73.5 166t199.5 67q91 0 148.5 -48.5t57.5 -125.5q0 -75 -50.5 -134.5t-117.5 -92.5q66 -17 162 -17q152 0 260 57.5t189 176.5l69 -60q-189 -264 -522 -264q-155 0 -282 51q-51 -9 -87 -16.5t-87.5 -21t-88.5 -27.5t-82 -36.5t-76.5 -48 t-63.5 -61.5t-51.5 -77.5t-31.5 -96t-12 -116.5q0 -67 19.5 -121.5t53.5 -91.5t80 -62.5t98 -37t109 -11.5h138l2 4q-75 28 -128 110t-53 191q0 136 79 214.5t196 78.5q80 0 133 -47t53 -127q0 -109 -69 -165t-168 -56q-39 0 -75.5 16.5t-51.5 36.5l-4 -4q6 -39 29 -79 t62.5 -78.5t104.5 -62.5t144 -24h254zM981 508q0 44 -27.5 70t-72.5 26q-56 0 -99 -36.5t-43 -98.5q0 -43 30 -70.5t71 -27.5q59 0 100 36.5t41 100.5z" />
<glyph unicode="&#xe56;" horiz-adv-x="1398" d="M422 154l-4 -7q27 -27 79 -46t121 -19q87 0 164 17.5t145 56t117 95.5t77 140.5t28 186.5q0 136 -78 220.5t-237 84.5q-262 0 -482 -226h-108l94 437q8 36 8 75q0 108 -80 144l70 84q57 -31 89 -87.5t32 -129.5q0 -41 -8 -80l-68 -316q37 36 60.5 56.5t69.5 51.5t88.5 48 t106 30t134.5 13q104 0 185.5 -32.5t132 -88.5t76.5 -127.5t26 -152.5q0 -126 -34 -227.5t-92 -169t-138.5 -112.5t-170 -65t-190.5 -20q-175 0 -293.5 91.5t-118.5 219.5q0 104 68.5 173t179.5 69q85 0 133.5 -51.5t48.5 -120.5q0 -103 -69 -159t-162 -56zM555 358 q0 38 -25.5 67.5t-70.5 29.5q-64 0 -100.5 -39t-36.5 -90q0 -38 27.5 -68.5t72.5 -30.5q61 0 97 40t36 91z" />
<glyph unicode="&#xe57;" horiz-adv-x="1746" d="M606 197q0 43 -28 68.5t-70 25.5q-52 0 -94.5 -35.5t-42.5 -93.5q0 -44 29.5 -70t70.5 -26q58 0 96.5 34t38.5 97zM1145 0h-168l143 666q17 76 17 114q0 105 -95 105q-69 0 -122.5 -62t-75.5 -164h-99q11 57 11 86q0 65 -29.5 102.5t-89.5 37.5q-97 0 -176 -75 t-122.5 -200.5t-43.5 -273.5q0 -108 8 -139l8 2q15 79 75 130.5t144 51.5q70 0 123.5 -45.5t53.5 -124.5q0 -111 -71 -172.5t-167 -61.5q-120 0 -199.5 99t-79.5 270q0 112 30 223.5t84.5 205t141.5 152t191 58.5q88 0 135 -48t47 -120q82 168 244 168q180 0 180 -190 q0 -44 -14 -119l-125 -580h63q96 0 156 52.5t82 150.5l170 795q8 33 8 71q0 109 -84 146l80 86q113 -63 113 -211q0 -29 -11 -86l-168 -799q-31 -150 -128.5 -225.5t-239.5 -75.5z" />
<glyph unicode="&#xe58;" horiz-adv-x="1505" d="M1092 86v6q-70 0 -120 43.5t-50 116.5q0 94 64.5 159.5t176.5 65.5q90 0 136.5 -52.5t46.5 -129.5q0 -135 -107 -224t-276 -89q-75 0 -140.5 28t-108 71.5t-67.5 92.5t-29 94h-6q-45 -43 -85 -126t-56 -148h-65q-88 47 -154 159.5t-66 254.5q0 173 83 302.5t223 196 t315 66.5h280q136 0 236 49.5t176 163.5l70 -60q-180 -252 -488 -252h-282q-145 0 -260.5 -55.5t-183.5 -163t-68 -249.5q0 -97 36.5 -169t86.5 -116h14q34 81 95 167t122 120h59v-15q0 -59 17.5 -115.5t51 -104.5t89.5 -77.5t127 -29.5q62 0 107 20zM1251 293 q0 43 -26 70.5t-72 27.5q-62 0 -97.5 -39t-35.5 -90q0 -38 26.5 -68t71.5 -30q63 0 98 37.5t35 91.5z" />
<glyph unicode="&#xe59;" horiz-adv-x="1591" d="M662 199q0 42 -28 67t-69 25q-55 0 -97 -34t-42 -97q0 -42 29.5 -68t68.5 -26q56 0 97 35t41 98zM1227 47l-64 -78q-64 26 -100 78t-55 141l-93 420q-8 37 -13 57t-16 54t-21.5 53.5t-28.5 44.5t-38.5 38t-50.5 22.5t-65 9.5q-76 0 -141 -36t-107.5 -92t-73 -125.5 t-44 -136t-13.5 -124.5q0 -129 43 -193l6 2q6 76 71.5 136.5t156.5 60.5q75 0 127.5 -45t52.5 -123q0 -111 -71.5 -171t-166.5 -60q-63 0 -121.5 26.5t-104.5 74.5t-73.5 123t-27.5 165q0 64 11.5 131.5t35 137.5t64 131.5t92.5 110t126 77t160 28.5q68 0 122.5 -21.5 t89 -59t56 -81t33.5 -96.5l4 2q11 105 79.5 181.5t176.5 76.5q74 0 129 -47t68 -127q84 22 110 152l27 129q8 50 8 69q0 111 -82 148l74 86q117 -63 117 -213q0 -34 -10 -86l-29 -133q-27 -122 -101 -194.5t-165 -72.5h-29q0 14 -2.5 33.5t-12 56.5t-35.5 61.5t-65 24.5 q-68 0 -115 -44.5t-66 -107t-19 -134.5q0 -63 10 -111l59 -264q25 -122 111 -166z" />
<glyph unicode="&#xe5b;" horiz-adv-x="2283" d="M2302 629h-238l-135 -230h-63q-7 183 -56 260l-165 -290h-91q6 78 -8 156t-39 122l-184 -307h-92q16 193 -64 322q-19 -102 -53.5 -193t-90 -173t-126.5 -141t-167 -93.5t-208 -34.5q-175 0 -283 108.5t-108 302.5q0 118 41.5 226t112 185.5t166.5 123t200 45.5 q145 0 221 -87.5t76 -217.5q0 -105 -55.5 -195.5t-141 -141t-176.5 -50.5q-78 0 -136 48t-58 126q0 57 23 102.5t59.5 72t77.5 40.5t82 14q80 0 128 -43t48 -106q0 -21 -2 -31l4 -2q43 67 43 170q0 88 -51.5 144.5t-147.5 56.5q-116 0 -210 -71.5t-142.5 -180t-48.5 -226.5 q0 -152 85 -232.5t216 -80.5q193 0 329.5 133.5t192.5 355.5q16 64 20 144h115q42 -53 69.5 -138.5t26.5 -160.5l181 299h67q32 -51 52.5 -136t13.5 -159l168 295h63q71 -114 68 -246l106 186h297zM715 545q0 43 -29 69.5t-72 26.5q-52 0 -92.5 -35t-40.5 -98 q0 -41 28.5 -67.5t65.5 -26.5q60 0 100 33.5t40 97.5z" />
<glyph unicode="&#x2000;" horiz-adv-x="1273" />
<glyph unicode="&#x2001;" horiz-adv-x="2546" />
<glyph unicode="&#x2002;" horiz-adv-x="1273" />
<glyph unicode="&#x2003;" horiz-adv-x="2546" />
<glyph unicode="&#x2004;" horiz-adv-x="848" />
<glyph unicode="&#x2005;" horiz-adv-x="636" />
<glyph unicode="&#x2006;" horiz-adv-x="424" />
<glyph unicode="&#x2007;" horiz-adv-x="424" />
<glyph unicode="&#x2008;" horiz-adv-x="318" />
<glyph unicode="&#x2009;" horiz-adv-x="509" />
<glyph unicode="&#x200a;" horiz-adv-x="141" />
<glyph unicode="&#x2010;" horiz-adv-x="681" d="M621 477h-510l24 111h510z" />
<glyph unicode="&#x2011;" horiz-adv-x="681" d="M621 477h-510l24 111h510z" />
<glyph unicode="&#x2012;" horiz-adv-x="681" d="M621 477h-510l24 111h510z" />
<glyph unicode="&#x2013;" horiz-adv-x="1024" d="M1051 487h-1024l20 91h1024z" />
<glyph unicode="&#x2014;" horiz-adv-x="2048" d="M2075 487h-2048l20 91h2048z" />
<glyph unicode="&#x2018;" horiz-adv-x="454" d="M440 1008h-176l41 184l197 307h80l-187 -307h86z" />
<glyph unicode="&#x2019;" horiz-adv-x="454" d="M340 987h-80l186 307h-86l41 185h177l-41 -185z" />
<glyph unicode="&#x201a;" horiz-adv-x="454" d="M53 -307h-80l187 307h-86l41 184h176l-41 -184z" />
<glyph unicode="&#x201c;" horiz-adv-x="909" d="M516 1008h-176l41 184l197 307h79l-186 -307h86zM858 1008h-176l41 184l197 307h79l-186 -307h86z" />
<glyph unicode="&#x201d;" horiz-adv-x="909" d="M719 987h-80l186 307h-86l41 185h176l-41 -185zM377 987h-80l186 307h-86l41 185h176l-41 -185z" />
<glyph unicode="&#x201e;" horiz-adv-x="909" d="M432 -307h-80l187 307h-86l41 184h176l-41 -184zM90 -307h-80l187 307h-86l41 184h176l-41 -184z" />
<glyph unicode="&#x2020;" horiz-adv-x="1024" d="M422 -164h-57l143 828l117 362l-320 -37l29 127l303 -35l63 418h123l-121 -418l320 35l-29 -127l-303 37l-43 -362z" />
<glyph unicode="&#x2021;" horiz-adv-x="1024" d="M455 -164h-123l121 418l-318 -35l27 127l303 -37l43 359l117 358l-320 -37l29 127l303 -35l63 418h123l-121 -418l320 35l-29 -127l-303 37l-43 -358l-117 -359l320 37l-27 -127l-305 35z" />
<glyph unicode="&#x2022;" horiz-adv-x="1024" d="M971 819q0 -88 -40 -171.5t-104.5 -144t-148.5 -97.5t-168 -37q-132 0 -214.5 81t-82.5 207q0 83 38 165t100.5 145t148 102t174.5 39q131 0 214 -82t83 -207z" />
<glyph unicode="&#x2026;" horiz-adv-x="2048" d="M348 0h-176l41 184h176zM1030 0h-176l41 184h176zM1712 0h-176l41 184h176z" />
<glyph unicode="&#x202f;" horiz-adv-x="509" />
<glyph unicode="&#x2030;" horiz-adv-x="2048" d="M2011 367q0 -94 -55.5 -180t-143.5 -137.5t-182 -51.5q-109 0 -178.5 68.5t-69.5 171.5q0 94 56 180.5t144.5 138t182.5 51.5q109 0 177.5 -68.5t68.5 -172.5zM1919 346q0 73 -48.5 122.5t-125.5 49.5q-102 0 -186 -80.5t-84 -179.5q0 -71 50 -120.5t126 -49.5 q99 0 183.5 80.5t84.5 177.5zM1255 367q0 -94 -55.5 -180t-143.5 -137.5t-182 -51.5q-109 0 -178 68.5t-69 171.5q0 94 56 180.5t144.5 138t182.5 51.5q109 0 177 -68.5t68 -172.5zM1163 346q0 73 -48.5 122.5t-125.5 49.5q-102 0 -186 -80.5t-84 -179.5q0 -71 50 -120.5 t126 -49.5q99 0 183.5 80.5t84.5 177.5zM827 1237q0 -94 -55.5 -180t-143.5 -137.5t-182 -51.5q-109 0 -178 68.5t-69 171.5q0 94 56 180.5t144.5 138.5t182.5 52q109 0 177 -69t68 -173zM735 1217q0 73 -48.5 122.5t-125.5 49.5q-101 0 -184.5 -80.5t-83.5 -178.5 q0 -73 48.5 -122.5t125.5 -49.5q100 0 184 80.5t84 178.5zM193 -20h-107l1171 1519h107z" />
<glyph unicode="&#x2039;" horiz-adv-x="681" d="M479 217h-135l-176 320l317 311h136l-324 -311z" />
<glyph unicode="&#x203a;" horiz-adv-x="681" d="M586 528l-318 -311h-135l324 311l-183 320h136z" />
<glyph unicode="&#x2044;" horiz-adv-x="342" d="M-307 -20h-121l1245 1519h117z" />
<glyph unicode="&#x205f;" horiz-adv-x="636" />
<glyph unicode="&#x20ac;" d="M1028 311l-35 -157q-85 -85 -191 -129.5t-214 -44.5q-103 0 -180 36.5t-121 100.5t-65 142.5t-21 170.5q0 24 4 74h-142l54 98h96q20 124 43 201h-127l57 98h99q37 126 97.5 233t140.5 189.5t183 129t216 46.5q131 0 228.5 -59.5t137.5 -173.5l-82 -150q-28 115 -111 194 t-202 79q-88 0 -168 -43t-139 -115t-101.5 -156t-66.5 -174h667l-55 -98h-639q-8 -23 -15 -51.5t-10.5 -47.5t-9 -53.5t-8.5 -48.5h567l-53 -98h-522q-4 -23 -4 -66q0 -151 70 -249.5t208 -98.5q225 0 414 221z" />
<glyph unicode="&#x2113;" horiz-adv-x="976" d="M846 291l53 -49q-188 -252 -426 -252q-131 0 -192.5 74.5t-61.5 199.5q0 66 14 129l7 29q-76 -52 -144 -103l-26 76q131 92 194 144l131 589q24 111 61.5 198t78.5 141t89 89.5t91.5 49.5t87.5 14q92 0 139 -57.5t47 -155.5q0 -112 -45.5 -228t-132 -229.5t-193.5 -220 t-247 -219.5l-15 -66q-16 -71 -16 -141q0 -111 48 -164t128 -53q93 0 180.5 61t149.5 144zM510 1141l-111 -506q112 99 194.5 185.5t155.5 183.5t111.5 195t38.5 192q0 135 -119 135q-33 0 -68.5 -20.5t-73 -63.5t-71.5 -120.5t-57 -180.5z" />
<glyph unicode="&#x2122;" horiz-adv-x="2027" d="M553 635h-102l165 754h-280l20 90h656l-21 -90h-272zM1862 635h-103l166 754h-4l-471 -754h-61l-140 754h-4l-166 -754h-102l186 844h174l123 -672l414 672h174z" />
<glyph unicode="&#x2126;" horiz-adv-x="1482" d="M1292 0h-477l16 74q83 50 167 131.5t160.5 190.5t124.5 251t48 287q0 90 -21 168.5t-62.5 142.5t-112.5 101.5t-164 37.5q-170 0 -320 -115t-238.5 -304t-88.5 -400q0 -161 55 -292t141 -199l-16 -74h-477l22 100h316l2 6q-75 81 -119.5 200t-44.5 263q0 196 70 370.5 t182.5 292.5t254 186.5t285.5 68.5q145 0 251.5 -66.5t160 -181t53.5 -262.5q0 -141 -44 -281t-115 -251.5t-148.5 -196.5t-155.5 -142l-2 -6h320z" />
<glyph unicode="&#x212e;" horiz-adv-x="2162" d="M1710 274h121q-115 -134 -291 -213t-377 -79q-229 0 -422.5 101t-306 274.5t-112.5 379.5q0 155 66.5 296.5t179 243.5t268.5 162t327 60q173 0 329.5 -60t270 -162t180 -243t66.5 -297v-18h-1366q-12 0 -12 -10v-414q0 -22 18 -47q103 -106 236 -165.5t282 -59.5 q159 0 300 67t243 184zM1700 772v416q0 28 -21 49q-103 101 -235 159t-277 58q-147 0 -280 -59.5t-236 -163.5q-20 -23 -20 -51v-408q0 -4 4 -9t8 -5h1047q10 0 10 14z" />
<glyph unicode="&#x2202;" horiz-adv-x="1103" d="M971 791h2q51 216 51 339q0 190 -78 301t-203 111q-158 0 -297 -100l-26 88q167 115 356 115q161 0 263 -124t102 -362q0 -135 -37 -305q-54 -248 -153.5 -441t-245 -309t-314.5 -116q-148 0 -222.5 92.5t-74.5 238.5q0 147 54.5 277.5t139 216.5t184.5 136t194 50 q56 0 104.5 -15.5t81.5 -38.5t59 -52.5t39.5 -54.5t20.5 -47zM926 655q-5 40 -24 81t-50.5 78.5t-82 61t-110.5 23.5q-105 0 -207.5 -77.5t-168.5 -208.5t-66 -273q0 -116 54.5 -183t152.5 -67q102 0 201.5 79t175.5 205t125 281z" />
<glyph unicode="&#x2206;" horiz-adv-x="1325" d="M1174 0h-1188l20 90l842 1415h135l211 -1413zM1067 100l-131 865q-4 50 -27.5 194t-25.5 197h-11q-16 -35 -52.5 -98t-84 -142.5t-69.5 -118.5l-537 -897h938z" />
<glyph unicode="&#x220f;" horiz-adv-x="1742" d="M1378 -203h-118v1557h-615v-1557h-119v1557h-229v110h1311v-110h-230v-1557z" />
<glyph unicode="&#x2211;" horiz-adv-x="1458" d="M1329 -203h-1040v84l571 746l-545 751v86h981v-106h-809v-8l512 -707l-550 -723v-6h880v-117z" />
<glyph unicode="&#x2212;" horiz-adv-x="1228" d="M1171 477h-1065l25 111h1065z" />
<glyph unicode="&#x2215;" horiz-adv-x="342" d="M-307 -20h-121l1245 1519h117z" />
<glyph unicode="&#x2219;" horiz-adv-x="569" d="M426 553q0 -49 -41 -86t-86 -37q-36 0 -60 22.5t-24 57.5q0 49 41.5 87t87.5 38q35 0 58.5 -23.5t23.5 -58.5z" />
<glyph unicode="&#x221a;" horiz-adv-x="1492" d="M952 -319h-112l-336 989l-154 -56l-28 78l260 99l276 -811q31 -127 35 -146h2q3 17 13 66t14 75l393 1760h92z" />
<glyph unicode="&#x221e;" horiz-adv-x="1804" d="M926 539q-42 -48 -67.5 -74.5t-68.5 -65t-78.5 -59t-83 -36t-96.5 -15.5q-125 0 -214 91t-89 222q0 137 90 227.5t228 90.5q56 0 109 -20t103.5 -60t87.5 -77t87 -95q43 50 66 75t66 65t77 60t81.5 36t96.5 16q135 0 217 -86t82 -224q0 -143 -92 -232t-219 -89 q-93 0 -177 58.5t-206 191.5zM879 600q-9 10 -39.5 45t-44.5 49.5t-43 43.5t-50.5 42.5t-50.5 30.5t-59 24t-62 7q-96 0 -153.5 -70.5t-57.5 -167.5q0 -99 62.5 -166t165.5 -67q33 0 67.5 12t59 25.5t59.5 44t50 45.5t51.5 54.5t44.5 47.5zM979 608q51 -55 79 -84t66.5 -64 t65.5 -50.5t60 -27t67 -11.5q96 0 154.5 70t58.5 161q0 113 -60 176.5t-155 63.5q-41 0 -82 -16t-79 -46.5t-65 -57t-62 -64t-48 -50.5z" />
<glyph unicode="&#x222b;" horiz-adv-x="1044" d="M274 -295l25 90q47 -26 94 -26q26 0 47 7.5t45.5 33.5t41 69.5t27.5 123t11 187.5q0 168 -13 543.5t-13 536.5q0 267 73 389.5t211 122.5q61 0 109 -29l-25 -86q-31 23 -76 23q-93 0 -135.5 -100.5t-42.5 -329.5q0 -162 13.5 -533.5t13.5 -538.5q0 -126 -16.5 -220.5 t-42 -150t-63.5 -89.5t-75 -46t-82 -12q-69 0 -127 35z" />
<glyph unicode="&#x2248;" horiz-adv-x="1363" d="M1126 885l56 -45q-98 -193 -262 -193q-40 0 -81 12t-71 27t-92 49q-45 25 -67.5 36.5t-59.5 23.5t-70 12q-67 0 -113.5 -40.5t-95.5 -115.5l-57 43q48 93 120.5 144t160.5 51q35 0 73 -11t57 -19.5t59.5 -32t43.5 -25.5q8 -4 34 -18t34.5 -18.5t29.5 -13.5t33.5 -12.5 t31.5 -6.5t38 -3q62 0 107.5 38t90.5 118zM1126 543l56 -45q-97 -191 -260 -191q-59 0 -107.5 19.5t-138.5 68.5q-45 25 -67.5 36.5t-59.5 23.5t-70 12q-67 0 -115 -42t-94 -116l-57 45q48 92 120 142.5t159 50.5q29 0 56.5 -5t55 -17t44 -20t44.5 -24l35 -20t33 -18t34 -18 t29.5 -13.5t34.5 -12.5t32 -6.5t38 -3.5q62 0 106.5 36.5t91.5 117.5z" />
<glyph unicode="&#x2260;" horiz-adv-x="1404" d="M1214 356h-548l-115 -245l-68 32l99 213h-318v84h354l144 310h-498v84h533l110 241l70 -31l-98 -210h335v-84h-370l-144 -310h514v-84z" />
<glyph unicode="&#x2264;" horiz-adv-x="1439" d="M1243 203l-934 469v88l934 469v-105l-837 -403v-6l837 -408v-104zM1249 29h-952v88h952v-88z" />
<glyph unicode="&#x2265;" horiz-adv-x="1439" d="M1245 672l-934 -469v104l838 406v4l-838 407v105l934 -469v-88zM1247 29h-948v88h948v-88z" />
<glyph unicode="&#x25ca;" horiz-adv-x="1497" d="M881 -90h-101l-413 821l417 823h99l415 -823zM829 14h9q14 57 36 103l312 610l-314 614q-24 57 -38 107h-5q-19 -60 -41 -107l-309 -606l314 -618q29 -60 36 -103z" />
<glyph unicode="&#x25fc;" horiz-adv-x="1064" d="M0 1065h1065v-1065h-1065v1065z" />
<glyph unicode="&#xf700;" horiz-adv-x="1087" d="M700 0h-108l-37 369q-2 12 -2 41q0 46 8 82h-4q-17 -40 -57 -68.5t-99 -28.5q-77 0 -124.5 46.5t-47.5 113.5q0 97 67 155t157 58q168 0 184 -184l22 -277q3 -43 3 -76q0 -53 -9 -129h11q16 117 51 205l123 320q20 53 20 94q0 74 -70 104.5t-217 30.5q-103 0 -202.5 -15 t-157.5 -40h-27l25 112q10 45 27.5 85t50 80.5t75.5 69.5t107 47.5t141 18.5q75 0 144.5 -17t121.5 -34.5t85 -17.5q48 0 69.5 29.5t36.5 95.5l111 -39q-17 -82 -75.5 -134.5t-131.5 -52.5q-68 0 -172 35t-201 35q-115 0 -187.5 -51.5t-88.5 -124.5l-5 -18q104 34 263 34 q191 0 289 -48t98 -154q0 -54 -27 -127zM530 596q0 36 -22.5 60t-61.5 24q-48 0 -81 -32t-33 -81q0 -35 22.5 -58.5t57.5 -23.5q53 0 85.5 30t32.5 81z" />
<glyph unicode="&#xf701;" horiz-adv-x="0" d="M-217 1389h-10q-206 124 -506 124q-212 0 -408 -28h-16q52 158 200 262t334 104q187 0 301.5 -102t114.5 -264q0 -41 -10 -96zM-293 1516q-8 41 -30.5 80t-61.5 76.5t-104 60t-146 22.5q-131 0 -224 -50.5t-147 -119.5q111 27 299 27q262 0 414 -96z" />
<glyph unicode="&#xf702;" horiz-adv-x="0" d="M-217 1389h-10q-206 124 -508 124q-210 0 -406 -28h-16q52 158 200 262t334 104q145 0 248 -62t121 -175l10 2q-4 24 -4 45q0 50 21 160l30 149h105zM-293 1516q-8 41 -30.5 80t-61.5 76.5t-104 60t-146 22.5q-131 0 -224 -50.5t-147 -119.5q111 27 299 27q262 0 414 -96 z" />
<glyph unicode="&#xf703;" horiz-adv-x="0" d="M-217 1389h-10q-206 124 -506 124q-212 0 -408 -28h-16q52 158 200 262t334 104q101 0 166 -26q27 66 87 109.5t128 43.5t108 -41.5t40 -105.5q0 -65 -42 -120.5t-106 -82.5q35 -68 35 -151q0 -40 -10 -88zM-293 1516q-8 41 -30.5 80t-61.5 76.5t-104 60t-146 22.5 q-131 0 -224 -50.5t-147 -119.5q111 27 299 27q262 0 414 -96zM-383 1794q67 -49 102 -100q46 11 75.5 44t29.5 79q0 37 -22.5 59t-61.5 22q-46 0 -80 -30t-43 -74z" />
<glyph unicode="&#xf704;" horiz-adv-x="0" d="M-217 1389h-10q-206 124 -506 124q-212 0 -408 -28h-16q52 158 200 262t334 104q105 0 172 -24l31 143h105l-41 -188q87 -71 102 -168l10 2q-4 24 -4 45q0 50 21 160l30 149h105zM-293 1516q-8 41 -30.5 80t-61.5 76.5t-104 60t-146 22.5q-131 0 -224 -50.5t-147 -119.5 q111 27 299 27q262 0 414 -96z" />
<glyph unicode="&#xf705;" horiz-adv-x="0" d="M-406 1401h-110l90 420h111z" />
<glyph unicode="&#xf706;" horiz-adv-x="0" d="M-55 1831l-6 -25q-25 -100 -92 -181.5t-153 -130.5t-175.5 -75t-169.5 -26q-106 0 -189 14l11 59q54 16 112.5 51t95.5 78l-2 4q-25 -14 -57 -14q-44 0 -79.5 36t-35.5 87q0 76 48.5 121t121.5 45q63 0 104.5 -38.5t41.5 -100.5q0 -89 -65 -163t-146 -106q113 0 222 42 t190 121t106 177l6 25h111zM-565 1739q0 26 -16 44.5t-48 18.5q-38 0 -60 -24.5t-22 -57.5q0 -24 16 -42.5t44 -18.5q43 0 64.5 23.5t21.5 56.5z" />
<glyph unicode="&#xf707;" horiz-adv-x="0" d="M-729 1538q0 22 -16 39.5t-43 17.5q-33 0 -51.5 -20.5t-18.5 -50.5q0 -22 15 -39t42 -17q34 0 53 20t19 50zM-68 1837l-6 -27q-45 -197 -175.5 -303t-340.5 -106l15 65q165 66 165 211q0 42 -19 67t-52 25q-34 0 -65 -22t-50 -53h-59q-15 78 -93 78q-38 0 -67.5 -21 t-44.5 -51.5t-22 -56.5t-7 -44l4 -2q38 70 121 70q52 0 86.5 -32.5t34.5 -84.5q0 -72 -47 -113.5t-115 -41.5q-79 0 -125.5 50.5t-46.5 137.5q0 46 14 92.5t40.5 87t71.5 65.5t101 25q52 0 85.5 -26t48.5 -60q21 32 64 59t97 27q57 0 96.5 -39.5t39.5 -121.5 q0 -61 -32.5 -114t-84.5 -83q61 16 106 46t73.5 74.5t45.5 89.5t31 105l6 27h106z" />
<glyph unicode="&#xf708;" horiz-adv-x="0" d="M-199 1597h-190l-43 -196h-103l43 196h-188l18 95h189l43 194h102l-43 -194h191z" />
<glyph unicode="&#xf709;" horiz-adv-x="0" d="M-84 1935l27 -88q-112 -54 -253.5 -90t-252.5 -41l-2 -4q48 -6 83.5 -44t35.5 -91q0 -84 -56.5 -134t-142.5 -50q-69 0 -114.5 44t-45.5 113q0 63 42 116t110 89q65 33 160 55t204 49.5t205 75.5zM-635 1468q47 0 72.5 30t25.5 71q0 33 -19.5 55.5t-57.5 22.5 q-48 0 -75.5 -31t-27.5 -72q0 -33 21.5 -54.5t60.5 -21.5z" />
<glyph unicode="&#xf70a;" horiz-adv-x="0" d="M23 1401h-111l90 420h111z" />
<glyph unicode="&#xf70b;" horiz-adv-x="0" d="M256 1831l-6 -25q-25 -100 -92 -181.5t-153 -130.5t-175.5 -75t-169.5 -26q-105 0 -188 14l10 59q54 16 113 51t96 78l-2 4q-25 -14 -58 -14q-44 0 -79 36t-35 87q0 76 48.5 121t121.5 45q63 0 104 -38.5t41 -100.5q0 -89 -65 -163t-146 -106q113 0 222 42t190 121 t106 177l6 25h111zM-254 1739q0 26 -16 44.5t-47 18.5q-38 0 -60 -24.5t-22 -57.5q0 -24 16 -42.5t43 -18.5q43 0 64.5 23.5t21.5 56.5z" />
<glyph unicode="&#xf70c;" horiz-adv-x="0" d="M-395 1538q0 22 -16 39.5t-44 17.5q-33 0 -51 -20.5t-18 -50.5q0 -22 15 -39t42 -17q34 0 53 20t19 50zM266 1837l-6 -27q-45 -197 -175.5 -303t-340.5 -106l14 65q70 28 118 79.5t48 131.5q0 42 -19 67t-52 25q-34 0 -65 -22t-50 -53h-60q-15 78 -92 78q-38 0 -67.5 -21 t-44.5 -51.5t-22 -56.5t-7 -44l4 -2q38 70 121 70q52 0 86.5 -32.5t34.5 -84.5q0 -72 -47 -113.5t-115 -41.5q-79 0 -125.5 50.5t-46.5 137.5q0 46 14 92.5t40.5 87t71.5 65.5t101 25q52 0 84.5 -26t48.5 -60q21 32 64.5 59t97.5 27q57 0 96 -39.5t39 -121.5 q0 -61 -32.5 -114t-83.5 -83q61 16 106 46t73.5 74.5t45.5 89.5t31 105l6 27h106z" />
<glyph unicode="&#xf70d;" horiz-adv-x="0" d="M250 1597h-191l-43 -196h-102l43 196h-190l18 95h190l43 194h103l-43 -194h190z" />
<glyph unicode="&#xf70e;" horiz-adv-x="0" d="M303 1935l27 -88q-112 -54 -253.5 -90t-252.5 -41l-2 -4q48 -6 83.5 -44t35.5 -91q0 -84 -56.5 -134t-142.5 -50q-69 0 -114.5 44t-45.5 113q0 63 42 116t110 89q65 33 160 55t204 49.5t205 75.5zM-248 1468q47 0 72.5 30t25.5 71q0 33 -19.5 55.5t-57.5 22.5 q-48 0 -75.5 -31t-27.5 -72q0 -33 21.5 -54.5t60.5 -21.5z" />
<glyph unicode="&#xf70f;" horiz-adv-x="1853" d="M451 193q0 37 -22 60t-60 23q-50 0 -84.5 -30.5t-34.5 -79.5q0 -36 24 -60t60 -24q50 0 83.5 32t33.5 79zM1577 0h-750l170 797q11 60 11 94q0 223 -277 223q-211 0 -371 -133v-6q68 -6 143.5 -34.5t121.5 -63.5l-13 -46q-100 -11 -170.5 -75.5t-93.5 -169.5l-33 -150 q-17 -70 -45 -123l9 -2q14 21 46.5 36t71.5 15q65 0 110.5 -43t45.5 -116q0 -92 -66.5 -151.5t-162.5 -59.5q-78 0 -128.5 41.5t-50.5 107.5q0 7 5 37l88 408q21 96 81.5 167.5t137.5 100.5l2 8q-79 43 -246 43l14 66q81 108 218 175.5t307 67.5q182 0 275 -79.5t93 -223.5 q0 -53 -12 -114l-145 -686h526l233 1087h111z" />
<glyph unicode="&#xf710;" horiz-adv-x="0" d="M98 1800l-6 -28q-20 -90 -72 -163t-122 -118t-149.5 -69.5t-158.5 -24.5q-177 0 -266.5 59.5t-89.5 153.5q0 86 55.5 143t149.5 57q65 0 109 -41t44 -100q0 -58 -38 -99t-101 -61l-2 -6q44 -14 141 -14q146 0 255.5 75.5t138.5 207.5l6 28h106zM-500 1655q0 30 -20.5 52 t-50.5 22q-42 0 -71.5 -28.5t-29.5 -70.5q0 -30 20.5 -49.5t51.5 -19.5q41 0 70.5 27t29.5 67z" />
<glyph unicode="&#xf711;" horiz-adv-x="0" d="M-205 1722q0 -104 -76 -176.5t-186 -72.5q-89 0 -140.5 58t-51.5 138q0 104 77 177t187 73q85 0 137.5 -58.5t52.5 -138.5zM-297 1714q0 50 -29.5 83.5t-81.5 33.5q-64 0 -112.5 -44.5t-48.5 -111.5q0 -49 33.5 -81.5t80.5 -32.5q63 0 110.5 42.5t47.5 110.5z" />
<glyph unicode="&#xf712;" horiz-adv-x="0" d="M-451 1473v4q-22 24 -22 67q0 63 41.5 104.5t109.5 41.5q58 0 96 -34.5t38 -84.5q0 -79 -56 -126.5t-137 -47.5q-90 0 -155 36.5t-89 96.5q-55 -48 -94 -131h-33q-49 32 -83.5 86.5t-34.5 122.5q0 52 15.5 100t48.5 90.5t93 68t140 25.5h237q119 0 195 95l59 -72 q-98 -113 -264 -113h-232q-91 0 -140.5 -51.5t-49.5 -128.5q0 -30 8.5 -57.5t17.5 -39.5l9 -12q19 35 57 76.5t70 61.5h16q0 -58 43.5 -112.5t95.5 -65.5zM-268 1561q0 25 -16 41t-42 16q-30 0 -51.5 -20.5t-21.5 -49.5q0 -24 17.5 -40.5t43.5 -16.5q31 0 50.5 18.5 t19.5 51.5z" />
<glyph unicode="&#xf713;" horiz-adv-x="0" d="M-68 2107h-102l74 342h102z" />
<glyph unicode="&#xf714;" horiz-adv-x="0" d="M170 2503l-6 -25q-23 -90 -81.5 -164t-133.5 -118.5t-154.5 -68.5t-152.5 -24q-89 0 -168 15l8 57q126 37 190 109l-4 4q-13 -13 -47 -13q-45 0 -77.5 34.5t-32.5 86.5q0 67 45.5 108.5t107.5 41.5q61 0 100 -37t39 -94q0 -82 -57.5 -146t-132.5 -92q148 0 279.5 84.5 t164.5 216.5l6 25h107zM-276 2417q0 22 -16 39.5t-44 17.5q-35 0 -54.5 -20.5t-19.5 -49.5q0 -22 15.5 -39.5t40.5 -17.5q39 0 58.5 20t19.5 50z" />
<glyph unicode="&#xf715;" horiz-adv-x="0" d="M-416 2238q0 21 -13.5 36.5t-39.5 15.5q-32 0 -49 -18.5t-17 -45.5q0 -20 14.5 -35.5t39.5 -15.5q32 0 48.5 18t16.5 45zM188 2509l-6 -23q-48 -182 -162 -277t-311 -95l15 59q64 24 106.5 73.5t42.5 120.5q0 36 -16.5 57t-44.5 21q-32 0 -61.5 -20t-45.5 -47h-53 q-15 69 -82 69q-34 0 -61 -17.5t-41.5 -43t-21.5 -49t-7 -41.5l4 -2q33 65 108 65q50 0 83.5 -31.5t33.5 -80.5q0 -68 -40 -105t-107 -37t-115.5 51.5t-48.5 124.5q0 97 57.5 170.5t155.5 73.5q47 0 76.5 -24.5t40.5 -55.5q21 31 60.5 55.5t88.5 24.5q45 0 83 -31.5 t38 -95.5q0 -62 -29 -116t-75 -84q45 12 80 34t57 46t40.5 61.5t29 68.5t22.5 78l6 23h100z" />
<glyph unicode="&#xf716;" horiz-adv-x="0" d="M127 2275h-164l-35 -168h-94l35 168h-162l19 86h161l37 166h94l-36 -166h163z" />
<glyph unicode="&#xf717;" horiz-adv-x="0" d="M88 2460l29 -80q-104 -49 -233 -82.5t-232 -38.5v-4q43 -5 74.5 -39t31.5 -84q0 -76 -51.5 -121t-126.5 -45q-67 0 -106 39.5t-39 99.5q0 58 37 108.5t98 80.5q67 34 237.5 73t280.5 93zM-412 2036q47 0 67.5 26t20.5 64q0 28 -20.5 48.5t-56.5 20.5q-42 0 -63 -26.5 t-21 -65.5q0 -29 20 -48t53 -19z" />
<glyph unicode="&#xf718;" horiz-adv-x="0" d="M-516 -1100h-102l28 133q11 52 43 115l-8 2q-31 -53 -102 -53q-59 0 -100.5 40t-41.5 107q0 83 58 137t149 54q67 0 112.5 -40.5t45.5 -101.5q0 -12 -4 -32zM-530 -717q0 30 -19 50t-49 20q-44 0 -75.5 -30t-31.5 -73q0 -30 19 -49.5t51 -19.5q42 0 73.5 30t31.5 72z" />
<glyph unicode="&#xf719;" horiz-adv-x="0" d="M-516 -1100h-461l23 92h90l8 41q11 52 43 115l-8 2q-31 -53 -103 -53q-59 0 -100 40t-41 107q0 83 58 137t149 54q67 0 112.5 -40.5t45.5 -101.5q0 -7 -5 -32l-55 -269h162l90 433h105zM-797 -717q0 30 -18.5 50t-48.5 20q-44 0 -75.5 -30t-31.5 -73q0 -30 19 -49.5 t51 -19.5q42 0 73 30t31 72z" />
<glyph unicode="&#xf71a;" horiz-adv-x="0" d="M-340 -688q0 -69 -56 -121.5t-126 -52.5q-53 0 -87 35t-34 88q0 68 57 121t127 53q53 0 86 -35.5t33 -87.5z" />
<glyph unicode="&#xf71b;" horiz-adv-x="1337" d="M301 -307q0 40 -26 67t-70 27q-53 0 -92 -34.5t-39 -88.5q0 -41 26 -69.5t70 -28.5q53 0 92 36t39 91zM1008 -270l-297 -267h-21l-192 140q-36 26 -61 57.5t-25 58.5h-6l-11 -51q-18 -86 -81.5 -139t-157.5 -53q-77 0 -133 49t-56 125q0 98 70.5 162.5t169.5 64.5 q42 0 76.5 -12.5t48.5 -25.5l14 -13l8 6q-18 18 -18 53q0 18 6 39l4 19h111l-31 -154l270 -205l209 193l221 1020q11 60 11 92q0 108 -71 166.5t-216 58.5q-115 0 -212 -37.5t-167 -95.5v-6q69 -6 149 -35t125 -63l-12 -46q-192 -20 -241 -245l-89 -408q-20 -88 -82 -137 t-147 -49q-75 0 -123.5 45t-48.5 117q0 94 64 152.5t155 58.5q74 0 113 -54l8 2q-2 14 -2 43q0 39 8 80l33 150q22 100 72.5 170.5t124.5 97.5l2 8q-39 21 -112.5 32t-143.5 11l14 66q81 109 216.5 176t307.5 67q188 0 287.5 -81t99.5 -228q0 -49 -12 -108zM303 193 q0 36 -22.5 59.5t-59.5 23.5q-50 0 -84.5 -31.5t-34.5 -78.5q0 -35 24.5 -59.5t61.5 -24.5q50 0 82.5 31t32.5 80z" />
<glyph unicode="&#xf71c;" horiz-adv-x="1337" d="M160 -434q54 0 89.5 36.5t35.5 92.5q0 40 -22.5 66t-63.5 26q-54 0 -90.5 -37t-36.5 -92q0 -39 24.5 -65.5t63.5 -26.5zM993 -334l-227 -203h-25l-98 129l-151 -129h-23l-55 74q-31 40 -31 115v24h-6q-18 -89 -78 -144.5t-152 -55.5q-75 0 -126.5 47.5t-51.5 122.5 q0 96 69.5 163.5t162.5 67.5q49 0 84 -18t47 -37l8 6q-16 16 -16 59q0 25 4 37l4 19h110l-39 -187l95 -172l149 117h23l96 -117l125 117l235 1096q11 60 11 92q0 108 -71 166.5t-216 58.5q-115 0 -212 -37.5t-167 -95.5v-6q69 -6 149 -35t125 -63l-12 -46 q-192 -20 -241 -245l-89 -408q-20 -88 -82 -137t-147 -49q-75 0 -123.5 45t-48.5 117q0 94 64 152.5t155 58.5q74 0 113 -54l8 2q-2 14 -2 43q0 39 8 80l33 150q22 100 72.5 170.5t124.5 97.5l2 8q-39 21 -112.5 32t-143.5 11l14 66q81 109 216.5 176t307.5 67 q188 0 287.5 -81t99.5 -228q0 -49 -12 -108zM303 193q0 36 -22.5 59.5t-59.5 23.5q-50 0 -84.5 -31.5t-34.5 -78.5q0 -35 24.5 -59.5t61.5 -24.5q50 0 82.5 31t32.5 80z" />
<glyph unicode="&#xf71d;" horiz-adv-x="1507" d="M483 1044q0 36 -22 58t-58 22q-52 0 -86 -33t-34 -81q0 -36 21.5 -58t57.5 -22q47 0 84 33t37 81zM1350 1092q6 24 6 43q0 53 -43.5 81.5t-112.5 28.5q-84 0 -139 -29.5t-55 -64.5q0 -36 53.5 -59t146.5 -23q64 0 144 23zM1229 0h-99l-237 655l-516 -655h-127l166 770 q9 44 47 123l-8 2q-41 -55 -119 -55q-62 0 -109 45.5t-47 111.5q0 94 65 155.5t169 61.5q73 0 121.5 -42.5t48.5 -110.5q0 -13 -4 -41l-179 -834l457 582h96l203 -573l172 796q-81 -20 -160 -20q-117 0 -198.5 50.5t-81.5 119.5q0 81 84 139.5t231 58.5q115 0 190.5 -52.5 t75.5 -133.5q64 40 115.5 88t71.5 74.5t20 30.5q0 1 21.5 -13t43.5 -29l21 -14q-148 -182 -313 -258z" />
<glyph unicode="&#xf883;" horiz-adv-x="1228" d="M451 193q0 37 -22 60t-60 23q-50 0 -84.5 -30.5t-34.5 -79.5q0 -36 24 -60t60 -24q50 0 83.5 32t33.5 79zM866 -430h-110l260 1227q10 55 10 92q0 108 -71 166.5t-216 58.5q-115 0 -212 -37.5t-167 -95.5v-6q68 -6 143.5 -34.5t121.5 -63.5l-13 -46 q-100 -11 -170.5 -75.5t-93.5 -169.5l-33 -150q-17 -70 -45 -123l9 -2q14 21 46.5 36t71.5 15q65 0 110.5 -43t45.5 -116q0 -92 -66.5 -151.5t-162.5 -59.5q-78 0 -128.5 41.5t-50.5 107.5q0 7 5 37l88 408q21 96 81.5 167.5t137.5 100.5l2 8q-79 43 -246 43l14 66 q81 108 220.5 175.5t312.5 67.5q186 0 282.5 -80.5t96.5 -224.5q0 -49 -13 -112z" />
<glyph unicode="&#xf884;" horiz-adv-x="1337" d="M975 -430h-111l262 1227q11 60 11 92q0 108 -71 166.5t-216 58.5q-115 0 -212 -37.5t-167 -95.5v-6q69 -6 149 -35t125 -63l-12 -46q-192 -20 -241 -245l-89 -408q-20 -88 -82 -137t-147 -49q-75 0 -123.5 45t-48.5 117q0 94 64 152.5t155 58.5q74 0 113 -54l8 2 q-2 14 -2 43q0 39 8 80l33 150q22 100 72.5 170.5t124.5 97.5l2 8q-39 21 -112.5 32t-143.5 11l14 66q81 109 216.5 176t307.5 67q188 0 287.5 -81t99.5 -228q0 -49 -12 -108zM303 193q0 36 -22.5 59.5t-59.5 23.5q-50 0 -84.5 -31.5t-34.5 -78.5q0 -35 24.5 -59.5 t61.5 -24.5q50 0 82.5 31t32.5 80z" />
<glyph unicode="&#xf8ff;" horiz-adv-x="1843" d="M922 -18q-160 0 -266.5 11t-192.5 43t-134 80t-80 134t-43 192.5t-11 266.5t11 266.5t43 192.5t80 134t134 80t192.5 43t266.5 11t266.5 -11t192.5 -43t134 -80t80 -134t43 -192.5t11 -266.5t-11 -266.5t-43 -192.5t-80 -134t-134 -80t-192.5 -43t-266.5 -11zM1358 293 v457q0 175 -125 288t-311 113t-311.5 -113t-125.5 -288v-457h174l195 209q32 -13 68 -13q78 0 131 52t53 133q0 79 -53.5 131.5t-130.5 52.5q-78 0 -132.5 -52.5t-54.5 -131.5q0 -52 27 -99l-133 -145v320q0 123 84.5 197.5t208.5 74.5t208 -74.5t84 -197.5v-457h144z M922 596q-31 0 -54.5 23t-23.5 55t23.5 54t54.5 22t53 -22t22 -54t-22 -55t-53 -23z" />
<glyph horiz-adv-x="1071" d="M-205 1722q0 -104 -76 -176.5t-186 -72.5q-89 0 -140.5 58t-51.5 138q0 104 77 177t187 73q85 0 137.5 -58.5t52.5 -138.5zM-297 1714q0 50 -29.5 83.5t-81.5 33.5q-64 0 -112.5 -44.5t-48.5 -111.5q0 -49 33.5 -81.5t80.5 -32.5q63 0 110.5 42.5t47.5 110.5zM797 0h-111 l180 844q8 46 8 65q0 92 -63.5 144.5t-181.5 52.5q-132 0 -230 -79.5t-127 -211.5l-16 -72h-113l15 70q37 184 164.5 292.5t314.5 108.5q161 0 255.5 -79t94.5 -211q0 -41 -8 -80z" />
<glyph horiz-adv-x="0" d="M-467 1489l31 -66q-56 -39 -119 -39q-71 0 -109 34.5t-38 80.5q0 66 46 114t130 68q-31 12 -31 60q0 71 64.5 112t177.5 41q91 0 139 -26l-37 -70q-47 21 -100 21q-66 0 -106 -22.5t-40 -65.5q0 -41 64 -41h80l-37 -76h-123q-47 0 -83 -25.5t-36 -64.5q0 -25 15.5 -40.5 t41.5 -15.5q43 0 70 21z" />
</font>
</defs>
</svg>
